<svg width="2616" height="1504" viewBox="0 0 2616 1504" fill="none" xmlns="http://www.w3.org/2000/svg">
<g clip-path="url(#clip0_820_8)">
<path d="M2349.34 1464.26V1349.1V1014.1V713.053V337.449V243.548V196.597V8.79521V-38.1553" stroke="#42413E" stroke-width="3"/>
<path d="M1341.5 -1020.58L1336 -1001.08L1320.5 -979.58L1288 -937.58L1264 -895.08L1251.5 -874.58L1238 -858.58L1227 -845.08L1211.5 -826.08L1207.5 -813.08C1209.67 -808.58 1212.7 -798.78 1207.5 -795.58C1201 -791.58 1194.5 -784.08 1193 -782.08C1191.5 -780.08 1180.5 -760.08 1177 -756.58C1173.5 -753.08 1168 -737.08 1165.5 -735.08C1163.5 -733.48 1156 -724.08 1152.5 -719.58C1148.83 -716.913 1141.1 -710.78 1139.5 -707.58C1137.9 -704.38 1132.83 -695.913 1130.5 -692.08C1129.67 -690.58 1127.4 -686.78 1125 -683.58C1122.6 -680.38 1110 -664.58 1104 -657.08L1099 -642.58L1086 -631.08L1072 -619.58L1058.5 -615.08L1045.5 -619.58L1032.5 -626.08L1023 -638.58L1020 -642.58M1020 -642.58C1022.17 -646.413 1027.1 -654.68 1029.5 -657.08C1031.9 -659.48 1032.5 -669.08 1032.5 -673.58L1023 -680.58L1009 -688.08L990.5 -683.58L984.5 -688.08L990.5 -729.58M1020 -642.58L1014 -641.58H1007.5L996.5 -644.58L980.5 -642.58L964.5 -644.58C960.667 -646.413 952.4 -650.78 950 -653.58C947.6 -656.38 941.334 -661.413 938.5 -663.58C936.334 -666.913 931.8 -674.28 931 -677.08C930 -680.58 926 -679.08 924.5 -683.58C923 -688.08 920.5 -691.58 920 -695.08C919.5 -698.58 911.5 -709.58 906 -719.58C900.5 -729.58 899 -732.58 897 -735.08C895 -737.58 890 -741.58 890 -745.08M890 -745.08C890 -748.58 890 -747.58 890 -752.08C890 -755.68 890 -762.913 890 -766.08L887.5 -778.58L883 -795.58L875.5 -819.58C872.5 -831.247 866.2 -855.38 865 -858.58C863.5 -862.58 877.5 -863.58 857.5 -874.58C837.5 -885.58 833 -885.08 830 -890.08C827 -895.08 830 -929.58 830 -933.58C830 -937.58 818.5 -955.08 812 -959.58C805.5 -964.08 794 -978.08 791 -984.08C788 -990.08 783 -1014.08 783 -1020.58C783 -1027.08 768.5 -1049.08 765.5 -1055.08C762.5 -1061.08 746 -1070.08 746 -1074.58C746 -1078.18 746 -1100.41 746 -1111.08L736.5 -1117.08M890 -745.08C884.921 -743.079 874.896 -739.487 872.446 -739.893M732 -759.08C737.167 -759.58 747.8 -760.58 749 -760.58C750.2 -760.58 752.5 -754.913 753.5 -752.08L786 -742.08L805.5 -733.08C808.833 -733.08 816 -733.08 818 -733.08C820 -733.08 826.167 -734.413 829 -735.08C836 -738.413 851.7 -745.08 858.5 -745.08C867 -745.08 870.5 -741.58 872 -740.08C872.092 -739.988 872.243 -739.927 872.446 -739.893M960.5 -631.08H964.5H966.5H980.5L990.5 -626.08C993.667 -626.08 1000.5 -626.08 1002.5 -626.08C1005 -626.08 1009 -622.08 1010.5 -620.58C1012 -619.08 1023 -619.58 1029.5 -619.58C1036 -619.58 1036 -615.08 1037 -611.58C1037.8 -608.78 1047.33 -608.747 1052 -609.08V-602.58L1049.5 -593.58L1048 -590.08L1037 -579.58C1037.83 -578.247 1039 -574.38 1037 -569.58C1035 -564.78 1033.17 -558.247 1032.5 -555.58L1024.5 -546.58C1024.5 -542.08 1024.5 -532.78 1024.5 -531.58C1024.5 -530.08 1020 -519.58 1020 -518.08C1020 -516.88 1020 -507.913 1020 -503.58L1017 -492.08L1014 -481.08V-471.58L1010.5 -464.58L1002.5 -461.58L1000 -457.08L996.5 -451.08L994.5 -447.58L990.5 -442.08C990.667 -441.413 990.5 -440.08 988.5 -440.08C986.5 -440.08 981.333 -440.08 979 -440.08L976 -437.58L968.5 -432.08L966.5 -426.58L958 -417.58L956 -406.58L950 -409.08L945 -415.58L938.5 -424.58L933.5 -430.08L922.5 -432.08H915.5L910 -426.58V-419.58L917.5 -411.58H930.5L938.5 -398.08L940.5 -393.58L948.5 -379.58L938.5 -374.08L933.5 -381.58V-390.08L930.5 -393.58L924.5 -400.08L901 -395.08L883 -393.58C881.667 -393.247 879.1 -392.08 879.5 -390.08C880 -387.58 881 -376.58 883 -376.08C885 -375.58 891 -377.08 887 -372.08C883.8 -368.08 880.667 -360.413 879.5 -357.08C879.5 -356.247 879.5 -354.18 879.5 -352.58C879.5 -350.98 881.833 -342.58 883 -338.58V-334.58H875.5C876.333 -335.08 877.5 -336.58 875.5 -338.58C873.5 -340.58 868 -346.413 865.5 -349.08L863 -352.58L856.5 -349.08L849 -347.08L841 -344.08L835 -334.58L844.5 -328.58H846.5L856.5 -319.08C855.667 -315.913 853.8 -309.18 853 -307.58C852.2 -305.98 852.667 -300.247 853 -297.58L846.5 -294.08L837.5 -310.58C833.333 -309.747 824.9 -309.18 824.5 -313.58C824.1 -317.98 809.667 -319.08 802.5 -319.08L799.5 -331.08L791.5 -338.58L782 -321.58L780 -319.08L764.5 -316.58L767.5 -331.08C768.5 -333.747 769.9 -340.08 767.5 -344.08C765.1 -348.08 762.5 -354.413 761.5 -357.08L755.5 -372.08C751.833 -376.413 744.1 -384.98 742.5 -384.58C740.9 -384.18 732.833 -384.413 729 -384.58C727.167 -384.58 722.8 -384.58 720 -384.58C717.2 -384.58 708.167 -388.247 704 -390.08L691 -381.58C689.5 -380.913 686 -379.58 684 -379.58C681.5 -379.58 675.5 -381.08 672.5 -384.58C670.1 -387.38 663.833 -391.747 661 -393.58L650.5 -384.58L634.5 -379.58L625 -372.08V-362.58C624.833 -360.413 624.2 -355.38 623 -352.58C621.8 -349.78 618.167 -353.08 616.5 -355.08L614.5 -362.58L596 -365.08L607.5 -372.08L610.5 -376.08L604.5 -393.58V-395.08L599.5 -400.08C597.667 -401.413 593.4 -404.28 591 -405.08C588.6 -405.88 583 -409.747 580.5 -411.58M960.5 -631.08L964.5 -626.08L976 -622.58C977 -621.913 979 -620.18 979 -618.58C979 -616.98 979 -610.247 979 -607.08C978.167 -605.58 977.3 -602.58 980.5 -602.58C983.7 -602.58 987.167 -597.913 988.5 -595.58V-588.58M960.5 -631.08V-626.08L952.5 -620.58L942.5 -618.58C938.667 -618.08 930.5 -616.68 928.5 -615.08C926.5 -613.48 920.333 -612.08 917.5 -611.58C918 -610.58 919.1 -607.98 919.5 -605.58C919.9 -603.18 923 -596.58 924.5 -593.58C924.5 -593.58 924.5 -593.08 924.5 -591.08C924.5 -588.58 926 -580.58 924.5 -579.58C923.3 -578.78 914.333 -576.913 910 -576.08H904L906 -569.58C906.333 -567.58 907.6 -563.58 910 -563.58C912.4 -563.58 919.333 -561.58 922.5 -560.58L933.5 -554.08M960.5 -631.08L958 -638.58L956 -641.58H945H938.5L937 -645.08L931 -653.58L928.5 -658.58L922.5 -660.58L917.5 -651.08L904 -642.58C901.667 -640.58 896.6 -636.48 895 -636.08C893.4 -635.68 889.333 -633.913 887.5 -633.08L883.5 -636.08L879.5 -642.58L876 -651.08C875.667 -651.913 874.9 -654.08 874.5 -656.08C874.1 -658.08 872.667 -659.913 872 -660.58H863.5L855 -657.08L843 -653.58L837.5 -658.58L833 -666.58L830.5 -672.08C828.667 -673.58 824.7 -676.98 823.5 -678.58C822.3 -680.18 816.667 -683.913 814 -685.58H808C807.833 -683.913 807.1 -680.58 805.5 -680.58C803.9 -680.58 799.5 -682.58 797.5 -683.58H792L786 -685.58C786.167 -683.913 786.7 -679.88 787.5 -677.08C788.3 -674.28 789.167 -666.913 789.5 -663.58M789.5 -663.58C789.667 -660.247 790.4 -653.58 792 -653.58C793.6 -653.58 799.667 -639.913 802.5 -633.08C804.5 -630.08 808.4 -623.38 808 -620.58C807.6 -617.78 806.167 -611.747 805.5 -609.08L797.5 -605.58L789.5 -600.08L782 -595.58L778.5 -597.58V-591.08L782 -586.08V-579.58H778.5L772 -582.08H767.5L763 -579.58M789.5 -663.58L783.5 -675.58L782 -683.58L778.5 -690.08V-695.08H786C786.5 -694.08 787.9 -692.08 789.5 -692.08C791.1 -692.08 792.833 -690.747 793.5 -690.08L800 -688.08L802.5 -690.08H808L810.5 -693.58H815.5L818 -690.08L823.5 -688.08L830.5 -683.58L835.5 -677.08L843 -666.58L846 -665.08L849 -663.58L855 -665.08L863.5 -670.08H872H874.5L878.5 -665.08L879.5 -660.58L883.5 -653.58L887.5 -647.58L891.5 -643.58L900 -651.08L902 -656.08L910 -658.58L919.5 -663.58L922.5 -670.08L917.5 -673.58L913.5 -683.58L910 -688.08L902 -700.08L897 -717.08C895 -720.747 890.7 -728.68 889.5 -731.08C888.3 -733.48 885 -736.08 883.5 -737.08L872.446 -739.893M580.5 -411.58V-400.08L589 -398.08L591 -384.58L599.5 -376.08L593 -368.08H589L580.5 -362.58V-355.08H589H596H607.5H610.5L616.5 -344.08L618 -340.08H625L631 -344.08C631 -346.08 631 -350.58 631 -352.58C631 -354.58 631 -358.413 631 -360.08C630.333 -361.247 629.4 -363.88 631 -365.08C633 -366.58 637.5 -372.08 639.5 -372.08C641.5 -372.08 655 -379.58 655.5 -379.58C655.9 -379.58 660.333 -382.913 662.5 -384.58C664.167 -386.247 667.7 -388.58 668.5 -384.58C669.5 -379.58 670 -380.08 672.5 -376.08C675 -372.08 679 -371.08 680 -369.58C680.8 -368.38 683 -364.413 684 -362.58H687.5L695 -368.08L706 -372.08C705.5 -372.413 705.8 -373.38 711 -374.58C716.2 -375.78 721.833 -375.08 724 -374.58L731 -372.08L747 -369.58C748.5 -370.08 751.5 -370.48 751.5 -368.08C751.5 -365.08 755.5 -357.58 755.5 -355.08C755.5 -353.08 755.5 -350.913 755.5 -350.08L759.5 -342.08V-334.08C759.5 -333.413 759.5 -331.38 759.5 -328.58C759.5 -325.78 759.5 -319.413 759.5 -316.58L757 -311.58V-307.08H764.5L777 -309.58L782 -311.58L790 -313.58C790 -314.58 790 -317.08 790 -319.08C790 -321.58 789 -327.08 791.5 -323.08C794 -319.08 794.5 -313.58 797 -313.58C799 -313.58 806.5 -312.247 810 -311.58L816 -309.58L827.5 -304.08L835 -300.08V-295.58C835.167 -294.08 835.9 -291.08 837.5 -291.08C839.1 -291.08 844.833 -290.413 847.5 -290.08L853 -288.58L863 -286.58C862.667 -288.58 861.9 -292.88 861.5 -294.08C861 -295.58 861.5 -298.58 861.5 -300.08C861.5 -301.28 861.5 -306.913 861.5 -309.58V-313.58V-323.08L856.5 -327.08L849 -334.58V-338.58L854.5 -340.58H858H865.5V-332.58L869 -327.08C871.5 -327.58 876.8 -328.28 878 -327.08C879.2 -325.88 886.167 -323.913 889.5 -323.08C889.5 -324.747 889.5 -328.98 889.5 -332.58C889.5 -337.08 889.5 -335.08 889.5 -338.58C889.5 -341.38 890.167 -344.08 890.5 -345.08C890.167 -347.08 889.7 -351.38 890.5 -352.58C891.3 -353.78 892.833 -356.08 893.5 -357.08C894.5 -358.913 896.5 -362.88 896.5 -364.08C896.5 -365.58 896.5 -370.08 896.5 -372.08C896.5 -373.68 894.5 -376.747 893.5 -378.08L890.5 -381.58C890.667 -382.247 891.2 -383.78 892 -384.58C892.8 -385.38 897 -387.58 899 -388.58H908.5C910.167 -389.08 913.9 -390.08 915.5 -390.08C917.1 -390.08 920.167 -391.08 921.5 -391.58L924.5 -388.58C925.167 -384.913 926.7 -377.28 927.5 -376.08C928.3 -374.88 931.833 -371.247 933.5 -369.58L938.5 -368.08L952 -374.08C953.333 -373.58 956 -373.28 956 -376.08C956 -378.88 956 -382.913 956 -384.58L952 -390.08L945 -398.08L938.5 -406.58L935.5 -411.58L933.5 -415.08L929.5 -418.08C928.5 -418.413 926.4 -419.08 926 -419.08C925.5 -419.08 922.5 -418.08 921.5 -418.08C920.7 -418.08 918.5 -419.08 917.5 -419.58L915.5 -421.58V-426.08C917.167 -426.58 920.6 -427.58 921 -427.58C921.5 -427.58 925 -427.58 926 -427.08C927 -426.58 931.5 -424.58 932 -424.58C932.4 -424.58 934.5 -423.247 935.5 -422.58C935.833 -421.747 936.6 -419.98 937 -419.58C937.4 -419.18 939.167 -416.08 940 -414.58L942.5 -411.08C942.833 -410.247 943.8 -408.38 945 -407.58C946.5 -406.58 950.5 -403.08 951 -402.58C951.4 -402.18 953.833 -400.413 955 -399.58L958 -398.58C959.833 -398.747 963.5 -399.18 963.5 -399.58C963.5 -400.08 964 -402.58 964 -403.58C964 -404.38 966.333 -409.58 967.5 -412.08L970.5 -415.58L974.5 -427.58L978 -429.58L988.5 -434.08L993 -435.08L996.5 -439.08M580.5 -411.58C581.167 -413.913 582.1 -419.38 580.5 -422.58C578.5 -426.58 576 -432.08 575.5 -432.08C575.1 -432.08 571.667 -436.413 570 -438.58C573.5 -441.913 580.5 -448.98 580.5 -450.58C580.5 -452.58 583 -458.58 583 -461.58C583 -463.98 583 -469.247 583 -471.58L589 -474.58C590.333 -476.913 592.6 -481.78 591 -482.58C589 -483.58 583 -484.08 583 -485.58C583 -487.08 579.5 -493.08 577.5 -496.08C575.5 -499.08 571.5 -502.08 568 -507.58C564.5 -513.08 564 -517.58 560.5 -524.08C557 -530.58 557.5 -532.08 555.5 -535.08C553.9 -537.48 551.5 -541.747 550.5 -543.58V-559.08V-568.08L544.5 -579.58C541 -582.08 534.5 -583.58 533 -585.58C531.8 -587.18 529.167 -589.247 528 -590.08C527 -591.747 525 -595.48 525 -597.08C525 -598.68 525 -601.413 525 -602.58L516.5 -604.58L511.5 -608.58C509.5 -611.58 505.6 -618.08 506 -620.08C506.5 -622.58 506 -626.08 506 -628.08C506 -629.68 506 -634.08 506 -636.08V-638.58L493 -641.08C492.833 -642.747 491.3 -646.88 486.5 -650.08C481.7 -653.28 471.167 -654.747 466.5 -655.08C464 -651.747 459 -646.08 459 -650.08C459 -655.08 458 -659.08 456.5 -660.58C451 -671.08 448 -673.08 443 -672.08C438 -671.08 429 -667.08 429 -669.58C429 -672.08 429 -675.58 429 -679.58C429 -683.58 429 -687.58 429 -691.08C429 -693.88 432.333 -696.913 434 -698.08C435.333 -697.913 438.2 -698.68 439 -703.08C440 -708.58 443 -710.08 443 -714.08C443 -717.28 440.333 -721.413 439 -723.08H421.5L408.5 -716.58H391C392.833 -714.747 395 -713.48 389 -723.08C381.5 -735.08 380.5 -738.08 380 -740.08C379.6 -741.68 365.833 -744.413 359 -745.58H350C347.5 -745.913 342.1 -746.98 340.5 -748.58C338.5 -750.58 337.5 -752.08 337.5 -754.58C337.5 -757.08 337.5 -759.58 337.5 -761.08C337.5 -762.28 331.167 -765.913 328 -767.58C326 -768.413 322 -770.78 322 -773.58C322 -777.08 322 -789.08 322 -792.08C322 -794.48 319.333 -798.413 318 -800.08L308.5 -804.58C310.333 -807.58 312.9 -814.08 308.5 -816.08C304.1 -818.08 300.333 -820.913 299 -822.08L294 -826.08L301 -829.08C303.333 -830.747 307.3 -833.98 304.5 -833.58C301.7 -833.18 297 -834.08 295 -834.58L294 -840.08L296.5 -842.08L301 -844.08C302 -844.413 303.7 -845.38 302.5 -846.58C301.3 -847.78 298 -850.08 296.5 -851.08L301 -855.08L305 -856.08C305.167 -856.413 305.4 -857.28 305 -858.08C308.5 -861.08 311.5 -863.58 313 -862.08C314.5 -860.58 311 -856.58 313 -858.08C314.6 -859.28 317 -862.247 318 -863.58C317.833 -864.08 317.8 -864.78 319 -863.58C320.2 -862.38 322.5 -859.413 323.5 -858.08L335.5 -852.58C336.5 -853.413 338.7 -855.38 339.5 -856.58C340.5 -858.08 340.5 -858.08 342.5 -860.08C344.1 -861.68 346.5 -863.747 347.5 -864.58C349.167 -866.08 351.5 -869.08 347.5 -869.08C343.5 -869.08 340.5 -872.747 339.5 -874.58L326.5 -883.58V-890.08C326.5 -896.08 326.5 -908.38 326.5 -909.58C326.5 -911.08 320 -917.58 316.5 -918.58C313 -919.58 309 -922.58 306 -924.58C303.6 -926.18 300 -932.913 298.5 -936.08C297 -937.08 293.2 -939.48 290 -941.08C286 -943.08 278 -950.58 276.5 -950.58C275 -950.58 274.5 -955.08 276.5 -960.58C278.1 -964.98 282.167 -974.747 284 -979.08C281.667 -978.913 276.5 -979.28 274.5 -982.08C272 -985.58 269.5 -987.08 269.5 -990.08C269.5 -993.08 268 -1003.08 268 -1005.08C268 -1006.68 272.333 -1015.75 274.5 -1020.08L282 -1023.08L274.5 -1033.08H266C266.5 -1037.58 267.2 -1046.68 266 -1047.08C264.5 -1047.58 263.5 -1048.08 257 -1056.08C251.8 -1062.48 249.167 -1066.41 248.5 -1067.58M996.5 -439.08L999.5 -443.58C1000.33 -444.58 1002 -446.68 1002 -447.08C1002 -447.48 1003 -450.247 1003.5 -451.58L1005 -454.58M996.5 -439.08L994.5 -432.08L990 -425.08C989.333 -422.913 987.8 -418.38 987 -417.58C986 -416.58 983 -411.08 983 -410.58C983 -410.18 981.667 -406.747 981 -405.08C980.333 -403.413 978.9 -399.68 978.5 -398.08C978.1 -396.48 975.667 -381.413 974.5 -374.08L963.5 -352.58C960.667 -347.247 955 -336.18 955 -334.58C955 -332.98 955 -326.247 955 -323.08C953.833 -318.08 951.2 -307.28 950 -304.08C948.8 -300.88 942.833 -290.08 940 -285.08L930.5 -266.58C929 -262.747 925.3 -254.58 922.5 -252.58C919.7 -250.58 913 -239.413 910 -234.08L899 -227.08V-207.08C892.833 -202.58 880 -192.88 878 -190.08C876 -187.28 868.833 -176.247 865.5 -171.08L847.5 -154.08C841.833 -149.747 829.9 -140.78 827.5 -139.58C825.1 -138.38 807.833 -127.08 799.5 -121.58C799 -117.913 796.4 -109.68 790 -106.08C782 -101.58 770.5 -93.5801 767.5 -89.0801C765.1 -85.4801 749.833 -71.9134 742.5 -65.5801L738 -55.5801L729.5 -43.0801L722 -26.5801L698 -14.5801L690.5 -6.08008L502.5 139.42L486 224.92M1225.5 -634.58V-622.58M1225.5 -622.58H1218C1215 -617.413 1208.2 -606.18 1205 -602.58C1201 -598.08 1205 -593.58 1201 -590.08C1197 -586.58 1202 -574.58 1201 -569.58C1200 -564.58 1197 -558.58 1193.5 -554.08C1190 -549.58 1190.5 -540.58 1185.5 -533.08C1180.5 -525.58 1183 -525.08 1179.5 -518.08C1176 -511.08 1178.5 -513.08 1176.5 -503.58C1174.5 -494.08 1173.5 -492.08 1173.5 -487.08C1173.5 -482.08 1170.5 -471.58 1170.5 -461.58C1170.5 -453.58 1172.5 -453.58 1173.5 -454.58L1170.5 -429.58L1176.5 -442.08L1190.5 -454.58L1193.5 -461.58L1195 -484.08V-492.08C1194.5 -500.747 1193.8 -518.58 1195 -520.58C1196.2 -522.58 1196.83 -524.413 1197 -525.08C1200 -533.913 1206.6 -552.38 1209 -555.58C1211.4 -558.78 1210 -568.913 1209 -573.58C1209 -576.747 1209 -584.48 1209 -590.08C1209 -595.68 1209 -594.747 1209 -593.58C1212 -599.58 1218.9 -612.28 1222.5 -615.08C1226.1 -617.88 1226 -621.247 1225.5 -622.58ZM1482 -918.5L1466.5 -900.5L1461.5 -886C1460.3 -883.6 1445.33 -874.333 1438 -870L1426.5 -839.5L1406.5 -824.5L1394 -800.5C1393.5 -798.86 1392.1 -794.064 1390.5 -788C1388.5 -780.42 1372.5 -779 1363.5 -774.5C1354.5 -770 1360.5 -768 1349.5 -750C1338.5 -732 1344.5 -735.08 1335 -719.58C1325.5 -704.08 1325.5 -704 1319 -692.08C1312.5 -680.16 1315.5 -683.58 1307 -661C1298.5 -638.42 1295.5 -642.58 1292 -642.58C1288.5 -642.58 1281 -602.58 1269.5 -590.08C1258 -577.58 1264 -569.58 1263 -569.58C1262 -569.58 1245 -533.08 1240.5 -525.08C1236 -517.08 1234.5 -492.08 1233.5 -487.08C1232.7 -483.08 1230.5 -472.693 1229.5 -468V-443.58V-434L1243 -436.5L1256.5 -447L1265 -453L1276.5 -461C1282.33 -462.333 1294.5 -465.3 1296.5 -466.5C1299 -468 1306.5 -473 1307 -474C1307.5 -475 1320.5 -482 1324 -484.5C1327.5 -487 1326 -487.08 1327.5 -490.5C1329 -493.92 1335 -495 1340 -497C1345 -499 1347 -502.5 1349.5 -504.5C1352 -506.5 1364 -504.5 1367 -504.5C1369.4 -504.5 1375.33 -504.5 1378 -504.5M1482 -918.5L1492 -930L1500 -942.5C1503.17 -945.167 1510.1 -950.9 1512.5 -952.5C1515.5 -954.5 1527 -962.5 1527.5 -966C1528 -969.5 1538 -984.5 1543 -988.5C1548 -992.5 1556.5 -1001.08 1559 -1001.08C1561.5 -1001.08 1570.5 -1016 1576 -1015.5C1580.4 -1015.1 1591.17 -1015.33 1596 -1015.5C1602.5 -1014.5 1616.5 -1012.5 1620.5 -1012.5C1624.5 -1012.5 1632.17 -1012.5 1635.5 -1012.5L1649.5 -1015.5L1666.5 -1009V-1001.08C1666.5 -998.053 1666.5 -991.3 1666.5 -988.5C1666.5 -985.7 1663.17 -977 1661.5 -973L1649.5 -962H1631.5L1609 -955.5M1482 -918.5L1500 -926L1512.5 -937.58H1524C1525.17 -939.22 1528.6 -943.7 1533 -948.5C1538.5 -954.5 1543 -958.5 1543 -962C1543 -964.8 1553.67 -963.167 1559 -962L1579 -958.5C1583.5 -957.5 1593.2 -955.5 1596 -955.5C1598.8 -955.5 1605.83 -955.5 1609 -955.5M1609 -955.5H1635.5C1639.5 -956 1647.9 -957 1649.5 -957C1651.1 -957 1653.17 -958 1654 -958.5L1664.5 -966M1664.5 -966L1666.5 -973L1671 -978L1676 -984C1676 -985 1675.6 -987.3 1674 -988.5C1672.4 -989.7 1673.33 -990 1674 -990L1676 -1001.08V-1009C1678.17 -1010.17 1683.3 -1012.5 1686.5 -1012.5C1689.7 -1012.5 1707.17 -1012.5 1715.5 -1012.5C1718.67 -1011.33 1729.6 -1009 1748 -1009C1771 -1009 1779.5 -1009 1785.5 -1009C1790.3 -1009 1811.17 -1009 1821 -1009C1825.5 -1010.17 1835.2 -1012.5 1838 -1012.5C1841.5 -1012.5 1861 -1009 1867 -1009C1871.8 -1009 1881.33 -1011.33 1885.5 -1012.5L1872.5 -1001.08L1858.5 -988.5L1856 -978.5C1854.5 -974.833 1851.3 -967 1850.5 -965C1849.5 -962.5 1845.5 -956 1844 -955C1842.8 -954.2 1836.83 -951 1834 -949.5C1833.5 -948.5 1832.3 -946.1 1831.5 -944.5C1830.5 -942.5 1828.5 -940 1826.5 -939C1824.5 -938 1825.5 -936 1822.5 -934C1819.5 -932 1819 -932 1818 -931C1817 -930 1816 -930 1813.5 -928.5C1811.23 -925.8 1809.42 -923.476 1807.99 -921.5M1664.5 -966C1665.17 -965 1666.5 -962.1 1666.5 -958.5C1666.5 -954 1666 -952.5 1668.5 -952.5C1670.5 -952.5 1669.33 -949.833 1668.5 -948.5L1664.5 -944M1861.5 -835.5C1862 -836 1859.5 -846.5 1858.5 -847.5C1857.5 -848.5 1856 -855 1854 -857.5C1852.4 -859.5 1846.67 -872.333 1844 -878.5C1842.5 -879.5 1839.2 -881.7 1838 -882.5C1836.5 -883.5 1833 -888.5 1831.5 -891C1830 -893.5 1828 -894.5 1826.5 -896C1825 -897.5 1818 -901 1817 -901.5C1816.2 -901.9 1808.67 -905.667 1805 -907.5L1803 -912.5C1803 -913.352 1804.12 -916.157 1807.99 -921.5M1861.5 -835.5C1861.1 -835.1 1859.33 -833.333 1858.5 -832.5L1854 -830.5L1847 -828.5L1844 -823L1836.5 -814L1831.5 -808C1831.33 -807.5 1830.4 -806 1828 -804C1825.6 -802 1823 -799.5 1822 -798.5C1821.33 -796.833 1819.9 -793.2 1819.5 -792C1819.1 -790.8 1817.67 -787.5 1817 -786C1816.17 -786 1814.3 -785.4 1813.5 -783C1812.7 -780.6 1809.17 -775.333 1807.5 -773L1805 -768C1805 -764.5 1804.6 -757.2 1803 -756C1801.4 -754.8 1798.67 -749.5 1797.5 -747C1797.5 -745.167 1796.8 -740.9 1794 -738.5C1790.5 -735.5 1791 -732 1791 -730.5C1791 -729 1789 -721 1788.5 -719.5C1788.1 -718.3 1785 -711.667 1783.5 -708.5C1784 -708.167 1784.7 -707 1783.5 -705C1782.3 -703 1779 -694.167 1777.5 -690C1777.5 -689.167 1777.5 -687.1 1777.5 -685.5C1777.5 -683.5 1775 -673.5 1774 -672C1773 -670.5 1771.5 -671.5 1771 -669.5C1770.5 -667.5 1768.5 -656 1768.5 -654C1768.5 -652 1766.5 -646.5 1766.5 -645.5C1766.5 -644.5 1766.5 -640.5 1766.5 -639C1766.5 -637.8 1764.5 -629.833 1763.5 -626L1762.5 -622.5H1758.5C1758.33 -623.167 1758.1 -624.9 1758.5 -626.5C1759 -628.5 1759 -628.5 1760 -630.5C1760.8 -632.1 1761 -634.167 1761 -635C1761.33 -635.5 1761.9 -636.7 1761.5 -637.5C1761 -638.5 1760 -639.5 1760 -640C1760 -640.5 1757.5 -640.5 1757 -640.5C1756.6 -640.5 1751.83 -638.5 1749.5 -637.5M1861.5 -835.5C1863 -837.333 1866.2 -841.2 1867 -842C1868 -843 1873 -844 1874.5 -844.5C1875.7 -844.9 1876.67 -846.667 1877 -847.5V-853.5V-859.5V-867.5C1877 -870 1877 -875.7 1877 -878.5C1877 -881.3 1877 -887 1877 -889.5L1878 -901.5L1880 -907.5L1883.5 -918.5L1885.5 -927L1890.5 -936.5C1891.17 -938.667 1892.5 -943.3 1892.5 -944.5C1892.5 -946 1899.5 -958.5 1900 -958.5C1900.5 -958.5 1905 -963 1906 -965C1906.8 -966.6 1910 -969.333 1911.5 -970.5C1912.17 -972.167 1913.9 -975.8 1915.5 -977C1917.5 -978.5 1921 -984.5 1921 -986.5C1921 -988.1 1923.33 -992.833 1924.5 -995C1924.5 -996.333 1924.5 -999.416 1924.5 -1001.08C1924.5 -1002.74 1924.5 -1009.39 1924.5 -1012.5H1921H1913.5L1903.5 -1009C1900.33 -1008 1893.7 -1005.7 1892.5 -1004.5C1891.3 -1003.3 1890.67 -1003.33 1890.5 -1003.5L1880 -995C1878.83 -994 1876.3 -991.7 1875.5 -990.5C1874.5 -989 1872.5 -987 1869 -984.5C1865.5 -982 1867 -981 1866 -979.5C1865.2 -978.3 1862 -974.333 1860.5 -972.5C1859.83 -971.833 1858.5 -969.8 1858.5 -967C1858.5 -963.5 1858.5 -962.5 1856 -958.5C1853.5 -954.5 1854 -955 1850.5 -949.5C1847.7 -945.1 1849.33 -945.667 1850.5 -946.5L1834 -936.5C1833.17 -935.667 1830.5 -932.6 1826.5 -927C1822.5 -921.4 1819.17 -923.667 1818 -925.5L1807.99 -921.5M1749.5 -637.5C1748.83 -637.5 1747.5 -638 1747.5 -640C1747.5 -642.5 1748 -642.5 1747.5 -646C1747 -649.5 1749 -648 1746.5 -653.5C1744 -659 1743.5 -660 1743 -662.5C1742.5 -665 1742 -670 1741.5 -671C1741.1 -671.8 1739.67 -672 1739 -672H1734L1726.5 -669.5H1717.5M1749.5 -637.5L1754.5 -636H1756V-630.5C1755.17 -629.833 1753.5 -628.3 1753.5 -627.5C1753.5 -626.5 1754 -626 1753.5 -624.5C1753 -623 1751.5 -620.5 1752.5 -620.5C1753.3 -620.5 1755.83 -615.833 1757 -613.5L1758.5 -613C1758.33 -612 1758.1 -609.8 1758.5 -609C1759 -608 1759 -606.5 1759.5 -604.5C1760 -602.5 1761 -602 1761 -601C1761 -600 1765.5 -583 1765.5 -582C1765.5 -581 1766.5 -577 1766.5 -575C1766.5 -573 1768.5 -570.5 1768.5 -569C1768.5 -567.8 1772.17 -559.167 1774 -555C1774 -556.5 1774 -558.2 1774 -553C1774 -546.5 1774 -543.5 1774 -542.5C1774 -541.7 1773.33 -540.5 1773 -540L1764 -517C1762.33 -516.333 1758.5 -514.5 1756.5 -512.5C1754 -510 1747.5 -505.5 1746.5 -504.5C1745.5 -503.5 1745 -505 1741.5 -498.5C1738 -492 1736 -489.5 1735.5 -487.5C1735 -485.5 1736 -486 1733 -481.5C1730 -477 1731 -478 1726.5 -472.5C1722 -467 1721 -465 1718.5 -461C1716 -457 1711.5 -452 1710 -450.5C1708.5 -449 1710 -450 1702.5 -444.5C1695 -439 1692 -435.5 1691 -434C1690.2 -432.8 1682 -422.833 1678 -418L1667 -404L1650 -386C1651.83 -385.833 1653.1 -384.3 1643.5 -379.5C1631.5 -373.5 1612 -366.5 1612 -363C1612 -359.5 1615 -357 1612 -355.5C1609 -354 1593 -348 1587.5 -340.5C1582 -333 1578 -328 1577 -327C1576 -326 1561.5 -320 1558 -315C1554.5 -310 1551 -302 1548.5 -299C1546 -296 1545.5 -298 1540 -289.5C1534.5 -281 1539.5 -284 1532.5 -279C1525.5 -274 1528.5 -277 1518 -268C1507.5 -259 1504.5 -259 1500.5 -253.5C1497.3 -249.1 1493.17 -244 1491.5 -242L1485 -244.5L1482 -247.5C1481.67 -249.333 1481.4 -253.3 1483 -254.5C1485 -256 1485 -258.5 1485 -260C1485 -261.5 1485 -263 1485 -264C1485 -264.8 1486 -267 1486.5 -268L1483 -273.5L1475 -279L1460.5 -276L1449 -270H1442L1433.5 -272V-279V-288L1428 -295H1418.5L1410 -299L1405 -302.5C1406.5 -303.833 1410 -306.4 1412 -306C1414 -305.6 1421.17 -305.833 1424.5 -306C1427.17 -305.833 1433.6 -306.2 1438 -309C1443.5 -312.5 1450 -315 1451 -317C1452 -319 1453 -321 1453 -324C1453 -327 1453 -331.5 1453 -333.5C1453 -335.1 1453 -338.833 1453 -340.5L1449 -344V-347.5L1451 -352C1453.17 -352 1457.8 -352 1459 -352C1460.5 -352 1467.5 -350 1470 -352C1472.5 -354 1476 -354 1477.5 -355.5C1478.7 -356.7 1481 -357 1482 -357H1489.5V-360.5L1479.5 -363H1472L1469 -362L1463 -359L1457.5 -357H1449H1440.5L1438 -355.5M1717.5 -669.5C1719 -671.167 1722 -674.7 1722 -675.5C1722 -676.5 1723 -677.5 1724 -679.5C1724.8 -681.1 1726 -682.5 1726.5 -683M1717.5 -669.5L1713 -662.5C1712.67 -662.333 1711.6 -661.8 1710 -661C1708.4 -660.2 1705 -658.333 1703.5 -657.5C1703.83 -657.5 1703.8 -657.1 1701 -655.5C1697.5 -653.5 1695 -653.5 1694 -653.5M1694 -653.5C1693 -653.5 1692.5 -653 1691 -653.5C1689.5 -654 1688 -653.5 1685.5 -655.5C1683.5 -657.1 1681.33 -659.833 1680.5 -661C1680.83 -660.167 1681.3 -659.6 1680.5 -664C1679.5 -669.5 1679 -670 1678 -671C1677.2 -671.8 1673 -675 1671 -676.5C1669.83 -677 1667.4 -678.3 1667 -679.5C1666.6 -680.7 1665.5 -682.333 1665 -683M1694 -653.5C1694 -652.833 1694 -651.1 1694 -649.5C1694 -647.9 1694 -644.833 1694 -643.5C1693.33 -643.5 1692.6 -643.2 1695 -642C1698 -640.5 1698.5 -641 1701 -640C1703 -639.2 1704.83 -639 1705.5 -639V-635C1705.83 -635 1705.6 -635 1702 -635C1698.4 -635 1695.83 -635 1695 -635C1692.67 -635.167 1688.6 -635 1691 -633C1694 -630.5 1696 -626.5 1694 -626.5C1692.4 -626.5 1687.67 -623.833 1685.5 -622.5M1438 -355.5V-347.5C1439.33 -345.333 1442 -340.6 1442 -339C1442 -337 1444.5 -336.5 1444.5 -333.5C1444.5 -330.5 1444.5 -330 1444.5 -327C1444.5 -324 1444.5 -323 1440.5 -320C1436.5 -317 1433 -315 1430.5 -315C1428 -315 1423.5 -313.5 1421 -313C1419 -312.6 1414.17 -312.833 1412 -313L1402 -309C1400.83 -309.167 1398.2 -308.8 1397 -306C1395.5 -302.5 1392 -303 1394.5 -299C1396.5 -295.8 1400.33 -291.333 1402 -289.5H1412L1424.5 -288C1425.67 -287.333 1428 -285.5 1428 -283.5C1428 -281 1428 -275 1428 -273.5C1428 -272.3 1428 -267.667 1428 -265.5L1433.5 -260L1443 -259L1463 -265.5L1477.5 -268L1476.5 -264C1475.83 -262.833 1474.5 -260.3 1474.5 -259.5C1474.5 -258.5 1475.5 -255.5 1476 -255C1476.5 -254.5 1475.5 -252 1476 -251C1476.5 -250 1476.5 -245.5 1477 -245C1477.5 -244.5 1478.5 -242.5 1478.5 -241.5C1478.5 -240.5 1480 -237.5 1478.5 -236C1477 -234.5 1475.5 -230 1475 -229.5C1474.6 -229.1 1471.83 -227.333 1470.5 -226.5L1450.5 -214L1438 -207.08C1431.5 -200.553 1417.6 -187 1414 -185C1410.4 -183 1390.5 -167.833 1381 -160.5L1349.5 -130C1343.83 -124.973 1330.6 -114.036 1323 -110.5C1313.5 -106.08 1313.5 -100.5 1308.5 -96.0001C1304.5 -92.4001 1288.83 -85.5001 1281.5 -82.5001L1235.5 -61.0001L1201 -43.0801L1168.5 -31.5001C1152 -26.7201 1115 -14.944 1099 -6.08008C1083 2.78389 1054.67 10.3332 1042.5 12.9999C1023 17.8332 981.6 27.7999 972 28.9999C962.4 30.1999 917 32.8332 895.5 33.9999C884 34.8332 858.6 34.9999 849 28.9999C839.4 22.9999 812 15.8332 799.5 12.9999C802.167 3.80656 809.2 -14.5801 816 -14.5801C822.8 -14.5801 845.833 -41.9134 856.5 -55.5801L929.5 -106.08C937 -114.053 952.6 -130 955 -130C958 -130 969 -154.08 976 -154.08C981.6 -154.08 994.333 -165.413 1000 -171.08L1007.5 -177C1009.83 -178 1014.6 -180.3 1015 -181.5C1015.4 -182.7 1018.5 -186 1020 -187.5C1023.5 -188.36 1030.9 -190.08 1032.5 -190.08C1034.1 -190.08 1039.17 -192.693 1041.5 -194L1049.5 -205C1050.17 -206.167 1051.5 -207.8 1051.5 -205C1051.5 -202.2 1046.17 -193.887 1043.5 -190.08L1022 -169C1023.17 -169.333 1023.9 -168.7 1017.5 -163.5C1009.5 -157 1005 -155 1002.5 -152C1000 -149 996 -145 994.5 -139.5C993 -134 991.5 -128.5 987.5 -125.5C983.5 -122.5 978.5 -118.5 971 -113.5C963.5 -108.5 959 -109.16 957 -106.08C955.4 -103.616 951.667 -95.6668 950 -92.0001M1438 -355.5V-372L1439.5 -377.5L1449 -375L1451 -383L1453 -396V-404V-413L1444.5 -409L1433.5 -413L1428 -418L1424.5 -426V-434C1425.67 -436.667 1428 -442.5 1428 -444.5C1428 -446.5 1428 -453.667 1428 -457C1429.83 -457.5 1433.5 -459 1433.5 -461C1433.5 -463 1433.5 -472.833 1433.5 -477.5C1431.67 -480.693 1427.3 -487.08 1424.5 -487.08C1421.7 -487.08 1412.33 -486.36 1408 -486L1391 -493L1378 -504.5M1378 -504.5L1373 -500L1365 -497H1353.5C1352 -495.5 1348.1 -492.1 1344.5 -490.5C1340 -488.5 1339 -487.5 1337.5 -486C1336 -484.5 1333.5 -483 1332.5 -481.5C1331.5 -480 1328 -477 1326 -475.5C1324 -474 1324.5 -473 1321.5 -470.5C1318.5 -468 1315.5 -471.42 1313.5 -466.5C1311.5 -461.58 1311.5 -461 1308.5 -459C1305.5 -457 1305 -454.5 1299.5 -453C1294 -451.5 1292.5 -451.5 1289 -450.5C1286.2 -449.7 1281.17 -450.167 1279 -450.5C1276.83 -448.5 1272.3 -444.5 1271.5 -444.5C1270.5 -444.5 1267 -443 1265 -441C1263.4 -439.4 1257.67 -435.667 1255 -434C1254 -433.5 1251.1 -432.1 1247.5 -430.5C1243.9 -428.9 1241.33 -426.833 1240.5 -426H1233.5H1224.5L1223 -413L1218.5 -404L1214 -392L1209 -381.5L1195 -362C1192.83 -355.86 1188.5 -342.98 1188.5 -340.58C1188.5 -337.58 1186 -332.58 1181.5 -327.08C1177 -321.58 1179.5 -316.5 1176.5 -313.58C1174.1 -311.244 1171.5 -303.607 1170.5 -300.08C1169.5 -296.747 1167.5 -289.08 1167.5 -285.08C1167.5 -280.08 1165 -277.5 1163 -273.08C1161 -268.66 1153.5 -265.08 1148.5 -262.5C1143.5 -259.92 1141 -257 1138.5 -255C1136.5 -253.4 1129.67 -248.667 1126.5 -246.5L1115.5 -239C1113 -237.36 1107.5 -234.08 1105.5 -234.08C1103 -234.08 1092 -227.08 1084 -224C1076 -220.92 1075 -217.5 1074 -216C1073 -214.5 1067.5 -208.5 1064.5 -205C1061.5 -201.5 1060 -194 1058.5 -191.5C1057 -189 1051.5 -184 1048 -181.5C1044.5 -179 1040.5 -174 1037.5 -171.08C1035.1 -168.744 1033.5 -161.053 1033 -157.5C1031.33 -156.36 1026.5 -153.164 1020.5 -149.5C1013 -144.92 1013 -144.5 1009.5 -141.5C1006 -138.5 1004 -134.5 1000.5 -130C997 -125.5 999.5 -125.5 998 -121.58C996.5 -117.66 994.5 -119.5 989.5 -117C984.5 -114.5 976 -109.5 972 -106.08C968.8 -103.344 964 -102.553 962 -102.5L957 -96.0001L950 -92.0001M950 -92.0001C943.833 -88.8335 931.3 -82.5001 930.5 -82.5001C929.7 -82.5001 924.833 -81.1668 922.5 -80.5001L915.5 -77.5001C912.5 -75.6668 906.3 -71.8001 905.5 -71.0001C904.5 -70.0001 898.5 -59.4202 897 -57.5001C895.8 -55.9641 887.833 -48.5268 884 -45.0001M1020 -281.58L1037 -289.08L1058.5 -298.58L1077.5 -312.58C1083 -318.747 1095 -331.78 1099 -334.58C1104 -338.08 1116.5 -345.58 1118.5 -352.58C1120.5 -359.58 1127 -378.58 1129.5 -381.58C1132 -384.58 1134.5 -398.58 1141 -405.08C1147.5 -411.58 1162 -422.58 1163 -425.08C1164 -427.58 1163 -439.58 1163 -443.58C1163 -447.58 1163 -467.58 1163 -471.58C1163 -475.58 1163 -474.08 1163 -492.08C1163 -510.08 1161.5 -510.58 1168 -525.08C1174.5 -539.58 1180.5 -543.58 1183 -554.08C1185.5 -564.58 1187.5 -572.58 1190.5 -583.08C1193.5 -593.58 1194 -602.58 1197 -607.08C1200 -611.58 1204.5 -619.08 1205 -622.58C1205.4 -625.38 1205.17 -631.747 1205 -634.58C1201.17 -632.913 1192.9 -628.88 1190.5 -626.08C1187.5 -622.58 1187.5 -625.58 1183 -622.58C1178.5 -619.58 1183 -624.58 1170.5 -610.08C1158 -595.58 1154 -597.58 1147.5 -588.58C1141 -579.58 1122.5 -557.08 1118.5 -555.58C1114.5 -554.08 1111 -556.58 1107.5 -546.58C1104 -536.58 1094 -529.08 1092.5 -525.08C1091 -521.08 1086 -517.08 1086 -513.08C1086 -509.08 1077 -493.08 1072 -484.08C1067 -475.08 1063 -467.58 1063 -464.58C1063 -462.18 1063 -438.247 1063 -426.58C1061.67 -424.08 1058.3 -417.68 1055.5 -412.08C1052 -405.08 1045.5 -398.58 1045.5 -390.08C1045.5 -381.58 1043 -378.58 1040 -374.08C1037 -369.58 1027 -341.08 1027 -337.08C1027 -333.88 1025.33 -319.413 1024.5 -312.58L1020 -281.58ZM1167.5 -384.08L1156 -378.08C1155.83 -375.913 1155.1 -371.18 1153.5 -369.58C1151.5 -367.58 1139.5 -361.08 1138.5 -358.58C1137.5 -356.08 1137.5 -346.08 1134.5 -343.58C1131.5 -341.08 1118.5 -332.08 1118.5 -330.58C1118.5 -329.08 1121 -325.58 1118.5 -320.58C1116 -315.58 1113 -305.08 1109 -300.58C1105 -296.08 1093 -281.58 1092 -279.58C1091 -277.58 1087.5 -273.58 1089 -273.08C1090.5 -272.58 1089 -264.08 1092 -265.08C1095 -266.08 1092.5 -267.58 1099 -267.58C1105.5 -267.58 1104.5 -260.08 1113.5 -265.08C1122.5 -270.08 1144 -288.58 1146 -293.58C1148 -298.58 1147 -298.08 1148.5 -300.58C1150 -303.08 1156 -310.08 1156 -312.58C1156 -315.08 1163 -319.58 1163 -323.08C1163 -326.58 1162.5 -328.08 1165 -332.58C1167.5 -337.08 1168.5 -345.08 1170.5 -347.08C1172.5 -349.08 1174.5 -353.08 1176.5 -358.58C1178.5 -364.08 1181 -372.58 1181.5 -374.08C1181.9 -375.28 1183 -381.247 1183.5 -384.08V-390.08L1179.5 -384.08L1170.5 -374.08V-365.58L1165 -355.08L1160.5 -347.08L1153.5 -339.08L1158 -355.08L1160.5 -361.58L1163 -369.58L1167.5 -384.08ZM1779 -553V-556L1775.5 -562.5L1773 -569L1771 -576L1773 -579.5C1773.17 -579.5 1773.9 -579.3 1775.5 -578.5C1777.5 -577.5 1777 -575.5 1779 -574C1780.6 -572.8 1783 -570.833 1784 -570C1784 -569.333 1784 -567.7 1784 -566.5C1784 -565.3 1784.67 -560.333 1785 -558L1779 -553ZM1786 -575C1786.5 -575 1787.7 -575.9 1788.5 -579.5C1789.5 -584 1790.5 -588 1791 -589.5C1791.5 -591 1795.5 -597 1795.5 -599C1795.5 -601 1794 -609 1793.5 -609C1793 -609 1790.5 -615.5 1790 -618C1789.5 -620.5 1788.5 -629 1788.5 -630.5C1788.5 -632 1786 -637.5 1786 -639C1786 -640.2 1783.67 -653.167 1782.5 -659.5C1782 -661 1780.9 -663.7 1780.5 -662.5C1780.1 -661.3 1778 -656.333 1777 -654C1777 -651.833 1777 -647.1 1777 -645.5C1777 -643.5 1775.5 -636 1775.5 -635C1775.5 -634 1774 -627.5 1774 -626C1774 -624.5 1773 -618 1773 -617C1773 -616.2 1770 -610.333 1768.5 -607.5L1766.5 -598C1767.33 -595.167 1769.2 -589.3 1770 -588.5C1770.8 -587.7 1775 -583.833 1777 -582L1786 -575ZM1793.5 -620.5V-627.5C1793 -629.667 1791.8 -634.2 1791 -635C1790 -636 1788.5 -643 1788.5 -644.5C1788.5 -645.7 1786.83 -649.667 1786 -651.5V-659.5C1787.33 -659.5 1790 -659.1 1790 -657.5C1790 -655.5 1790.5 -652.5 1792 -650.5C1793.2 -648.9 1794.83 -644.167 1795.5 -642L1799 -628.5V-623.5L1793.5 -620.5Z" stroke="#42413E" stroke-width="3"/>
</g>
<defs>
<clipPath id="clip0_820_8">
<rect width="2615.11" height="1502.42" fill="white" transform="translate(0 0.840088)"/>
</clipPath>
</defs>
</svg>
