<svg width="2616" height="1503" viewBox="0 0 2616 1503" fill="none" xmlns="http://www.w3.org/2000/svg">
<g clip-path="url(#clip0_820_8)">
<path d="M2349.34 1389.71V1025.55V690.551V389.501V13.8973V-80.0036V-126.954V-314.756V-361.707" stroke="#42413E" stroke-width="3"/>
<path d="M3250.5 1386.01V1381.34L-3749.5 1380.44V1386.01H3250.5Z" fill="#42413E"/>
<path d="M3250.5 1406.98V1401.67H-249.5H-3749.5V1406.83L-271.537 1406.91L-227.463 1406.91L2327.54 1406.96L2349.57 1399.19L2376.8 1406.96L3250.5 1406.98Z" fill="#42413E"/>
<path d="M-3749.5 1490.58H3250.5V1485.5L3248.09 1485.58H-3742.89H-3749.5V1490.58Z" fill="#42413E"/>
<path d="M3250.5 1401.67V1406.98M3250.5 1401.67V1386.01M3250.5 1401.67H-249.5H-3749.5M3250.5 1406.98L2376.8 1406.96L2349.57 1399.19L2327.54 1406.96L-227.463 1406.91L-271.537 1406.91L-3749.5 1406.83M3250.5 1406.98V1485.5M3250.5 1386.01V1381.34L-3749.5 1380.44V1386.01M3250.5 1386.01H-3749.5M-3749.5 1386.01V1401.67M-3749.5 1401.67V1406.83M-3749.5 1406.83V1485.58M3250.5 1485.5V1490.58H-3749.5V1485.58M3250.5 1485.5L3248.09 1485.58H-3742.89H-3749.5" stroke="#42413E"/>
<path d="M2393.26 1451.59L2391.84 1452.66L2388.29 1492.79H2420.41L2413.5 1452.66L2411.02 1451.59H2410.31H2394.32H2393.26Z" fill="#42413E"/>
<path d="M2384.38 1451.59C2382.81 1452.69 2382 1453.4 2381.18 1455.5C2381.19 1456.73 2381.19 1457.91 2381.19 1459.05C2381.17 1474.88 2380.61 1482.84 2378.7 1492.79H2388.29L2391.84 1452.66L2386.87 1451.95L2384.38 1451.59Z" fill="#42413E"/>
<path d="M2422.03 1454.43C2421.16 1452.8 2420.35 1451.95 2418.09 1450.53L2413.5 1452.66L2420.41 1492.79H2427.35C2426.51 1489.04 2425.82 1485.66 2425.12 1481.07C2424.22 1475.22 2423.3 1467.41 2422.03 1454.43Z" fill="#42413E"/>
<path d="M2281.06 1450.53C2278.8 1451.95 2277.99 1452.8 2277.13 1454.43C2274.85 1477.58 2273.72 1484.26 2271.8 1492.79H2278.74L2285.65 1452.66L2281.06 1450.53Z" fill="#42413E"/>
<path d="M2307.31 1452.66L2305.89 1451.59H2304.47H2289.56H2288.14L2285.65 1452.66L2278.74 1492.79H2312.64L2307.31 1452.66Z" fill="#42413E"/>
<path d="M2317.97 1455.5C2317.15 1453.4 2316.34 1452.69 2314.77 1451.59L2314.06 1451.69L2307.31 1452.66L2312.64 1492.79H2320.45C2318.55 1482.84 2317.98 1474.88 2317.96 1459.05C2317.96 1457.91 2317.96 1456.73 2317.97 1455.5Z" fill="#42413E"/>
<path d="M2289.56 1357.82H2304.47V1354.43L2308.02 1348.9H2288.14L2290.27 1354.43L2289.56 1357.82Z" fill="#42413E"/>
<path d="M2304.47 1357.82H2289.56V1451.59H2304.47V1357.82Z" fill="#42413E"/>
<path d="M2281.06 1348.9H2277.31C2277.58 1350.59 2278.03 1351.92 2278.92 1354.43H2281.06V1356.75H2280.53V1357.82H2281.06V1363.71H2279.46V1368.35H2281.06V1373.17H2279.46V1374.88V1378.52H2281.06V1380.84V1383.16H2278.74V1387.97H2281.06V1392.61H2278.74V1397.61H2281.06V1401.87H2278.74V1403.13V1407.2H2281.06V1411.46H2278.74V1417.14H2281.06V1421.05H2278.74V1426.73H2281.06V1430.64H2278.74V1436.32H2281.06V1440.58H2278.74V1445.56H2281.06V1450.53L2285.65 1452.66L2288.14 1451.59H2289.56V1357.82L2290.27 1354.43L2288.14 1348.9L2281.06 1348.9Z" fill="#42413E"/>
<path d="M2305.89 1451.59L2307.31 1452.66L2314.06 1451.69V1445.56H2316.19V1440.58H2314.06V1435.61H2316.19V1430.99H2314.06V1426.38H2316.19V1421.41H2314.06V1416.43H2316.19V1411.46H2314.06V1406.84H2316.19V1401.87H2314.06V1397.26H2316.19V1391.93H2314.06V1387.67H2316.19V1382.34H2314.06V1378.08H2316.19V1373.82H2314.06V1368.13H2316.19V1363.16H2314.06V1354.43H2316.19L2317.49 1350.38L2317.97 1348.9H2308.02L2304.47 1354.43V1357.82V1451.59H2305.89Z" fill="#42413E"/>
<path d="M2381.18 1455.5C2382 1453.4 2382.81 1452.69 2384.38 1451.59L2386.87 1451.95V1445.56H2384.74V1440.58H2386.87V1435.61H2384.74V1430.99H2386.87V1426.38H2384.74V1421.41H2386.87V1416.43H2384.74V1411.46H2386.87V1406.84H2384.74V1401.87H2386.87V1397.26H2384.74V1391.93H2386.87V1387.67H2384.74V1382.34H2386.87V1378.08H2384.74V1373.82H2386.87V1368.13H2384.74V1363.16H2386.87V1354.43H2384.74L2383.43 1350.38H2317.49L2316.19 1354.43H2314.06V1363.16H2316.19V1368.13H2314.06V1373.82H2316.19V1378.08H2314.06V1382.34H2316.19V1387.67H2314.06V1391.93H2316.19V1397.26H2314.06V1401.87H2316.19V1406.84H2314.06V1411.46H2316.19V1416.43H2314.06V1421.41H2316.19V1426.38H2314.06V1430.99H2316.19V1435.61H2314.06V1440.58H2316.19V1445.56H2314.06V1451.69L2314.77 1451.59C2316.34 1452.69 2317.15 1453.4 2317.97 1455.5C2317.96 1456.73 2317.96 1457.91 2317.96 1459.05H2325.78V1421.41C2325.78 1391.93 2373.02 1391.93 2373.02 1421.41V1459.05H2381.19C2381.19 1457.91 2381.19 1456.73 2381.18 1455.5Z" fill="#42413E"/>
<path d="M2332.17 1421.41C2332.17 1399.03 2367.69 1398.68 2367.69 1421.41V1459.05H2373.02V1421.41C2373.02 1391.93 2325.78 1391.93 2325.78 1421.41V1459.05H2332.17V1421.41Z" fill="#42413E"/>
<path d="M2394.32 1451.59H2410.31L2411.02 1357.82H2396.1L2394.32 1451.59Z" fill="#42413E"/>
<path d="M2391.84 1452.66L2393.26 1451.59H2394.32L2396.1 1357.82V1354.43L2392.55 1348.9H2382.96L2383.43 1350.38L2384.74 1354.43H2386.87V1363.16H2384.74V1368.13H2386.87V1373.82H2384.74V1378.08H2386.87V1382.34H2384.74V1387.67H2386.87V1391.93H2384.74V1397.26H2386.87V1401.87H2384.74V1406.84H2386.87V1411.46H2384.74V1416.43H2386.87V1421.41H2384.74V1426.38H2386.87V1430.99H2384.74V1435.61H2386.87V1440.58H2384.74V1445.56H2386.87V1451.95L2391.84 1452.66Z" fill="#42413E"/>
<path d="M2418.09 1356.75V1354.43H2410.31L2411.02 1357.82L2410.31 1451.59H2411.02L2413.5 1452.66L2418.09 1450.53V1445.56H2420.41V1440.58H2418.09V1436.32H2420.41V1430.64H2418.09V1426.73H2420.41V1421.05H2418.09V1417.14H2420.41V1411.46H2418.09V1407.2H2420.41V1403.29V1401.87H2418.09V1397.61H2420.41V1392.61H2418.09V1387.97H2420.41V1383.16H2418.09V1380.84V1378.52H2419.7V1375.84V1373.17H2418.09V1368.35H2419.7V1363.71H2418.09V1357.82H2418.63V1356.75H2418.09Z" fill="#42413E"/>
<path d="M2396.1 1357.82H2411.02L2410.31 1354.43H2396.1V1357.82Z" fill="#42413E"/>
<path d="M2396.1 1354.43H2410.31L2412.44 1348.9H2392.55L2396.1 1354.43Z" fill="#42413E"/>
<path d="M2418.09 1348.9V1343.37H2281.06V1348.9L2288.14 1348.9H2308.02H2317.97L2317.49 1350.38H2383.43L2382.96 1348.9H2392.55H2412.44H2418.09Z" fill="#42413E"/>
<path d="M2421.84 1348.9H2418.09H2412.44L2410.31 1354.43H2418.09H2420.23C2421.13 1351.92 2421.57 1350.59 2421.84 1348.9Z" fill="#42413E"/>
<path d="M2418.09 1341.94V1332.13H2281.06V1341.94H2418.09Z" fill="#42413E"/>
<path fill-rule="evenodd" clip-rule="evenodd" d="M2425.58 1321.43C2421.04 1321.27 2418.6 1321.06 2416.44 1320.36C2407.66 1316.95 2396.36 1312.04 2385.44 1307.1C2369.12 1298.96 2352.57 1290.21 2349.94 1290H2349.22C2346.59 1290.21 2330.03 1298.96 2313.71 1307.1C2302.8 1312.04 2291.49 1316.95 2282.71 1320.36C2280.55 1321.06 2278.11 1321.27 2273.57 1321.43C2272.65 1322.41 2273.54 1323.56 2276.24 1326.06V1329.63L2281.06 1332.13H2418.09L2422.91 1329.63V1326.06C2425.61 1323.56 2426.5 1322.41 2425.58 1321.43ZM2401.07 1324.09H2298.79L2349.58 1299.23L2401.07 1324.09Z" fill="#42413E"/>
<path d="M2317.96 1459.05C2317.98 1474.88 2318.55 1482.84 2320.45 1492.79H2378.7C2380.61 1482.84 2381.17 1474.88 2381.19 1459.05H2373.02H2367.69H2332.17H2325.78H2317.96Z" fill="#42413E"/>
<path d="M2419.16 1341.94H2418.09H2281.06H2279.99V1343.37H2281.06H2418.09H2419.16V1341.94Z" fill="#42413E"/>
<path d="M2356.32 1314.86C2356.32 1318.78 2353.14 1321.96 2349.22 1321.96C2345.3 1321.96 2342.12 1318.78 2342.12 1314.86C2342.12 1310.94 2345.3 1307.76 2349.22 1307.76C2353.14 1307.76 2356.32 1310.94 2356.32 1314.86Z" fill="#42413E"/>
<path fill-rule="evenodd" clip-rule="evenodd" d="M2298.79 1324.09H2401.07L2349.58 1299.23L2298.79 1324.09ZM2349.22 1321.96C2353.14 1321.96 2356.32 1318.78 2356.32 1314.86C2356.32 1310.94 2353.14 1307.76 2349.22 1307.76C2345.3 1307.76 2342.12 1310.94 2342.12 1314.86C2342.12 1318.78 2345.3 1321.96 2349.22 1321.96Z" fill="#42413E"/>
<path d="M2418.09 1332.13L2422.91 1329.63V1326.06C2425.61 1323.56 2426.5 1322.41 2425.58 1321.43C2421.04 1321.27 2418.6 1321.06 2416.44 1320.36C2407.66 1316.95 2396.36 1312.04 2385.44 1307.1C2369.12 1298.96 2352.57 1290.21 2349.94 1290H2349.22C2346.59 1290.21 2330.03 1298.96 2313.71 1307.1C2302.8 1312.04 2291.49 1316.95 2282.71 1320.36C2280.55 1321.06 2278.11 1321.27 2273.57 1321.43C2272.65 1322.41 2273.54 1323.56 2276.24 1326.06V1329.63L2281.06 1332.13M2418.09 1332.13V1341.94M2418.09 1332.13H2281.06M2418.09 1341.94H2419.16V1343.37H2418.09M2418.09 1341.94H2281.06M2418.09 1343.37V1348.9M2418.09 1343.37H2281.06M2418.09 1348.9H2421.84C2421.57 1350.59 2421.13 1351.92 2420.23 1354.43H2418.09M2418.09 1348.9H2412.44M2418.09 1354.43V1356.75H2418.63V1357.82H2418.09V1363.71H2419.7V1368.35H2418.09V1373.17H2419.7V1375.84V1378.52H2418.09V1380.84V1383.16H2420.41V1387.97H2418.09V1392.61H2420.41V1397.61H2418.09V1401.87H2420.41V1403.29V1407.2H2418.09V1411.46H2420.41V1417.14H2418.09V1421.05H2420.41V1426.73H2418.09V1430.64H2420.41V1436.32H2418.09V1440.58H2420.41V1445.56H2418.09V1450.53M2418.09 1354.43H2410.31M2281.06 1332.13V1341.94M2281.06 1341.94H2279.99V1343.37H2281.06M2281.06 1343.37V1348.9M2281.06 1348.9H2277.31C2277.58 1350.59 2278.03 1351.92 2278.92 1354.43H2281.06V1356.75H2280.53V1357.82H2281.06V1363.71H2279.46V1368.35H2281.06V1373.17H2279.46V1374.88V1378.52H2281.06V1380.84V1383.16H2278.74V1387.97H2281.06V1392.61H2278.74V1397.61H2281.06V1401.87H2278.74V1403.13V1407.2H2281.06V1411.46H2278.74V1417.14H2281.06V1421.05H2278.74V1426.73H2281.06V1430.64H2278.74V1436.32H2281.06V1440.58H2278.74V1445.56H2281.06V1450.53M2281.06 1348.9L2317.97 1348.9M2281.06 1348.9L2288.14 1348.9M2418.09 1450.53C2420.35 1451.95 2421.16 1452.8 2422.03 1454.43C2423.3 1467.41 2424.22 1475.22 2425.12 1481.07C2425.82 1485.66 2426.51 1489.04 2427.35 1492.79H2420.41M2418.09 1450.53L2413.5 1452.66M2378.7 1492.79C2380.61 1482.84 2381.17 1474.88 2381.19 1459.05M2378.7 1492.79H2388.29M2378.7 1492.79H2320.45M2391.84 1452.66L2393.26 1451.59H2394.32M2391.84 1452.66L2388.29 1492.79M2391.84 1452.66L2386.87 1451.95M2413.5 1452.66L2411.02 1451.59H2410.31M2413.5 1452.66L2420.41 1492.79M2281.06 1450.53C2278.8 1451.95 2277.99 1452.8 2277.13 1454.43C2274.85 1477.58 2273.72 1484.26 2271.8 1492.79H2278.74M2281.06 1450.53L2285.65 1452.66M2320.45 1492.79C2318.55 1482.84 2317.98 1474.88 2317.96 1459.05M2320.45 1492.79H2312.64M2307.31 1452.66L2305.89 1451.59H2304.47M2307.31 1452.66L2312.64 1492.79M2307.31 1452.66L2314.06 1451.69M2285.65 1452.66L2288.14 1451.59H2289.56M2285.65 1452.66L2278.74 1492.79M2317.96 1459.05C2317.96 1457.91 2317.96 1456.73 2317.97 1455.5C2317.15 1453.4 2316.34 1452.69 2314.77 1451.59L2314.06 1451.69M2317.96 1459.05H2325.78M2381.19 1459.05C2381.19 1457.91 2381.19 1456.73 2381.18 1455.5C2382 1453.4 2382.81 1452.69 2384.38 1451.59L2386.87 1451.95M2381.19 1459.05H2373.02M2332.17 1459.05V1421.41C2332.17 1399.03 2367.69 1398.68 2367.69 1421.41V1459.05M2332.17 1459.05H2367.69M2332.17 1459.05H2325.78M2367.69 1459.05H2373.02M2388.29 1492.79H2420.41M2278.74 1492.79H2312.64M2386.87 1451.95V1445.56H2384.74V1440.58H2386.87V1435.61H2384.74V1430.99H2386.87V1426.38H2384.74V1421.41H2386.87V1416.43H2384.74V1411.46H2386.87V1406.84H2384.74V1401.87H2386.87V1397.26H2384.74V1391.93H2386.87V1387.67H2384.74V1382.34H2386.87V1378.08H2384.74V1373.82H2386.87V1368.13H2384.74V1363.16H2386.87V1354.43H2384.74L2383.43 1350.38M2317.97 1348.9L2317.49 1350.38M2317.97 1348.9H2308.02M2314.06 1451.69V1445.56H2316.19V1440.58H2314.06V1435.61H2316.19V1430.99H2314.06V1426.38H2316.19V1421.41H2314.06V1416.43H2316.19V1411.46H2314.06V1406.84H2316.19V1401.87H2314.06V1397.26H2316.19V1391.93H2314.06V1387.67H2316.19V1382.34H2314.06V1378.08H2316.19V1373.82H2314.06V1368.13H2316.19V1363.16H2314.06V1354.43H2316.19L2317.49 1350.38M2394.32 1451.59H2410.31M2394.32 1451.59L2396.1 1357.82M2410.31 1451.59L2411.02 1357.82M2411.02 1357.82H2396.1M2411.02 1357.82L2410.31 1354.43M2396.1 1357.82V1354.43M2410.31 1354.43H2396.1M2410.31 1354.43L2412.44 1348.9M2396.1 1354.43L2392.55 1348.9M2392.55 1348.9H2382.96L2383.43 1350.38M2392.55 1348.9H2412.44M2383.43 1350.38H2317.49M2373.02 1459.05V1421.41C2373.02 1391.93 2325.78 1391.93 2325.78 1421.41V1459.05M2304.47 1357.82H2289.56M2304.47 1357.82V1354.43M2304.47 1357.82V1451.59M2289.56 1357.82L2290.27 1354.43M2289.56 1357.82V1451.59M2290.27 1354.43H2304.47M2290.27 1354.43L2288.14 1348.9M2304.47 1354.43L2308.02 1348.9M2308.02 1348.9H2288.14M2289.56 1451.59H2304.47M2298.79 1324.09H2401.07L2349.58 1299.23L2298.79 1324.09ZM2356.32 1314.86C2356.32 1318.78 2353.14 1321.96 2349.22 1321.96C2345.3 1321.96 2342.12 1318.78 2342.12 1314.86C2342.12 1310.94 2345.3 1307.76 2349.22 1307.76C2353.14 1307.76 2356.32 1310.94 2356.32 1314.86Z" stroke="#F7F7F7"/>
</g>
<defs>
<clipPath id="clip0_820_8">
<rect width="2615.11" height="1502.42" fill="white" transform="translate(0 0.260254)"/>
</clipPath>
</defs>
</svg>
