<svg width="2616" height="1503" viewBox="0 0 2616 1503" fill="none" xmlns="http://www.w3.org/2000/svg">
<g clip-path="url(#clip0_804_14)">
<path d="M1344.5 -0.579956L1339 18.92L1323.5 40.42L1291 82.42L1267 124.92L1254.5 145.42L1241 161.42L1230 174.92L1214.5 193.92L1210.5 206.92C1212.67 211.42 1215.7 221.22 1210.5 224.42C1204 228.42 1197.5 235.92 1196 237.92C1194.5 239.92 1183.5 259.92 1180 263.42C1176.5 266.92 1171 282.92 1168.5 284.92C1166.5 286.52 1159 295.92 1155.5 300.42C1151.83 303.087 1144.1 309.22 1142.5 312.42C1140.9 315.62 1135.83 324.087 1133.5 327.92C1132.67 329.42 1130.4 333.22 1128 336.42C1125.6 339.62 1113 355.42 1107 362.92L1102 377.42L1089 388.92L1075 400.42L1061.5 404.92L1048.5 400.42L1035.5 393.92L1026 381.42L1023 377.42M1023 377.42C1025.17 373.587 1030.1 365.32 1032.5 362.92C1034.9 360.52 1035.5 350.92 1035.5 346.42L1026 339.42L1012 331.92L993.5 336.42L987.5 331.92L993.5 290.42M1023 377.42L1017 378.42H1010.5L999.5 375.42L983.5 377.42L967.5 375.42C963.667 373.587 955.4 369.22 953 366.42C950.6 363.62 944.334 358.587 941.5 356.42C939.334 353.087 934.8 345.72 934 342.92C933 339.42 929 340.92 927.5 336.42C926 331.92 923.5 328.42 923 324.92C922.5 321.42 914.5 310.42 909 300.42C903.5 290.42 902 287.42 900 284.92C898 282.42 893 278.42 893 274.92M893 274.92C893 271.42 893 272.42 893 267.92C893 264.32 893 257.087 893 253.92L890.5 241.42L886 224.42L878.5 200.42C875.5 188.753 869.2 164.62 868 161.42C866.5 157.42 880.5 156.42 860.5 145.42C840.5 134.42 836 134.92 833 129.92C830 124.92 833 90.42 833 86.42C833 82.42 821.5 64.92 815 60.42C808.5 55.92 797 41.92 794 35.92C791 29.92 786 5.92004 786 -0.579956C786 -7.07996 771.5 -29.08 768.5 -35.08C765.5 -41.08 749 -50.08 749 -54.58C749 -58.18 749 -80.4133 749 -91.08L739.5 -97.08M893 274.92C887.921 276.921 877.896 280.513 875.446 280.107M735 260.92C740.167 260.42 750.8 259.42 752 259.42C753.2 259.42 755.5 265.087 756.5 267.92L789 277.92L808.5 286.92C811.833 286.92 819 286.92 821 286.92C823 286.92 829.167 285.587 832 284.92C839 281.587 854.7 274.92 861.5 274.92C870 274.92 873.5 278.42 875 279.92C875.092 280.012 875.243 280.073 875.446 280.107M963.5 388.92H967.5H969.5H983.5L993.5 393.92C996.667 393.92 1003.5 393.92 1005.5 393.92C1008 393.92 1012 397.92 1013.5 399.42C1015 400.92 1026 400.42 1032.5 400.42C1039 400.42 1039 404.92 1040 408.42C1040.8 411.22 1050.33 411.253 1055 410.92V417.42L1052.5 426.42L1051 429.92L1040 440.42C1040.83 441.753 1042 445.62 1040 450.42C1038 455.22 1036.17 461.753 1035.5 464.42L1027.5 473.42C1027.5 477.92 1027.5 487.22 1027.5 488.42C1027.5 489.92 1023 500.42 1023 501.92C1023 503.12 1023 512.087 1023 516.42L1020 527.92L1017 538.92V548.42L1013.5 555.42L1005.5 558.42L1003 562.92L999.5 568.92L997.5 572.42L993.5 577.92C993.667 578.587 993.5 579.92 991.5 579.92C989.5 579.92 984.333 579.92 982 579.92L979 582.42L971.5 587.92L969.5 593.42L961 602.42L959 613.42L953 610.92L948 604.42L941.5 595.42L936.5 589.92L925.5 587.92H918.5L913 593.42V600.42L920.5 608.42H933.5L941.5 621.92L943.5 626.42L951.5 640.42L941.5 645.92L936.5 638.42V629.92L933.5 626.42L927.5 619.92L904 624.92L886 626.42C884.667 626.753 882.1 627.92 882.5 629.92C883 632.42 884 643.42 886 643.92C888 644.42 894 642.92 890 647.92C886.8 651.92 883.667 659.587 882.5 662.92C882.5 663.753 882.5 665.82 882.5 667.42C882.5 669.02 884.833 677.42 886 681.42V685.42H878.5C879.333 684.92 880.5 683.42 878.5 681.42C876.5 679.42 871 673.587 868.5 670.92L866 667.42L859.5 670.92L852 672.92L844 675.92L838 685.42L847.5 691.42H849.5L859.5 700.92C858.667 704.087 856.8 710.82 856 712.42C855.2 714.02 855.667 719.753 856 722.42L849.5 725.92L840.5 709.42C836.333 710.253 827.9 710.82 827.5 706.42C827.1 702.02 812.667 700.92 805.5 700.92L802.5 688.92L794.5 681.42L785 698.42L783 700.92L767.5 703.42L770.5 688.92C771.5 686.253 772.9 679.92 770.5 675.92C768.1 671.92 765.5 665.587 764.5 662.92L758.5 647.92C754.833 643.587 747.1 635.02 745.5 635.42C743.9 635.82 735.833 635.587 732 635.42C730.167 635.42 725.8 635.42 723 635.42C720.2 635.42 711.167 631.753 707 629.92L694 638.42C692.5 639.087 689 640.42 687 640.42C684.5 640.42 678.5 638.92 675.5 635.42C673.1 632.62 666.833 628.253 664 626.42L653.5 635.42L637.5 640.42L628 647.92V657.42C627.833 659.587 627.2 664.62 626 667.42C624.8 670.22 621.167 666.92 619.5 664.92L617.5 657.42L599 654.92L610.5 647.92L613.5 643.92L607.5 626.42V624.92L602.5 619.92C600.667 618.587 596.4 615.72 594 614.92C591.6 614.12 586 610.253 583.5 608.42M963.5 388.92L967.5 393.92L979 397.42C980 398.087 982 399.82 982 401.42C982 403.02 982 409.753 982 412.92C981.167 414.42 980.3 417.42 983.5 417.42C986.7 417.42 990.167 422.087 991.5 424.42V431.42M963.5 388.92V393.92L955.5 399.42L945.5 401.42C941.667 401.92 933.5 403.32 931.5 404.92C929.5 406.52 923.333 407.92 920.5 408.42C921 409.42 922.1 412.02 922.5 414.42C922.9 416.82 926 423.42 927.5 426.42C927.5 426.42 927.5 426.92 927.5 428.92C927.5 431.42 929 439.42 927.5 440.42C926.3 441.22 917.333 443.087 913 443.92H907L909 450.42C909.333 452.42 910.6 456.42 913 456.42C915.4 456.42 922.333 458.42 925.5 459.42L936.5 465.92M963.5 388.92L961 381.42L959 378.42H948H941.5L940 374.92L934 366.42L931.5 361.42L925.5 359.42L920.5 368.92L907 377.42C904.667 379.42 899.6 383.52 898 383.92C896.4 384.32 892.333 386.087 890.5 386.92L886.5 383.92L882.5 377.42L879 368.92C878.667 368.087 877.9 365.92 877.5 363.92C877.1 361.92 875.667 360.087 875 359.42H866.5L858 362.92L846 366.42L840.5 361.42L836 353.42L833.5 347.92C831.667 346.42 827.7 343.02 826.5 341.42C825.3 339.82 819.667 336.087 817 334.42H811C810.833 336.087 810.1 339.42 808.5 339.42C806.9 339.42 802.5 337.42 800.5 336.42H795L789 334.42C789.167 336.087 789.7 340.12 790.5 342.92C791.3 345.72 792.167 353.087 792.5 356.42M792.5 356.42C792.667 359.753 793.4 366.42 795 366.42C796.6 366.42 802.667 380.087 805.5 386.92C807.5 389.92 811.4 396.62 811 399.42C810.6 402.22 809.167 408.253 808.5 410.92L800.5 414.42L792.5 419.92L785 424.42L781.5 422.42V428.92L785 433.92V440.42H781.5L775 437.92H770.5L766 440.42M792.5 356.42L786.5 344.42L785 336.42L781.5 329.92V324.92H789C789.5 325.92 790.9 327.92 792.5 327.92C794.1 327.92 795.833 329.253 796.5 329.92L803 331.92L805.5 329.92H811L813.5 326.42H818.5L821 329.92L826.5 331.92L833.5 336.42L838.5 342.92L846 353.42L849 354.92L852 356.42L858 354.92L866.5 349.92H875H877.5L881.5 354.92L882.5 359.42L886.5 366.42L890.5 372.42L894.5 376.42L903 368.92L905 363.92L913 361.42L922.5 356.42L925.5 349.92L920.5 346.42L916.5 336.42L913 331.92L905 319.92L900 302.92C898 299.253 893.7 291.32 892.5 288.92C891.3 286.52 888 283.92 886.5 282.92L875.446 280.107M583.5 608.42V619.92L592 621.92L594 635.42L602.5 643.92L596 651.92H592L583.5 657.42V664.92H592H599H610.5H613.5L619.5 675.92L621 679.92H628L634 675.92C634 673.92 634 669.42 634 667.42C634 665.42 634 661.587 634 659.92C633.333 658.753 632.4 656.12 634 654.92C636 653.42 640.5 647.92 642.5 647.92C644.5 647.92 658 640.42 658.5 640.42C658.9 640.42 663.333 637.087 665.5 635.42C667.167 633.753 670.7 631.42 671.5 635.42C672.5 640.42 673 639.92 675.5 643.92C678 647.92 682 648.92 683 650.42C683.8 651.62 686 655.587 687 657.42H690.5L698 651.92L709 647.92C708.5 647.587 708.8 646.62 714 645.42C719.2 644.22 724.833 644.92 727 645.42L734 647.92L750 650.42C751.5 649.92 754.5 649.52 754.5 651.92C754.5 654.92 758.5 662.42 758.5 664.92C758.5 666.92 758.5 669.087 758.5 669.92L762.5 677.92V685.92C762.5 686.587 762.5 688.62 762.5 691.42C762.5 694.22 762.5 700.587 762.5 703.42L760 708.42V712.92H767.5L780 710.42L785 708.42L793 706.42C793 705.42 793 702.92 793 700.92C793 698.42 792 692.92 794.5 696.92C797 700.92 797.5 706.42 800 706.42C802 706.42 809.5 707.753 813 708.42L819 710.42L830.5 715.92L838 719.92V724.42C838.167 725.92 838.9 728.92 840.5 728.92C842.1 728.92 847.833 729.587 850.5 729.92L856 731.42L866 733.42C865.667 731.42 864.9 727.12 864.5 725.92C864 724.42 864.5 721.42 864.5 719.92C864.5 718.72 864.5 713.087 864.5 710.42V706.42V696.92L859.5 692.92L852 685.42V681.42L857.5 679.42H861H868.5V687.42L872 692.92C874.5 692.42 879.8 691.72 881 692.92C882.2 694.12 889.167 696.087 892.5 696.92C892.5 695.253 892.5 691.02 892.5 687.42C892.5 682.92 892.5 684.92 892.5 681.42C892.5 678.62 893.167 675.92 893.5 674.92C893.167 672.92 892.7 668.62 893.5 667.42C894.3 666.22 895.833 663.92 896.5 662.92C897.5 661.087 899.5 657.12 899.5 655.92C899.5 654.42 899.5 649.92 899.5 647.92C899.5 646.32 897.5 643.253 896.5 641.92L893.5 638.42C893.667 637.753 894.2 636.22 895 635.42C895.8 634.62 900 632.42 902 631.42H911.5C913.167 630.92 916.9 629.92 918.5 629.92C920.1 629.92 923.167 628.92 924.5 628.42L927.5 631.42C928.167 635.087 929.7 642.72 930.5 643.92C931.3 645.12 934.833 648.753 936.5 650.42L941.5 651.92L955 645.92C956.333 646.42 959 646.72 959 643.92C959 641.12 959 637.087 959 635.42L955 629.92L948 621.92L941.5 613.42L938.5 608.42L936.5 604.92L932.5 601.92C931.5 601.587 929.4 600.92 929 600.92C928.5 600.92 925.5 601.92 924.5 601.92C923.7 601.92 921.5 600.92 920.5 600.42L918.5 598.42V593.92C920.167 593.42 923.6 592.42 924 592.42C924.5 592.42 928 592.42 929 592.92C930 593.42 934.5 595.42 935 595.42C935.4 595.42 937.5 596.753 938.5 597.42C938.833 598.253 939.6 600.02 940 600.42C940.4 600.82 942.167 603.92 943 605.42L945.5 608.92C945.833 609.753 946.8 611.62 948 612.42C949.5 613.42 953.5 616.92 954 617.42C954.4 617.82 956.833 619.587 958 620.42L961 621.42C962.833 621.253 966.5 620.82 966.5 620.42C966.5 619.92 967 617.42 967 616.42C967 615.62 969.333 610.42 970.5 607.92L973.5 604.42L977.5 592.42L981 590.42L991.5 585.92L996 584.92L999.5 580.92M583.5 608.42C584.167 606.087 585.1 600.62 583.5 597.42C581.5 593.42 579 587.92 578.5 587.92C578.1 587.92 574.667 583.587 573 581.42C576.5 578.087 583.5 571.02 583.5 569.42C583.5 567.42 586 561.42 586 558.42C586 556.02 586 550.753 586 548.42L592 545.42C593.333 543.087 595.6 538.22 594 537.42C592 536.42 586 535.92 586 534.42C586 532.92 582.5 526.92 580.5 523.92C578.5 520.92 574.5 517.92 571 512.42C567.5 506.92 567 502.42 563.5 495.92C560 489.42 560.5 487.92 558.5 484.92C556.9 482.52 554.5 478.253 553.5 476.42V460.92V451.92L547.5 440.42C544 437.92 537.5 436.42 536 434.42C534.8 432.82 532.167 430.753 531 429.92C530 428.253 528 424.52 528 422.92C528 421.32 528 418.587 528 417.42L519.5 415.42L514.5 411.42C512.5 408.42 508.6 401.92 509 399.92C509.5 397.42 509 393.92 509 391.92C509 390.32 509 385.92 509 383.92V381.42L496 378.92C495.833 377.253 494.3 373.12 489.5 369.92C484.7 366.72 474.167 365.253 469.5 364.92C467 368.253 462 373.92 462 369.92C462 364.92 461 360.92 459.5 359.42C454 348.92 451 346.92 446 347.92C441 348.92 432 352.92 432 350.42C432 347.92 432 344.42 432 340.42C432 336.42 432 332.42 432 328.92C432 326.12 435.333 323.087 437 321.92C438.333 322.087 441.2 321.32 442 316.92C443 311.42 446 309.92 446 305.92C446 302.72 443.333 298.587 442 296.92H424.5L411.5 303.42H394C395.833 305.253 398 306.52 392 296.92C384.5 284.92 383.5 281.92 383 279.92C382.6 278.32 368.833 275.587 362 274.42H353C350.5 274.087 345.1 273.02 343.5 271.42C341.5 269.42 340.5 267.92 340.5 265.42C340.5 262.92 340.5 260.42 340.5 258.92C340.5 257.72 334.167 254.087 331 252.42C329 251.587 325 249.22 325 246.42C325 242.92 325 230.92 325 227.92C325 225.52 322.333 221.587 321 219.92L311.5 215.42C313.333 212.42 315.9 205.92 311.5 203.92C307.1 201.92 303.333 199.087 302 197.92L297 193.92L304 190.92C306.333 189.253 310.3 186.02 307.5 186.42C304.7 186.82 300 185.92 298 185.42L297 179.92L299.5 177.92L304 175.92C305 175.587 306.7 174.62 305.5 173.42C304.3 172.22 301 169.92 299.5 168.92L304 164.92L308 163.92C308.167 163.587 308.4 162.72 308 161.92C311.5 158.92 314.5 156.42 316 157.92C317.5 159.42 314 163.42 316 161.92C317.6 160.72 320 157.753 321 156.42C320.833 155.92 320.8 155.22 322 156.42C323.2 157.62 325.5 160.587 326.5 161.92L338.5 167.42C339.5 166.587 341.7 164.62 342.5 163.42C343.5 161.92 343.5 161.92 345.5 159.92C347.1 158.32 349.5 156.253 350.5 155.42C352.167 153.92 354.5 150.92 350.5 150.92C346.5 150.92 343.5 147.253 342.5 145.42L329.5 136.42V129.92C329.5 123.92 329.5 111.62 329.5 110.42C329.5 108.92 323 102.42 319.5 101.42C316 100.42 312 97.42 309 95.42C306.6 93.82 303 87.0867 301.5 83.92C300 82.92 296.2 80.52 293 78.92C289 76.92 281 69.42 279.5 69.42C278 69.42 277.5 64.92 279.5 59.42C281.1 55.02 285.167 45.2534 287 40.92C284.667 41.0867 279.5 40.72 277.5 37.92C275 34.42 272.5 32.92 272.5 29.92C272.5 26.92 271 16.92 271 14.92C271 13.32 275.333 4.25338 277.5 -0.0799561L285 -3.07996L277.5 -13.08H269C269.5 -17.58 270.2 -26.68 269 -27.08C267.5 -27.58 266.5 -28.08 260 -36.08C254.8 -42.48 252.167 -46.4133 251.5 -47.58M999.5 580.92L1002.5 576.42C1003.33 575.42 1005 573.32 1005 572.92C1005 572.52 1006 569.753 1006.5 568.42L1008 565.42M999.5 580.92L997.5 587.92L993 594.92C992.333 597.087 990.8 601.62 990 602.42C989 603.42 986 608.92 986 609.42C986 609.82 984.667 613.253 984 614.92C983.333 616.587 981.9 620.32 981.5 621.92C981.1 623.52 978.667 638.587 977.5 645.92L966.5 667.42C963.667 672.753 958 683.82 958 685.42C958 687.02 958 693.753 958 696.92C956.833 701.92 954.2 712.72 953 715.92C951.8 719.12 945.833 729.92 943 734.92L933.5 753.42C932 757.253 928.3 765.42 925.5 767.42C922.7 769.42 916 780.587 913 785.92L902 792.92V812.92C895.833 817.42 883 827.12 881 829.92C879 832.72 871.833 843.753 868.5 848.92L850.5 865.92C844.833 870.253 832.9 879.22 830.5 880.42C828.1 881.62 810.833 892.92 802.5 898.42C802 902.087 799.4 910.32 793 913.92C785 918.42 773.5 926.42 770.5 930.92C768.1 934.52 752.833 948.087 745.5 954.42L741 964.42L732.5 976.92L725 993.42L701 1005.42L693.5 1013.92L505.5 1159.42L489 1244.92M1228.5 385.42V397.42M1228.5 397.42H1221C1218 402.587 1211.2 413.82 1208 417.42C1204 421.92 1208 426.42 1204 429.92C1200 433.42 1205 445.42 1204 450.42C1203 455.42 1200 461.42 1196.5 465.92C1193 470.42 1193.5 479.42 1188.5 486.92C1183.5 494.42 1186 494.92 1182.5 501.92C1179 508.92 1181.5 506.92 1179.5 516.42C1177.5 525.92 1176.5 527.92 1176.5 532.92C1176.5 537.92 1173.5 548.42 1173.5 558.42C1173.5 566.42 1175.5 566.42 1176.5 565.42L1173.5 590.42L1179.5 577.92L1193.5 565.42L1196.5 558.42L1198 535.92V527.92C1197.5 519.253 1196.8 501.42 1198 499.42C1199.2 497.42 1199.83 495.587 1200 494.92C1203 486.087 1209.6 467.62 1212 464.42C1214.4 461.22 1213 451.087 1212 446.42C1212 443.253 1212 435.52 1212 429.92C1212 424.32 1212 425.253 1212 426.42C1215 420.42 1221.9 407.72 1225.5 404.92C1229.1 402.12 1229 398.753 1228.5 397.42ZM1485 101.5L1469.5 119.5L1464.5 134C1463.3 136.4 1448.33 145.667 1441 150L1429.5 180.5L1409.5 195.5L1397 219.5C1396.5 221.14 1395.1 225.936 1393.5 232C1391.5 239.58 1375.5 241 1366.5 245.5C1357.5 250 1363.5 252 1352.5 270C1341.5 288 1347.5 284.92 1338 300.42C1328.5 315.92 1328.5 316 1322 327.92C1315.5 339.84 1318.5 336.42 1310 359C1301.5 381.58 1298.5 377.42 1295 377.42C1291.5 377.42 1284 417.42 1272.5 429.92C1261 442.42 1267 450.42 1266 450.42C1265 450.42 1248 486.92 1243.5 494.92C1239 502.92 1237.5 527.92 1236.5 532.92C1235.7 536.92 1233.5 547.307 1232.5 552V576.42V586L1246 583.5L1259.5 573L1268 567L1279.5 559C1285.33 557.667 1297.5 554.7 1299.5 553.5C1302 552 1309.5 547 1310 546C1310.5 545 1323.5 538 1327 535.5C1330.5 533 1329 532.92 1330.5 529.5C1332 526.08 1338 525 1343 523C1348 521 1350 517.5 1352.5 515.5C1355 513.5 1367 515.5 1370 515.5C1372.4 515.5 1378.33 515.5 1381 515.5M1485 101.5L1495 90L1503 77.5C1506.17 74.8333 1513.1 69.1 1515.5 67.5C1518.5 65.5 1530 57.5 1530.5 54C1531 50.5 1541 35.5 1546 31.5C1551 27.5 1559.5 18.92 1562 18.92C1564.5 18.92 1573.5 4 1579 4.5C1583.4 4.9 1594.17 4.66667 1599 4.5C1605.5 5.5 1619.5 7.5 1623.5 7.5C1627.5 7.5 1635.17 7.5 1638.5 7.5L1652.5 4.5L1669.5 11V18.92C1669.5 21.9467 1669.5 28.7 1669.5 31.5C1669.5 34.3 1666.17 43 1664.5 47L1652.5 58H1634.5L1612 64.5M1485 101.5L1503 94L1515.5 82.42H1527C1528.17 80.78 1531.6 76.3 1536 71.5C1541.5 65.5 1546 61.5 1546 58C1546 55.2 1556.67 56.8333 1562 58L1582 61.5C1586.5 62.5 1596.2 64.5 1599 64.5C1601.8 64.5 1608.83 64.5 1612 64.5M1612 64.5H1638.5C1642.5 64 1650.9 63 1652.5 63C1654.1 63 1656.17 62 1657 61.5L1667.5 54M1667.5 54L1669.5 47L1674 42L1679 36C1679 35 1678.6 32.7 1677 31.5C1675.4 30.3 1676.33 30 1677 30L1679 18.92V11C1681.17 9.83333 1686.3 7.5 1689.5 7.5C1692.7 7.5 1710.17 7.5 1718.5 7.5C1721.67 8.66667 1732.6 11 1751 11C1774 11 1782.5 11 1788.5 11C1793.3 11 1814.17 11 1824 11C1828.5 9.83333 1838.2 7.5 1841 7.5C1844.5 7.5 1864 11 1870 11C1874.8 11 1884.33 8.66667 1888.5 7.5L1875.5 18.92L1861.5 31.5L1859 41.5C1857.5 45.1667 1854.3 53 1853.5 55C1852.5 57.5 1848.5 64 1847 65C1845.8 65.8 1839.83 69 1837 70.5C1836.5 71.5 1835.3 73.9 1834.5 75.5C1833.5 77.5 1831.5 80 1829.5 81C1827.5 82 1828.5 84 1825.5 86C1822.5 88 1822 88 1821 89C1820 90 1819 90 1816.5 91.5C1814.23 94.2002 1812.42 96.5237 1810.99 98.5M1667.5 54C1668.17 55 1669.5 57.9 1669.5 61.5C1669.5 66 1669 67.5 1671.5 67.5C1673.5 67.5 1672.33 70.1667 1671.5 71.5L1667.5 76M1864.5 184.5C1865 184 1862.5 173.5 1861.5 172.5C1860.5 171.5 1859 165 1857 162.5C1855.4 160.5 1849.67 147.667 1847 141.5C1845.5 140.5 1842.2 138.3 1841 137.5C1839.5 136.5 1836 131.5 1834.5 129C1833 126.5 1831 125.5 1829.5 124C1828 122.5 1821 119 1820 118.5C1819.2 118.1 1811.67 114.333 1808 112.5L1806 107.5C1806 106.648 1807.12 103.843 1810.99 98.5M1864.5 184.5C1864.1 184.9 1862.33 186.667 1861.5 187.5L1857 189.5L1850 191.5L1847 197L1839.5 206L1834.5 212C1834.33 212.5 1833.4 214 1831 216C1828.6 218 1826 220.5 1825 221.5C1824.33 223.167 1822.9 226.8 1822.5 228C1822.1 229.2 1820.67 232.5 1820 234C1819.17 234 1817.3 234.6 1816.5 237C1815.7 239.4 1812.17 244.667 1810.5 247L1808 252C1808 255.5 1807.6 262.8 1806 264C1804.4 265.2 1801.67 270.5 1800.5 273C1800.5 274.833 1799.8 279.1 1797 281.5C1793.5 284.5 1794 288 1794 289.5C1794 291 1792 299 1791.5 300.5C1791.1 301.7 1788 308.333 1786.5 311.5C1787 311.833 1787.7 313 1786.5 315C1785.3 317 1782 325.833 1780.5 330C1780.5 330.833 1780.5 332.9 1780.5 334.5C1780.5 336.5 1778 346.5 1777 348C1776 349.5 1774.5 348.5 1774 350.5C1773.5 352.5 1771.5 364 1771.5 366C1771.5 368 1769.5 373.5 1769.5 374.5C1769.5 375.5 1769.5 379.5 1769.5 381C1769.5 382.2 1767.5 390.167 1766.5 394L1765.5 397.5H1761.5C1761.33 396.833 1761.1 395.1 1761.5 393.5C1762 391.5 1762 391.5 1763 389.5C1763.8 387.9 1764 385.833 1764 385C1764.33 384.5 1764.9 383.3 1764.5 382.5C1764 381.5 1763 380.5 1763 380C1763 379.5 1760.5 379.5 1760 379.5C1759.6 379.5 1754.83 381.5 1752.5 382.5M1864.5 184.5C1866 182.667 1869.2 178.8 1870 178C1871 177 1876 176 1877.5 175.5C1878.7 175.1 1879.67 173.333 1880 172.5V166.5V160.5V152.5C1880 150 1880 144.3 1880 141.5C1880 138.7 1880 133 1880 130.5L1881 118.5L1883 112.5L1886.5 101.5L1888.5 93L1893.5 83.5C1894.17 81.3333 1895.5 76.7 1895.5 75.5C1895.5 74 1902.5 61.5 1903 61.5C1903.5 61.5 1908 57 1909 55C1909.8 53.4 1913 50.6667 1914.5 49.5C1915.17 47.8333 1916.9 44.2 1918.5 43C1920.5 41.5 1924 35.5 1924 33.5C1924 31.9 1926.33 27.1667 1927.5 25C1927.5 23.6667 1927.5 20.584 1927.5 18.92C1927.5 17.2561 1927.5 10.6134 1927.5 7.5H1924H1916.5L1906.5 11C1903.33 12 1896.7 14.3 1895.5 15.5C1894.3 16.7 1893.67 16.6667 1893.5 16.5L1883 25C1881.83 26 1879.3 28.3 1878.5 29.5C1877.5 31 1875.5 33 1872 35.5C1868.5 38 1870 39 1869 40.5C1868.2 41.7 1865 45.6667 1863.5 47.5C1862.83 48.1667 1861.5 50.2 1861.5 53C1861.5 56.5 1861.5 57.5 1859 61.5C1856.5 65.5 1857 65 1853.5 70.5C1850.7 74.9 1852.33 74.3333 1853.5 73.5L1837 83.5C1836.17 84.3333 1833.5 87.4 1829.5 93C1825.5 98.6 1822.17 96.3333 1821 94.5L1810.99 98.5M1752.5 382.5C1751.83 382.5 1750.5 382 1750.5 380C1750.5 377.5 1751 377.5 1750.5 374C1750 370.5 1752 372 1749.5 366.5C1747 361 1746.5 360 1746 357.5C1745.5 355 1745 350 1744.5 349C1744.1 348.2 1742.67 348 1742 348H1737L1729.5 350.5H1720.5M1752.5 382.5L1757.5 384H1759V389.5C1758.17 390.167 1756.5 391.7 1756.5 392.5C1756.5 393.5 1757 394 1756.5 395.5C1756 397 1754.5 399.5 1755.5 399.5C1756.3 399.5 1758.83 404.167 1760 406.5L1761.5 407C1761.33 408 1761.1 410.2 1761.5 411C1762 412 1762 413.5 1762.5 415.5C1763 417.5 1764 418 1764 419C1764 420 1768.5 437 1768.5 438C1768.5 439 1769.5 443 1769.5 445C1769.5 447 1771.5 449.5 1771.5 451C1771.5 452.2 1775.17 460.833 1777 465C1777 463.5 1777 461.8 1777 467C1777 473.5 1777 476.5 1777 477.5C1777 478.3 1776.33 479.5 1776 480L1767 503C1765.33 503.667 1761.5 505.5 1759.5 507.5C1757 510 1750.5 514.5 1749.5 515.5C1748.5 516.5 1748 515 1744.5 521.5C1741 528 1739 530.5 1738.5 532.5C1738 534.5 1739 534 1736 538.5C1733 543 1734 542 1729.5 547.5C1725 553 1724 555 1721.5 559C1719 563 1714.5 568 1713 569.5C1711.5 571 1713 570 1705.5 575.5C1698 581 1695 584.5 1694 586C1693.2 587.2 1685 597.167 1681 602L1670 616L1653 634C1654.83 634.167 1656.1 635.7 1646.5 640.5C1634.5 646.5 1615 653.5 1615 657C1615 660.5 1618 663 1615 664.5C1612 666 1596 672 1590.5 679.5C1585 687 1581 692 1580 693C1579 694 1564.5 700 1561 705C1557.5 710 1554 718 1551.5 721C1549 724 1548.5 722 1543 730.5C1537.5 739 1542.5 736 1535.5 741C1528.5 746 1531.5 743 1521 752C1510.5 761 1507.5 761 1503.5 766.5C1500.3 770.9 1496.17 776 1494.5 778L1488 775.5L1485 772.5C1484.67 770.667 1484.4 766.7 1486 765.5C1488 764 1488 761.5 1488 760C1488 758.5 1488 757 1488 756C1488 755.2 1489 753 1489.5 752L1486 746.5L1478 741L1463.5 744L1452 750H1445L1436.5 748V741V732L1431 725H1421.5L1413 721L1408 717.5C1409.5 716.167 1413 713.6 1415 714C1417 714.4 1424.17 714.167 1427.5 714C1430.17 714.167 1436.6 713.8 1441 711C1446.5 707.5 1453 705 1454 703C1455 701 1456 699 1456 696C1456 693 1456 688.5 1456 686.5C1456 684.9 1456 681.167 1456 679.5L1452 676V672.5L1454 668C1456.17 668 1460.8 668 1462 668C1463.5 668 1470.5 670 1473 668C1475.5 666 1479 666 1480.5 664.5C1481.7 663.3 1484 663 1485 663H1492.5V659.5L1482.5 657H1475L1472 658L1466 661L1460.5 663H1452H1443.5L1441 664.5M1720.5 350.5C1722 348.833 1725 345.3 1725 344.5C1725 343.5 1726 342.5 1727 340.5C1727.8 338.9 1729 337.5 1729.5 337M1720.5 350.5L1716 357.5C1715.67 357.667 1714.6 358.2 1713 359C1711.4 359.8 1708 361.667 1706.5 362.5C1706.83 362.5 1706.8 362.9 1704 364.5C1700.5 366.5 1698 366.5 1697 366.5M1697 366.5C1696 366.5 1695.5 367 1694 366.5C1692.5 366 1691 366.5 1688.5 364.5C1686.5 362.9 1684.33 360.167 1683.5 359C1683.83 359.833 1684.3 360.4 1683.5 356C1682.5 350.5 1682 350 1681 349C1680.2 348.2 1676 345 1674 343.5C1672.83 343 1670.4 341.7 1670 340.5C1669.6 339.3 1668.5 337.667 1668 337M1697 366.5C1697 367.167 1697 368.9 1697 370.5C1697 372.1 1697 375.167 1697 376.5C1696.33 376.5 1695.6 376.8 1698 378C1701 379.5 1701.5 379 1704 380C1706 380.8 1707.83 381 1708.5 381V385C1708.83 385 1708.6 385 1705 385C1701.4 385 1698.83 385 1698 385C1695.67 384.833 1691.6 385 1694 387C1697 389.5 1699 393.5 1697 393.5C1695.4 393.5 1690.67 396.167 1688.5 397.5M1441 664.5V672.5C1442.33 674.667 1445 679.4 1445 681C1445 683 1447.5 683.5 1447.5 686.5C1447.5 689.5 1447.5 690 1447.5 693C1447.5 696 1447.5 697 1443.5 700C1439.5 703 1436 705 1433.5 705C1431 705 1426.5 706.5 1424 707C1422 707.4 1417.17 707.167 1415 707L1405 711C1403.83 710.833 1401.2 711.2 1400 714C1398.5 717.5 1395 717 1397.5 721C1399.5 724.2 1403.33 728.667 1405 730.5H1415L1427.5 732C1428.67 732.667 1431 734.5 1431 736.5C1431 739 1431 745 1431 746.5C1431 747.7 1431 752.333 1431 754.5L1436.5 760L1446 761L1466 754.5L1480.5 752L1479.5 756C1478.83 757.167 1477.5 759.7 1477.5 760.5C1477.5 761.5 1478.5 764.5 1479 765C1479.5 765.5 1478.5 768 1479 769C1479.5 770 1479.5 774.5 1480 775C1480.5 775.5 1481.5 777.5 1481.5 778.5C1481.5 779.5 1483 782.5 1481.5 784C1480 785.5 1478.5 790 1478 790.5C1477.6 790.9 1474.83 792.667 1473.5 793.5L1453.5 806L1441 812.92C1434.5 819.447 1420.6 833 1417 835C1413.4 837 1393.5 852.167 1384 859.5L1352.5 890C1346.83 895.027 1333.6 905.964 1326 909.5C1316.5 913.92 1316.5 919.5 1311.5 924C1307.5 927.6 1291.83 934.5 1284.5 937.5L1238.5 959L1204 976.92L1171.5 988.5C1155 993.28 1118 1005.06 1102 1013.92C1086 1022.78 1057.67 1030.33 1045.5 1033C1026 1037.83 984.6 1047.8 975 1049C965.4 1050.2 920 1052.83 898.5 1054C887 1054.83 861.6 1055 852 1049C842.4 1043 815 1035.83 802.5 1033C805.167 1023.81 812.2 1005.42 819 1005.42C825.8 1005.42 848.833 978.087 859.5 964.42L932.5 913.92C940 905.947 955.6 890 958 890C961 890 972 865.92 979 865.92C984.6 865.92 997.333 854.587 1003 848.92L1010.5 843C1012.83 842 1017.6 839.7 1018 838.5C1018.4 837.3 1021.5 834 1023 832.5C1026.5 831.64 1033.9 829.92 1035.5 829.92C1037.1 829.92 1042.17 827.307 1044.5 826L1052.5 815C1053.17 813.833 1054.5 812.2 1054.5 815C1054.5 817.8 1049.17 826.113 1046.5 829.92L1025 851C1026.17 850.667 1026.9 851.3 1020.5 856.5C1012.5 863 1008 865 1005.5 868C1003 871 999 875 997.5 880.5C996 886 994.5 891.5 990.5 894.5C986.5 897.5 981.5 901.5 974 906.5C966.5 911.5 962 910.84 960 913.92C958.4 916.384 954.667 924.333 953 928M1441 664.5V648L1442.5 642.5L1452 645L1454 637L1456 624V616V607L1447.5 611L1436.5 607L1431 602L1427.5 594V586C1428.67 583.333 1431 577.5 1431 575.5C1431 573.5 1431 566.333 1431 563C1432.83 562.5 1436.5 561 1436.5 559C1436.5 557 1436.5 547.167 1436.5 542.5C1434.67 539.307 1430.3 532.92 1427.5 532.92C1424.7 532.92 1415.33 533.64 1411 534L1394 527L1381 515.5M1381 515.5L1376 520L1368 523H1356.5C1355 524.5 1351.1 527.9 1347.5 529.5C1343 531.5 1342 532.5 1340.5 534C1339 535.5 1336.5 537 1335.5 538.5C1334.5 540 1331 543 1329 544.5C1327 546 1327.5 547 1324.5 549.5C1321.5 552 1318.5 548.58 1316.5 553.5C1314.5 558.42 1314.5 559 1311.5 561C1308.5 563 1308 565.5 1302.5 567C1297 568.5 1295.5 568.5 1292 569.5C1289.2 570.3 1284.17 569.833 1282 569.5C1279.83 571.5 1275.3 575.5 1274.5 575.5C1273.5 575.5 1270 577 1268 579C1266.4 580.6 1260.67 584.333 1258 586C1257 586.5 1254.1 587.9 1250.5 589.5C1246.9 591.1 1244.33 593.167 1243.5 594H1236.5H1227.5L1226 607L1221.5 616L1217 628L1212 638.5L1198 658C1195.83 664.14 1191.5 677.02 1191.5 679.42C1191.5 682.42 1189 687.42 1184.5 692.92C1180 698.42 1182.5 703.5 1179.5 706.42C1177.1 708.756 1174.5 716.393 1173.5 719.92C1172.5 723.253 1170.5 730.92 1170.5 734.92C1170.5 739.92 1168 742.5 1166 746.92C1164 751.34 1156.5 754.92 1151.5 757.5C1146.5 760.08 1144 763 1141.5 765C1139.5 766.6 1132.67 771.333 1129.5 773.5L1118.5 781C1116 782.64 1110.5 785.92 1108.5 785.92C1106 785.92 1095 792.92 1087 796C1079 799.08 1078 802.5 1077 804C1076 805.5 1070.5 811.5 1067.5 815C1064.5 818.5 1063 826 1061.5 828.5C1060 831 1054.5 836 1051 838.5C1047.5 841 1043.5 846 1040.5 848.92C1038.1 851.256 1036.5 858.947 1036 862.5C1034.33 863.64 1029.5 866.836 1023.5 870.5C1016 875.08 1016 875.5 1012.5 878.5C1009 881.5 1007 885.5 1003.5 890C1000 894.5 1002.5 894.5 1001 898.42C999.5 902.34 997.5 900.5 992.5 903C987.5 905.5 979 910.5 975 913.92C971.8 916.656 967 917.447 965 917.5L960 924L953 928M953 928C946.833 931.167 934.3 937.5 933.5 937.5C932.7 937.5 927.833 938.833 925.5 939.5L918.5 942.5C915.5 944.333 909.3 948.2 908.5 949C907.5 950 901.5 960.58 900 962.5C898.8 964.036 890.833 971.473 887 975M1023 738.42L1040 730.92L1061.5 721.42L1080.5 707.42C1086 701.253 1098 688.22 1102 685.42C1107 681.92 1119.5 674.42 1121.5 667.42C1123.5 660.42 1130 641.42 1132.5 638.42C1135 635.42 1137.5 621.42 1144 614.92C1150.5 608.42 1165 597.42 1166 594.92C1167 592.42 1166 580.42 1166 576.42C1166 572.42 1166 552.42 1166 548.42C1166 544.42 1166 545.92 1166 527.92C1166 509.92 1164.5 509.42 1171 494.92C1177.5 480.42 1183.5 476.42 1186 465.92C1188.5 455.42 1190.5 447.42 1193.5 436.92C1196.5 426.42 1197 417.42 1200 412.92C1203 408.42 1207.5 400.92 1208 397.42C1208.4 394.62 1208.17 388.253 1208 385.42C1204.17 387.087 1195.9 391.12 1193.5 393.92C1190.5 397.42 1190.5 394.42 1186 397.42C1181.5 400.42 1186 395.42 1173.5 409.92C1161 424.42 1157 422.42 1150.5 431.42C1144 440.42 1125.5 462.92 1121.5 464.42C1117.5 465.92 1114 463.42 1110.5 473.42C1107 483.42 1097 490.92 1095.5 494.92C1094 498.92 1089 502.92 1089 506.92C1089 510.92 1080 526.92 1075 535.92C1070 544.92 1066 552.42 1066 555.42C1066 557.82 1066 581.753 1066 593.42C1064.67 595.92 1061.3 602.32 1058.5 607.92C1055 614.92 1048.5 621.42 1048.5 629.92C1048.5 638.42 1046 641.42 1043 645.92C1040 650.42 1030 678.92 1030 682.92C1030 686.12 1028.33 700.587 1027.5 707.42L1023 738.42ZM1170.5 635.92L1159 641.92C1158.83 644.087 1158.1 648.82 1156.5 650.42C1154.5 652.42 1142.5 658.92 1141.5 661.42C1140.5 663.92 1140.5 673.92 1137.5 676.42C1134.5 678.92 1121.5 687.92 1121.5 689.42C1121.5 690.92 1124 694.42 1121.5 699.42C1119 704.42 1116 714.92 1112 719.42C1108 723.92 1096 738.42 1095 740.42C1094 742.42 1090.5 746.42 1092 746.92C1093.5 747.42 1092 755.92 1095 754.92C1098 753.92 1095.5 752.42 1102 752.42C1108.5 752.42 1107.5 759.92 1116.5 754.92C1125.5 749.92 1147 731.42 1149 726.42C1151 721.42 1150 721.92 1151.5 719.42C1153 716.92 1159 709.92 1159 707.42C1159 704.92 1166 700.42 1166 696.92C1166 693.42 1165.5 691.92 1168 687.42C1170.5 682.92 1171.5 674.92 1173.5 672.92C1175.5 670.92 1177.5 666.92 1179.5 661.42C1181.5 655.92 1184 647.42 1184.5 645.92C1184.9 644.72 1186 638.753 1186.5 635.92V629.92L1182.5 635.92L1173.5 645.92V654.42L1168 664.92L1163.5 672.92L1156.5 680.92L1161 664.92L1163.5 658.42L1166 650.42L1170.5 635.92ZM1782 467V464L1778.5 457.5L1776 451L1774 444L1776 440.5C1776.17 440.5 1776.9 440.7 1778.5 441.5C1780.5 442.5 1780 444.5 1782 446C1783.6 447.2 1786 449.167 1787 450C1787 450.667 1787 452.3 1787 453.5C1787 454.7 1787.67 459.667 1788 462L1782 467ZM1789 445C1789.5 445 1790.7 444.1 1791.5 440.5C1792.5 436 1793.5 432 1794 430.5C1794.5 429 1798.5 423 1798.5 421C1798.5 419 1797 411 1796.5 411C1796 411 1793.5 404.5 1793 402C1792.5 399.5 1791.5 391 1791.5 389.5C1791.5 388 1789 382.5 1789 381C1789 379.8 1786.67 366.833 1785.5 360.5C1785 359 1783.9 356.3 1783.5 357.5C1783.1 358.7 1781 363.667 1780 366C1780 368.167 1780 372.9 1780 374.5C1780 376.5 1778.5 384 1778.5 385C1778.5 386 1777 392.5 1777 394C1777 395.5 1776 402 1776 403C1776 403.8 1773 409.667 1771.5 412.5L1769.5 422C1770.33 424.833 1772.2 430.7 1773 431.5C1773.8 432.3 1778 436.167 1780 438L1789 445ZM1796.5 399.5V392.5C1796 390.333 1794.8 385.8 1794 385C1793 384 1791.5 377 1791.5 375.5C1791.5 374.3 1789.83 370.333 1789 368.5V360.5C1790.33 360.5 1793 360.9 1793 362.5C1793 364.5 1793.5 367.5 1795 369.5C1796.2 371.1 1797.83 375.833 1798.5 378L1802 391.5V396.5L1796.5 399.5Z" stroke="#42413E" stroke-width="3"/>
<path d="M2349.34 1502.84V1387.68V1052.68V751.628V376.024V282.123V235.172V47.3703V0.4198" stroke="#42413E" stroke-width="3"/>
</g>
<defs>
<clipPath id="clip0_804_14">
<rect width="2615.11" height="1502.42" fill="white" transform="translate(0 0.420044)"/>
</clipPath>
</defs>
</svg>
