<svg width="1677" height="150" viewBox="0 0 1677 150" fill="none" xmlns="http://www.w3.org/2000/svg">
<path d="M10.5625 28H40.6875C47.5208 28 53.2917 29.0417 58 31.125C62.75 33.2083 66.3542 36.2917 68.8125 40.375C71.3125 44.4167 72.5625 49.3958 72.5625 55.3125C72.5625 59.4792 71.7083 63.2917 70 66.75C68.3333 70.1667 65.9167 73.0833 62.75 75.5C59.625 77.875 55.875 79.6458 51.5 80.8125L48.125 82.125H19.8125L19.6875 72.3125H41.0625C45.3958 72.3125 49 71.5625 51.875 70.0625C54.75 68.5208 56.9167 66.4583 58.375 63.875C59.8333 61.2917 60.5625 58.4375 60.5625 55.3125C60.5625 51.8125 59.875 48.75 58.5 46.125C57.125 43.5 54.9583 41.4792 52 40.0625C49.0833 38.6042 45.3125 37.875 40.6875 37.875H22.625V119H10.5625V28ZM63.75 119L41.625 77.75L54.1875 77.6875L76.625 118.25V119H63.75ZM147.25 109.188V119H99.0625V109.188H147.25ZM101.5 28V119H89.4375V28H101.5ZM140.875 67.125V76.9375H99.0625V67.125H140.875ZM146.625 28V37.875H99.0625V28H146.625ZM186.812 119H167.812L167.938 109.188H186.812C193.312 109.188 198.729 107.833 203.062 105.125C207.396 102.375 210.646 98.5417 212.812 93.625C215.021 88.6667 216.125 82.875 216.125 76.25V70.6875C216.125 65.4792 215.5 60.8542 214.25 56.8125C213 52.7292 211.167 49.2917 208.75 46.5C206.333 43.6667 203.375 41.5208 199.875 40.0625C196.417 38.6042 192.438 37.875 187.938 37.875H167.438V28H187.938C193.896 28 199.333 29 204.25 31C209.167 32.9583 213.396 35.8125 216.938 39.5625C220.521 43.2708 223.271 47.7708 225.188 53.0625C227.104 58.3125 228.062 64.2292 228.062 70.8125V76.25C228.062 82.8333 227.104 88.7708 225.188 94.0625C223.271 99.3125 220.5 103.792 216.875 107.5C213.292 111.208 208.958 114.062 203.875 116.062C198.833 118.021 193.146 119 186.812 119ZM174.25 28V119H162.188V28H174.25ZM304 109.188V119H255.812V109.188H304ZM258.25 28V119H246.188V28H258.25ZM297.625 67.125V76.9375H255.812V67.125H297.625ZM303.375 28V37.875H255.812V28H303.375ZM367.438 96C367.438 93.875 367.104 92 366.438 90.375C365.812 88.7083 364.688 87.2083 363.062 85.875C361.479 84.5417 359.271 83.2708 356.438 82.0625C353.646 80.8542 350.104 79.625 345.812 78.375C341.312 77.0417 337.25 75.5625 333.625 73.9375C330 72.2708 326.896 70.375 324.312 68.25C321.729 66.125 319.75 63.6875 318.375 60.9375C317 58.1875 316.312 55.0417 316.312 51.5C316.312 47.9583 317.042 44.6875 318.5 41.6875C319.958 38.6875 322.042 36.0833 324.75 33.875C327.5 31.625 330.771 29.875 334.562 28.625C338.354 27.375 342.583 26.75 347.25 26.75C354.083 26.75 359.875 28.0625 364.625 30.6875C369.417 33.2708 373.062 36.6667 375.562 40.875C378.062 45.0417 379.312 49.5 379.312 54.25H367.312C367.312 50.8333 366.583 47.8125 365.125 45.1875C363.667 42.5208 361.458 40.4375 358.5 38.9375C355.542 37.3958 351.792 36.625 347.25 36.625C342.958 36.625 339.417 37.2708 336.625 38.5625C333.833 39.8542 331.75 41.6042 330.375 43.8125C329.042 46.0208 328.375 48.5417 328.375 51.375C328.375 53.2917 328.771 55.0417 329.562 56.625C330.396 58.1667 331.667 59.6042 333.375 60.9375C335.125 62.2708 337.333 63.5 340 64.625C342.708 65.75 345.938 66.8333 349.688 67.875C354.854 69.3333 359.312 70.9583 363.062 72.75C366.812 74.5417 369.896 76.5625 372.312 78.8125C374.771 81.0208 376.583 83.5417 377.75 86.375C378.958 89.1667 379.562 92.3333 379.562 95.875C379.562 99.5833 378.812 102.938 377.312 105.938C375.812 108.938 373.667 111.5 370.875 113.625C368.083 115.75 364.729 117.396 360.812 118.562C356.938 119.688 352.604 120.25 347.812 120.25C343.604 120.25 339.458 119.667 335.375 118.5C331.333 117.333 327.646 115.583 324.312 113.25C321.021 110.917 318.375 108.042 316.375 104.625C314.417 101.167 313.438 97.1667 313.438 92.625H325.438C325.438 95.75 326.042 98.4375 327.25 100.688C328.458 102.896 330.104 104.729 332.188 106.188C334.312 107.646 336.708 108.729 339.375 109.438C342.083 110.104 344.896 110.438 347.812 110.438C352.021 110.438 355.583 109.854 358.5 108.688C361.417 107.521 363.625 105.854 365.125 103.688C366.667 101.521 367.438 98.9583 367.438 96ZM475.188 96C475.188 93.875 474.854 92 474.188 90.375C473.562 88.7083 472.438 87.2083 470.812 85.875C469.229 84.5417 467.021 83.2708 464.188 82.0625C461.396 80.8542 457.854 79.625 453.562 78.375C449.062 77.0417 445 75.5625 441.375 73.9375C437.75 72.2708 434.646 70.375 432.062 68.25C429.479 66.125 427.5 63.6875 426.125 60.9375C424.75 58.1875 424.062 55.0417 424.062 51.5C424.062 47.9583 424.792 44.6875 426.25 41.6875C427.708 38.6875 429.792 36.0833 432.5 33.875C435.25 31.625 438.521 29.875 442.312 28.625C446.104 27.375 450.333 26.75 455 26.75C461.833 26.75 467.625 28.0625 472.375 30.6875C477.167 33.2708 480.812 36.6667 483.312 40.875C485.812 45.0417 487.062 49.5 487.062 54.25H475.062C475.062 50.8333 474.333 47.8125 472.875 45.1875C471.417 42.5208 469.208 40.4375 466.25 38.9375C463.292 37.3958 459.542 36.625 455 36.625C450.708 36.625 447.167 37.2708 444.375 38.5625C441.583 39.8542 439.5 41.6042 438.125 43.8125C436.792 46.0208 436.125 48.5417 436.125 51.375C436.125 53.2917 436.521 55.0417 437.312 56.625C438.146 58.1667 439.417 59.6042 441.125 60.9375C442.875 62.2708 445.083 63.5 447.75 64.625C450.458 65.75 453.688 66.8333 457.438 67.875C462.604 69.3333 467.062 70.9583 470.812 72.75C474.562 74.5417 477.646 76.5625 480.062 78.8125C482.521 81.0208 484.333 83.5417 485.5 86.375C486.708 89.1667 487.312 92.3333 487.312 95.875C487.312 99.5833 486.562 102.938 485.062 105.938C483.562 108.938 481.417 111.5 478.625 113.625C475.833 115.75 472.479 117.396 468.562 118.562C464.688 119.688 460.354 120.25 455.562 120.25C451.354 120.25 447.208 119.667 443.125 118.5C439.083 117.333 435.396 115.583 432.062 113.25C428.771 110.917 426.125 108.042 424.125 104.625C422.167 101.167 421.188 97.1667 421.188 92.625H433.188C433.188 95.75 433.792 98.4375 435 100.688C436.208 102.896 437.854 104.729 439.938 106.188C442.062 107.646 444.458 108.729 447.125 109.438C449.833 110.104 452.646 110.438 455.562 110.438C459.771 110.438 463.333 109.854 466.25 108.688C469.167 107.521 471.375 105.854 472.875 103.688C474.417 101.521 475.188 98.9583 475.188 96ZM572.75 70.625V76.375C572.75 83.2083 571.896 89.3333 570.188 94.75C568.479 100.167 566.021 104.771 562.812 108.562C559.604 112.354 555.75 115.25 551.25 117.25C546.792 119.25 541.792 120.25 536.25 120.25C530.875 120.25 525.938 119.25 521.438 117.25C516.979 115.25 513.104 112.354 509.812 108.562C506.562 104.771 504.042 100.167 502.25 94.75C500.458 89.3333 499.562 83.2083 499.562 76.375V70.625C499.562 63.7917 500.438 57.6875 502.188 52.3125C503.979 46.8958 506.5 42.2917 509.75 38.5C513 34.6667 516.854 31.75 521.312 29.75C525.812 27.75 530.75 26.75 536.125 26.75C541.667 26.75 546.667 27.75 551.125 29.75C555.625 31.75 559.479 34.6667 562.688 38.5C565.938 42.2917 568.417 46.8958 570.125 52.3125C571.875 57.6875 572.75 63.7917 572.75 70.625ZM560.812 76.375V70.5C560.812 65.0833 560.25 60.2917 559.125 56.125C558.042 51.9583 556.438 48.4583 554.312 45.625C552.188 42.7917 549.583 40.6458 546.5 39.1875C543.458 37.7292 540 37 536.125 37C532.375 37 528.979 37.7292 525.938 39.1875C522.938 40.6458 520.354 42.7917 518.188 45.625C516.062 48.4583 514.417 51.9583 513.25 56.125C512.083 60.2917 511.5 65.0833 511.5 70.5V76.375C511.5 81.8333 512.083 86.6667 513.25 90.875C514.417 95.0417 516.083 98.5625 518.25 101.438C520.458 104.271 523.062 106.417 526.062 107.875C529.104 109.333 532.5 110.062 536.25 110.062C540.167 110.062 543.646 109.333 546.688 107.875C549.729 106.417 552.292 104.271 554.375 101.438C556.5 98.5625 558.104 95.0417 559.188 90.875C560.271 86.6667 560.812 81.8333 560.812 76.375ZM645.75 90.0625H657.75C657.125 95.8125 655.479 100.958 652.812 105.5C650.146 110.042 646.375 113.646 641.5 116.312C636.625 118.938 630.542 120.25 623.25 120.25C617.917 120.25 613.062 119.25 608.688 117.25C604.354 115.25 600.625 112.417 597.5 108.75C594.375 105.042 591.958 100.604 590.25 95.4375C588.583 90.2292 587.75 84.4375 587.75 78.0625V69C587.75 62.625 588.583 56.8542 590.25 51.6875C591.958 46.4792 594.396 42.0208 597.562 38.3125C600.771 34.6042 604.625 31.75 609.125 29.75C613.625 27.75 618.688 26.75 624.312 26.75C631.188 26.75 637 28.0417 641.75 30.625C646.5 33.2083 650.188 36.7917 652.812 41.375C655.479 45.9167 657.125 51.1875 657.75 57.1875H645.75C645.167 52.9375 644.083 49.2917 642.5 46.25C640.917 43.1667 638.667 40.7917 635.75 39.125C632.833 37.4583 629.021 36.625 624.312 36.625C620.271 36.625 616.708 37.3958 613.625 38.9375C610.583 40.4792 608.021 42.6667 605.938 45.5C603.896 48.3333 602.354 51.7292 601.312 55.6875C600.271 59.6458 599.75 64.0417 599.75 68.875V78.0625C599.75 82.5208 600.208 86.7083 601.125 90.625C602.083 94.5417 603.521 97.9792 605.438 100.938C607.354 103.896 609.792 106.229 612.75 107.938C615.708 109.604 619.208 110.438 623.25 110.438C628.375 110.438 632.458 109.625 635.5 108C638.542 106.375 640.833 104.042 642.375 101C643.958 97.9583 645.083 94.3125 645.75 90.0625ZM687.125 28V119H675.062V28H687.125ZM743.875 36.0625L713.75 119H701.438L736.125 28H744.062L743.875 36.0625ZM769.125 119L738.938 36.0625L738.75 28H746.688L781.5 119H769.125ZM767.562 85.3125V95.1875H716.438V85.3125H767.562ZM806.625 28V119H794.562V28H806.625ZM877.062 96C877.062 93.875 876.729 92 876.062 90.375C875.438 88.7083 874.312 87.2083 872.688 85.875C871.104 84.5417 868.896 83.2708 866.062 82.0625C863.271 80.8542 859.729 79.625 855.438 78.375C850.938 77.0417 846.875 75.5625 843.25 73.9375C839.625 72.2708 836.521 70.375 833.938 68.25C831.354 66.125 829.375 63.6875 828 60.9375C826.625 58.1875 825.938 55.0417 825.938 51.5C825.938 47.9583 826.667 44.6875 828.125 41.6875C829.583 38.6875 831.667 36.0833 834.375 33.875C837.125 31.625 840.396 29.875 844.188 28.625C847.979 27.375 852.208 26.75 856.875 26.75C863.708 26.75 869.5 28.0625 874.25 30.6875C879.042 33.2708 882.688 36.6667 885.188 40.875C887.688 45.0417 888.938 49.5 888.938 54.25H876.938C876.938 50.8333 876.208 47.8125 874.75 45.1875C873.292 42.5208 871.083 40.4375 868.125 38.9375C865.167 37.3958 861.417 36.625 856.875 36.625C852.583 36.625 849.042 37.2708 846.25 38.5625C843.458 39.8542 841.375 41.6042 840 43.8125C838.667 46.0208 838 48.5417 838 51.375C838 53.2917 838.396 55.0417 839.188 56.625C840.021 58.1667 841.292 59.6042 843 60.9375C844.75 62.2708 846.958 63.5 849.625 64.625C852.333 65.75 855.562 66.8333 859.312 67.875C864.479 69.3333 868.938 70.9583 872.688 72.75C876.438 74.5417 879.521 76.5625 881.938 78.8125C884.396 81.0208 886.208 83.5417 887.375 86.375C888.583 89.1667 889.188 92.3333 889.188 95.875C889.188 99.5833 888.438 102.938 886.938 105.938C885.438 108.938 883.292 111.5 880.5 113.625C877.708 115.75 874.354 117.396 870.438 118.562C866.562 119.688 862.229 120.25 857.438 120.25C853.229 120.25 849.083 119.667 845 118.5C840.958 117.333 837.271 115.583 833.938 113.25C830.646 110.917 828 108.042 826 104.625C824.042 101.167 823.062 97.1667 823.062 92.625H835.062C835.062 95.75 835.667 98.4375 836.875 100.688C838.083 102.896 839.729 104.729 841.812 106.188C843.938 107.646 846.333 108.729 849 109.438C851.708 110.104 854.521 110.438 857.438 110.438C861.646 110.438 865.208 109.854 868.125 108.688C871.042 107.521 873.25 105.854 874.75 103.688C876.292 101.521 877.062 98.9583 877.062 96ZM994.125 109.188V119H945.938V109.188H994.125ZM948.375 28V119H936.312V28H948.375ZM987.75 67.125V76.9375H945.938V67.125H987.75ZM993.5 28V37.875H945.938V28H993.5ZM1095.75 90.0625H1107.75C1107.12 95.8125 1105.48 100.958 1102.81 105.5C1100.15 110.042 1096.38 113.646 1091.5 116.312C1086.62 118.938 1080.54 120.25 1073.25 120.25C1067.92 120.25 1063.06 119.25 1058.69 117.25C1054.35 115.25 1050.62 112.417 1047.5 108.75C1044.38 105.042 1041.96 100.604 1040.25 95.4375C1038.58 90.2292 1037.75 84.4375 1037.75 78.0625V69C1037.75 62.625 1038.58 56.8542 1040.25 51.6875C1041.96 46.4792 1044.4 42.0208 1047.56 38.3125C1050.77 34.6042 1054.62 31.75 1059.12 29.75C1063.62 27.75 1068.69 26.75 1074.31 26.75C1081.19 26.75 1087 28.0417 1091.75 30.625C1096.5 33.2083 1100.19 36.7917 1102.81 41.375C1105.48 45.9167 1107.12 51.1875 1107.75 57.1875H1095.75C1095.17 52.9375 1094.08 49.2917 1092.5 46.25C1090.92 43.1667 1088.67 40.7917 1085.75 39.125C1082.83 37.4583 1079.02 36.625 1074.31 36.625C1070.27 36.625 1066.71 37.3958 1063.62 38.9375C1060.58 40.4792 1058.02 42.6667 1055.94 45.5C1053.9 48.3333 1052.35 51.7292 1051.31 55.6875C1050.27 59.6458 1049.75 64.0417 1049.75 68.875V78.0625C1049.75 82.5208 1050.21 86.7083 1051.12 90.625C1052.08 94.5417 1053.52 97.9792 1055.44 100.938C1057.35 103.896 1059.79 106.229 1062.75 107.938C1065.71 109.604 1069.21 110.438 1073.25 110.438C1078.38 110.438 1082.46 109.625 1085.5 108C1088.54 106.375 1090.83 104.042 1092.38 101C1093.96 97.9583 1095.08 94.3125 1095.75 90.0625ZM1194.25 70.625V76.375C1194.25 83.2083 1193.4 89.3333 1191.69 94.75C1189.98 100.167 1187.52 104.771 1184.31 108.562C1181.1 112.354 1177.25 115.25 1172.75 117.25C1168.29 119.25 1163.29 120.25 1157.75 120.25C1152.38 120.25 1147.44 119.25 1142.94 117.25C1138.48 115.25 1134.6 112.354 1131.31 108.562C1128.06 104.771 1125.54 100.167 1123.75 94.75C1121.96 89.3333 1121.06 83.2083 1121.06 76.375V70.625C1121.06 63.7917 1121.94 57.6875 1123.69 52.3125C1125.48 46.8958 1128 42.2917 1131.25 38.5C1134.5 34.6667 1138.35 31.75 1142.81 29.75C1147.31 27.75 1152.25 26.75 1157.62 26.75C1163.17 26.75 1168.17 27.75 1172.62 29.75C1177.12 31.75 1180.98 34.6667 1184.19 38.5C1187.44 42.2917 1189.92 46.8958 1191.62 52.3125C1193.38 57.6875 1194.25 63.7917 1194.25 70.625ZM1182.31 76.375V70.5C1182.31 65.0833 1181.75 60.2917 1180.62 56.125C1179.54 51.9583 1177.94 48.4583 1175.81 45.625C1173.69 42.7917 1171.08 40.6458 1168 39.1875C1164.96 37.7292 1161.5 37 1157.62 37C1153.88 37 1150.48 37.7292 1147.44 39.1875C1144.44 40.6458 1141.85 42.7917 1139.69 45.625C1137.56 48.4583 1135.92 51.9583 1134.75 56.125C1133.58 60.2917 1133 65.0833 1133 70.5V76.375C1133 81.8333 1133.58 86.6667 1134.75 90.875C1135.92 95.0417 1137.58 98.5625 1139.75 101.438C1141.96 104.271 1144.56 106.417 1147.56 107.875C1150.6 109.333 1154 110.062 1157.75 110.062C1161.67 110.062 1165.15 109.333 1168.19 107.875C1171.23 106.417 1173.79 104.271 1175.88 101.438C1178 98.5625 1179.6 95.0417 1180.69 90.875C1181.77 86.6667 1182.31 81.8333 1182.31 76.375ZM1282.31 28V119H1270.19L1224.38 48.8125V119H1212.31V28H1224.38L1270.38 98.375V28H1282.31ZM1335.44 28V119H1323.56V28H1335.44ZM1364.69 28V37.875H1294.38V28H1364.69ZM1406.88 36.0625L1376.75 119H1364.44L1399.12 28H1407.06L1406.88 36.0625ZM1432.12 119L1401.94 36.0625L1401.75 28H1409.69L1444.5 119H1432.12ZM1430.56 85.3125V95.1875H1379.44V85.3125H1430.56ZM1482.19 28V119H1470.31V28H1482.19ZM1511.44 28V37.875H1441.12V28H1511.44ZM1593.25 70.625V76.375C1593.25 83.2083 1592.4 89.3333 1590.69 94.75C1588.98 100.167 1586.52 104.771 1583.31 108.562C1580.1 112.354 1576.25 115.25 1571.75 117.25C1567.29 119.25 1562.29 120.25 1556.75 120.25C1551.38 120.25 1546.44 119.25 1541.94 117.25C1537.48 115.25 1533.6 112.354 1530.31 108.562C1527.06 104.771 1524.54 100.167 1522.75 94.75C1520.96 89.3333 1520.06 83.2083 1520.06 76.375V70.625C1520.06 63.7917 1520.94 57.6875 1522.69 52.3125C1524.48 46.8958 1527 42.2917 1530.25 38.5C1533.5 34.6667 1537.35 31.75 1541.81 29.75C1546.31 27.75 1551.25 26.75 1556.62 26.75C1562.17 26.75 1567.17 27.75 1571.62 29.75C1576.12 31.75 1579.98 34.6667 1583.19 38.5C1586.44 42.2917 1588.92 46.8958 1590.62 52.3125C1592.38 57.6875 1593.25 63.7917 1593.25 70.625ZM1581.31 76.375V70.5C1581.31 65.0833 1580.75 60.2917 1579.62 56.125C1578.54 51.9583 1576.94 48.4583 1574.81 45.625C1572.69 42.7917 1570.08 40.6458 1567 39.1875C1563.96 37.7292 1560.5 37 1556.62 37C1552.88 37 1549.48 37.7292 1546.44 39.1875C1543.44 40.6458 1540.85 42.7917 1538.69 45.625C1536.56 48.4583 1534.92 51.9583 1533.75 56.125C1532.58 60.2917 1532 65.0833 1532 70.5V76.375C1532 81.8333 1532.58 86.6667 1533.75 90.875C1534.92 95.0417 1536.58 98.5625 1538.75 101.438C1540.96 104.271 1543.56 106.417 1546.56 107.875C1549.6 109.333 1553 110.062 1556.75 110.062C1560.67 110.062 1564.15 109.333 1567.19 107.875C1570.23 106.417 1572.79 104.271 1574.88 101.438C1577 98.5625 1578.6 95.0417 1579.69 90.875C1580.77 86.6667 1581.31 81.8333 1581.31 76.375ZM1659.81 96C1659.81 93.875 1659.48 92 1658.81 90.375C1658.19 88.7083 1657.06 87.2083 1655.44 85.875C1653.85 84.5417 1651.65 83.2708 1648.81 82.0625C1646.02 80.8542 1642.48 79.625 1638.19 78.375C1633.69 77.0417 1629.62 75.5625 1626 73.9375C1622.38 72.2708 1619.27 70.375 1616.69 68.25C1614.1 66.125 1612.12 63.6875 1610.75 60.9375C1609.38 58.1875 1608.69 55.0417 1608.69 51.5C1608.69 47.9583 1609.42 44.6875 1610.88 41.6875C1612.33 38.6875 1614.42 36.0833 1617.12 33.875C1619.88 31.625 1623.15 29.875 1626.94 28.625C1630.73 27.375 1634.96 26.75 1639.62 26.75C1646.46 26.75 1652.25 28.0625 1657 30.6875C1661.79 33.2708 1665.44 36.6667 1667.94 40.875C1670.44 45.0417 1671.69 49.5 1671.69 54.25H1659.69C1659.69 50.8333 1658.96 47.8125 1657.5 45.1875C1656.04 42.5208 1653.83 40.4375 1650.88 38.9375C1647.92 37.3958 1644.17 36.625 1639.62 36.625C1635.33 36.625 1631.79 37.2708 1629 38.5625C1626.21 39.8542 1624.12 41.6042 1622.75 43.8125C1621.42 46.0208 1620.75 48.5417 1620.75 51.375C1620.75 53.2917 1621.15 55.0417 1621.94 56.625C1622.77 58.1667 1624.04 59.6042 1625.75 60.9375C1627.5 62.2708 1629.71 63.5 1632.38 64.625C1635.08 65.75 1638.31 66.8333 1642.06 67.875C1647.23 69.3333 1651.69 70.9583 1655.44 72.75C1659.19 74.5417 1662.27 76.5625 1664.69 78.8125C1667.15 81.0208 1668.96 83.5417 1670.12 86.375C1671.33 89.1667 1671.94 92.3333 1671.94 95.875C1671.94 99.5833 1671.19 102.938 1669.69 105.938C1668.19 108.938 1666.04 111.5 1663.25 113.625C1660.46 115.75 1657.1 117.396 1653.19 118.562C1649.31 119.688 1644.98 120.25 1640.19 120.25C1635.98 120.25 1631.83 119.667 1627.75 118.5C1623.71 117.333 1620.02 115.583 1616.69 113.25C1613.4 110.917 1610.75 108.042 1608.75 104.625C1606.79 101.167 1605.81 97.1667 1605.81 92.625H1617.81C1617.81 95.75 1618.42 98.4375 1619.62 100.688C1620.83 102.896 1622.48 104.729 1624.56 106.188C1626.69 107.646 1629.08 108.729 1631.75 109.438C1634.46 110.104 1637.27 110.438 1640.19 110.438C1644.4 110.438 1647.96 109.854 1650.88 108.688C1653.79 107.521 1656 105.854 1657.5 103.688C1659.04 101.521 1659.81 98.9583 1659.81 96Z" fill="black"/>
<path d="M10.4679 135H209.5V150H10.4679V135Z" fill="black"/>
</svg>
