<svg width="1004" height="150" viewBox="0 0 1004 150" fill="none" xmlns="http://www.w3.org/2000/svg">
<path d="M44.25 36.0625L14.125 119H1.8125L36.5 28H44.4375L44.25 36.0625ZM69.5 119L39.3125 36.0625L39.125 28H47.0625L81.875 119H69.5ZM67.9375 85.3125V95.1875H16.8125V85.3125H67.9375ZM94.0625 28H124.188C131.021 28 136.792 29.0417 141.5 31.125C146.25 33.2083 149.854 36.2917 152.312 40.375C154.812 44.4167 156.062 49.3958 156.062 55.3125C156.062 59.4792 155.208 63.2917 153.5 66.75C151.833 70.1667 149.417 73.0833 146.25 75.5C143.125 77.875 139.375 79.6458 135 80.8125L131.625 82.125H103.312L103.188 72.3125H124.562C128.896 72.3125 132.5 71.5625 135.375 70.0625C138.25 68.5208 140.417 66.4583 141.875 63.875C143.333 61.2917 144.062 58.4375 144.062 55.3125C144.062 51.8125 143.375 48.75 142 46.125C140.625 43.5 138.458 41.4792 135.5 40.0625C132.583 38.6042 128.812 37.875 124.188 37.875H106.125V119H94.0625V28ZM147.25 119L125.125 77.75L137.688 77.6875L160.125 118.25V119H147.25ZM201.562 28V119H189.688V28H201.562ZM230.812 28V37.875H160.5V28H230.812ZM257.25 28V119H245.188V28H257.25ZM346.438 73.6875V107C345.312 108.667 343.521 110.542 341.062 112.625C338.604 114.667 335.208 116.458 330.875 118C326.583 119.5 321.042 120.25 314.25 120.25C308.708 120.25 303.604 119.292 298.938 117.375C294.312 115.417 290.292 112.583 286.875 108.875C283.5 105.125 280.875 100.583 279 95.25C277.167 89.875 276.25 83.7917 276.25 77V69.9375C276.25 63.1458 277.042 57.0833 278.625 51.75C280.25 46.4167 282.625 41.8958 285.75 38.1875C288.875 34.4375 292.708 31.6042 297.25 29.6875C301.792 27.7292 307 26.75 312.875 26.75C319.833 26.75 325.646 27.9583 330.312 30.375C335.021 32.75 338.688 36.0417 341.312 40.25C343.979 44.4583 345.688 49.25 346.438 54.625H334.375C333.833 51.3333 332.75 48.3333 331.125 45.625C329.542 42.9167 327.271 40.75 324.312 39.125C321.354 37.4583 317.542 36.625 312.875 36.625C308.667 36.625 305.021 37.3958 301.938 38.9375C298.854 40.4792 296.312 42.6875 294.312 45.5625C292.312 48.4375 290.812 51.9167 289.812 56C288.854 60.0833 288.375 64.6875 288.375 69.8125V77C288.375 82.25 288.979 86.9375 290.188 91.0625C291.438 95.1875 293.208 98.7083 295.5 101.625C297.792 104.5 300.521 106.688 303.688 108.188C306.896 109.688 310.438 110.438 314.312 110.438C318.604 110.438 322.083 110.083 324.75 109.375C327.417 108.625 329.5 107.75 331 106.75C332.5 105.708 333.646 104.729 334.438 103.812V83.4375H313.375V73.6875H346.438ZM436.5 70.625V76.375C436.5 83.2083 435.646 89.3333 433.938 94.75C432.229 100.167 429.771 104.771 426.562 108.562C423.354 112.354 419.5 115.25 415 117.25C410.542 119.25 405.542 120.25 400 120.25C394.625 120.25 389.688 119.25 385.188 117.25C380.729 115.25 376.854 112.354 373.562 108.562C370.312 104.771 367.792 100.167 366 94.75C364.208 89.3333 363.312 83.2083 363.312 76.375V70.625C363.312 63.7917 364.188 57.6875 365.938 52.3125C367.729 46.8958 370.25 42.2917 373.5 38.5C376.75 34.6667 380.604 31.75 385.062 29.75C389.562 27.75 394.5 26.75 399.875 26.75C405.417 26.75 410.417 27.75 414.875 29.75C419.375 31.75 423.229 34.6667 426.438 38.5C429.688 42.2917 432.167 46.8958 433.875 52.3125C435.625 57.6875 436.5 63.7917 436.5 70.625ZM424.562 76.375V70.5C424.562 65.0833 424 60.2917 422.875 56.125C421.792 51.9583 420.188 48.4583 418.062 45.625C415.938 42.7917 413.333 40.6458 410.25 39.1875C407.208 37.7292 403.75 37 399.875 37C396.125 37 392.729 37.7292 389.688 39.1875C386.688 40.6458 384.104 42.7917 381.938 45.625C379.812 48.4583 378.167 51.9583 377 56.125C375.833 60.2917 375.25 65.0833 375.25 70.5V76.375C375.25 81.8333 375.833 86.6667 377 90.875C378.167 95.0417 379.833 98.5625 382 101.438C384.208 104.271 386.812 106.417 389.812 107.875C392.854 109.333 396.25 110.062 400 110.062C403.917 110.062 407.396 109.333 410.438 107.875C413.479 106.417 416.042 104.271 418.125 101.438C420.25 98.5625 421.854 95.0417 422.938 90.875C424.021 86.6667 424.562 81.8333 424.562 76.375ZM503.062 96C503.062 93.875 502.729 92 502.062 90.375C501.438 88.7083 500.312 87.2083 498.688 85.875C497.104 84.5417 494.896 83.2708 492.062 82.0625C489.271 80.8542 485.729 79.625 481.438 78.375C476.938 77.0417 472.875 75.5625 469.25 73.9375C465.625 72.2708 462.521 70.375 459.938 68.25C457.354 66.125 455.375 63.6875 454 60.9375C452.625 58.1875 451.938 55.0417 451.938 51.5C451.938 47.9583 452.667 44.6875 454.125 41.6875C455.583 38.6875 457.667 36.0833 460.375 33.875C463.125 31.625 466.396 29.875 470.188 28.625C473.979 27.375 478.208 26.75 482.875 26.75C489.708 26.75 495.5 28.0625 500.25 30.6875C505.042 33.2708 508.688 36.6667 511.188 40.875C513.688 45.0417 514.938 49.5 514.938 54.25H502.938C502.938 50.8333 502.208 47.8125 500.75 45.1875C499.292 42.5208 497.083 40.4375 494.125 38.9375C491.167 37.3958 487.417 36.625 482.875 36.625C478.583 36.625 475.042 37.2708 472.25 38.5625C469.458 39.8542 467.375 41.6042 466 43.8125C464.667 46.0208 464 48.5417 464 51.375C464 53.2917 464.396 55.0417 465.188 56.625C466.021 58.1667 467.292 59.6042 469 60.9375C470.75 62.2708 472.958 63.5 475.625 64.625C478.333 65.75 481.562 66.8333 485.312 67.875C490.479 69.3333 494.938 70.9583 498.688 72.75C502.438 74.5417 505.521 76.5625 507.938 78.8125C510.396 81.0208 512.208 83.5417 513.375 86.375C514.583 89.1667 515.188 92.3333 515.188 95.875C515.188 99.5833 514.438 102.938 512.938 105.938C511.438 108.938 509.292 111.5 506.5 113.625C503.708 115.75 500.354 117.396 496.438 118.562C492.562 119.688 488.229 120.25 483.438 120.25C479.229 120.25 475.083 119.667 471 118.5C466.958 117.333 463.271 115.583 459.938 113.25C456.646 110.917 454 108.042 452 104.625C450.042 101.167 449.062 97.1667 449.062 92.625H461.062C461.062 95.75 461.667 98.4375 462.875 100.688C464.083 102.896 465.729 104.729 467.812 106.188C469.938 107.646 472.333 108.729 475 109.438C477.708 110.104 480.521 110.438 483.438 110.438C487.646 110.438 491.208 109.854 494.125 108.688C497.042 107.521 499.25 105.854 500.75 103.688C502.292 101.521 503.062 98.9583 503.062 96ZM620.125 109.188V119H571.938V109.188H620.125ZM574.375 28V119H562.312V28H574.375ZM613.75 67.125V76.9375H571.938V67.125H613.75ZM619.5 28V37.875H571.938V28H619.5ZM638.875 28H650.562L680.375 102.188L710.125 28H721.875L684.875 119H675.75L638.875 28ZM635.062 28H645.375L647.062 83.5V119H635.062V28ZM715.312 28H725.625V119H713.625V83.5L715.312 28ZM812.125 83.3125H787.812V73.5H812.125C816.833 73.5 820.646 72.75 823.562 71.25C826.479 69.75 828.604 67.6667 829.938 65C831.312 62.3333 832 59.2917 832 55.875C832 52.75 831.312 49.8125 829.938 47.0625C828.604 44.3125 826.479 42.1042 823.562 40.4375C820.646 38.7292 816.833 37.875 812.125 37.875H790.625V119H778.562V28H812.125C819 28 824.812 29.1875 829.562 31.5625C834.312 33.9375 837.917 37.2292 840.375 41.4375C842.833 45.6042 844.062 50.375 844.062 55.75C844.062 61.5833 842.833 66.5625 840.375 70.6875C837.917 74.8125 834.312 77.9583 829.562 80.125C824.812 82.25 819 83.3125 812.125 83.3125ZM883.938 119H864.938L865.062 109.188H883.938C890.438 109.188 895.854 107.833 900.188 105.125C904.521 102.375 907.771 98.5417 909.938 93.625C912.146 88.6667 913.25 82.875 913.25 76.25V70.6875C913.25 65.4792 912.625 60.8542 911.375 56.8125C910.125 52.7292 908.292 49.2917 905.875 46.5C903.458 43.6667 900.5 41.5208 897 40.0625C893.542 38.6042 889.562 37.875 885.062 37.875H864.562V28H885.062C891.021 28 896.458 29 901.375 31C906.292 32.9583 910.521 35.8125 914.062 39.5625C917.646 43.2708 920.396 47.7708 922.312 53.0625C924.229 58.3125 925.188 64.2292 925.188 70.8125V76.25C925.188 82.8333 924.229 88.7708 922.312 94.0625C920.396 99.3125 917.625 103.792 914 107.5C910.417 111.208 906.083 114.062 901 116.062C895.958 118.021 890.271 119 883.938 119ZM871.375 28V119H859.312V28H871.375ZM955.375 28V119H943.312V28H955.375ZM993.5 68.9375V78.8125H952.75V68.9375H993.5ZM999.688 28V37.875H952.75V28H999.688Z" fill="black"/>
<path d="M0 135H199.032V150H0V135Z" fill="black"/>
</svg>
