<svg width="670" height="150" viewBox="0 0 670 150" fill="none" xmlns="http://www.w3.org/2000/svg">
<path d="M44.125 83.3125H19.8125V73.5H44.125C48.8333 73.5 52.6458 72.75 55.5625 71.25C58.4792 69.75 60.6042 67.6667 61.9375 65C63.3125 62.3333 64 59.2917 64 55.875C64 52.75 63.3125 49.8125 61.9375 47.0625C60.6042 44.3125 58.4792 42.1042 55.5625 40.4375C52.6458 38.7292 48.8333 37.875 44.125 37.875H22.625V119H10.5625V28H44.125C51 28 56.8125 29.1875 61.5625 31.5625C66.3125 33.9375 69.9167 37.2292 72.375 41.4375C74.8333 45.6042 76.0625 50.375 76.0625 55.75C76.0625 61.5833 74.8333 66.5625 72.375 70.6875C69.9167 74.8125 66.3125 77.9583 61.5625 80.125C56.8125 82.25 51 83.3125 44.125 83.3125ZM161.375 70.625V76.375C161.375 83.2083 160.521 89.3333 158.812 94.75C157.104 100.167 154.646 104.771 151.438 108.562C148.229 112.354 144.375 115.25 139.875 117.25C135.417 119.25 130.417 120.25 124.875 120.25C119.5 120.25 114.562 119.25 110.062 117.25C105.604 115.25 101.729 112.354 98.4375 108.562C95.1875 104.771 92.6667 100.167 90.875 94.75C89.0833 89.3333 88.1875 83.2083 88.1875 76.375V70.625C88.1875 63.7917 89.0625 57.6875 90.8125 52.3125C92.6042 46.8958 95.125 42.2917 98.375 38.5C101.625 34.6667 105.479 31.75 109.938 29.75C114.438 27.75 119.375 26.75 124.75 26.75C130.292 26.75 135.292 27.75 139.75 29.75C144.25 31.75 148.104 34.6667 151.312 38.5C154.562 42.2917 157.042 46.8958 158.75 52.3125C160.5 57.6875 161.375 63.7917 161.375 70.625ZM149.438 76.375V70.5C149.438 65.0833 148.875 60.2917 147.75 56.125C146.667 51.9583 145.062 48.4583 142.938 45.625C140.812 42.7917 138.208 40.6458 135.125 39.1875C132.083 37.7292 128.625 37 124.75 37C121 37 117.604 37.7292 114.562 39.1875C111.562 40.6458 108.979 42.7917 106.812 45.625C104.688 48.4583 103.042 51.9583 101.875 56.125C100.708 60.2917 100.125 65.0833 100.125 70.5V76.375C100.125 81.8333 100.708 86.6667 101.875 90.875C103.042 95.0417 104.708 98.5625 106.875 101.438C109.083 104.271 111.688 106.417 114.688 107.875C117.729 109.333 121.125 110.062 124.875 110.062C128.792 110.062 132.271 109.333 135.312 107.875C138.354 106.417 140.917 104.271 143 101.438C145.125 98.5625 146.729 95.0417 147.812 90.875C148.896 86.6667 149.438 81.8333 149.438 76.375ZM179.438 28H209.562C216.396 28 222.167 29.0417 226.875 31.125C231.625 33.2083 235.229 36.2917 237.688 40.375C240.188 44.4167 241.438 49.3958 241.438 55.3125C241.438 59.4792 240.583 63.2917 238.875 66.75C237.208 70.1667 234.792 73.0833 231.625 75.5C228.5 77.875 224.75 79.6458 220.375 80.8125L217 82.125H188.688L188.562 72.3125H209.938C214.271 72.3125 217.875 71.5625 220.75 70.0625C223.625 68.5208 225.792 66.4583 227.25 63.875C228.708 61.2917 229.438 58.4375 229.438 55.3125C229.438 51.8125 228.75 48.75 227.375 46.125C226 43.5 223.833 41.4792 220.875 40.0625C217.958 38.6042 214.188 37.875 209.562 37.875H191.5V119H179.438V28ZM232.625 119L210.5 77.75L223.062 77.6875L245.5 118.25V119H232.625ZM286.938 28V119H275.062V28H286.938ZM316.188 28V37.875H245.875V28H316.188ZM341.75 28V119H329.688V28H341.75ZM379.875 68.9375V78.8125H339.125V68.9375H379.875ZM386.062 28V37.875H339.125V28H386.062ZM470.5 70.625V76.375C470.5 83.2083 469.646 89.3333 467.938 94.75C466.229 100.167 463.771 104.771 460.562 108.562C457.354 112.354 453.5 115.25 449 117.25C444.542 119.25 439.542 120.25 434 120.25C428.625 120.25 423.688 119.25 419.188 117.25C414.729 115.25 410.854 112.354 407.562 108.562C404.312 104.771 401.792 100.167 400 94.75C398.208 89.3333 397.312 83.2083 397.312 76.375V70.625C397.312 63.7917 398.188 57.6875 399.938 52.3125C401.729 46.8958 404.25 42.2917 407.5 38.5C410.75 34.6667 414.604 31.75 419.062 29.75C423.562 27.75 428.5 26.75 433.875 26.75C439.417 26.75 444.417 27.75 448.875 29.75C453.375 31.75 457.229 34.6667 460.438 38.5C463.688 42.2917 466.167 46.8958 467.875 52.3125C469.625 57.6875 470.5 63.7917 470.5 70.625ZM458.562 76.375V70.5C458.562 65.0833 458 60.2917 456.875 56.125C455.792 51.9583 454.188 48.4583 452.062 45.625C449.938 42.7917 447.333 40.6458 444.25 39.1875C441.208 37.7292 437.75 37 433.875 37C430.125 37 426.729 37.7292 423.688 39.1875C420.688 40.6458 418.104 42.7917 415.938 45.625C413.812 48.4583 412.167 51.9583 411 56.125C409.833 60.2917 409.25 65.0833 409.25 70.5V76.375C409.25 81.8333 409.833 86.6667 411 90.875C412.167 95.0417 413.833 98.5625 416 101.438C418.208 104.271 420.812 106.417 423.812 107.875C426.854 109.333 430.25 110.062 434 110.062C437.917 110.062 441.396 109.333 444.438 107.875C447.479 106.417 450.042 104.271 452.125 101.438C454.25 98.5625 455.854 95.0417 456.938 90.875C458.021 86.6667 458.562 81.8333 458.562 76.375ZM427.688 21.8125L439.812 3.4375H453.75L437 21.8125H427.688ZM543.75 109.188V119H498.25V109.188H543.75ZM500.625 28V119H488.562V28H500.625ZM570.5 28V119H558.438V28H570.5ZM662.5 70.625V76.375C662.5 83.2083 661.646 89.3333 659.938 94.75C658.229 100.167 655.771 104.771 652.562 108.562C649.354 112.354 645.5 115.25 641 117.25C636.542 119.25 631.542 120.25 626 120.25C620.625 120.25 615.688 119.25 611.188 117.25C606.729 115.25 602.854 112.354 599.562 108.562C596.312 104.771 593.792 100.167 592 94.75C590.208 89.3333 589.312 83.2083 589.312 76.375V70.625C589.312 63.7917 590.188 57.6875 591.938 52.3125C593.729 46.8958 596.25 42.2917 599.5 38.5C602.75 34.6667 606.604 31.75 611.062 29.75C615.562 27.75 620.5 26.75 625.875 26.75C631.417 26.75 636.417 27.75 640.875 29.75C645.375 31.75 649.229 34.6667 652.438 38.5C655.688 42.2917 658.167 46.8958 659.875 52.3125C661.625 57.6875 662.5 63.7917 662.5 70.625ZM650.562 76.375V70.5C650.562 65.0833 650 60.2917 648.875 56.125C647.792 51.9583 646.188 48.4583 644.062 45.625C641.938 42.7917 639.333 40.6458 636.25 39.1875C633.208 37.7292 629.75 37 625.875 37C622.125 37 618.729 37.7292 615.688 39.1875C612.688 40.6458 610.104 42.7917 607.938 45.625C605.812 48.4583 604.167 51.9583 603 56.125C601.833 60.2917 601.25 65.0833 601.25 70.5V76.375C601.25 81.8333 601.833 86.6667 603 90.875C604.167 95.0417 605.833 98.5625 608 101.438C610.208 104.271 612.812 106.417 615.812 107.875C618.854 109.333 622.25 110.062 626 110.062C629.917 110.062 633.396 109.333 636.438 107.875C639.479 106.417 642.042 104.271 644.125 101.438C646.25 98.5625 647.854 95.0417 648.938 90.875C650.021 86.6667 650.562 81.8333 650.562 76.375Z" fill="black"/>
<path d="M10.5 135H210V150H10.5V135Z" fill="black"/>
</svg>
