<svg width="2616" height="1503" viewBox="0 0 2616 1503" fill="none" xmlns="http://www.w3.org/2000/svg">
<path d="M2349.34 1502.66V1387.5M2615.11 939.252H1328.05H1167.17H1086.73H724.747H684.527H523.645H443.204H121.441H0M2349.34 0.242432V47.1929V234.995V281.945V375.846V751.45V1052.5" stroke="#42413E" stroke-width="3"/>
<path d="M1566.41 936.237C1566.41 938.944 1569.12 940.297 1569.12 945.711C1569.12 951.125 1569.12 961.954 1569.12 964.661C1569.12 966.826 1565.51 975.489 1563.7 979.55C1563.7 983.159 1563.43 991.19 1562.35 994.438C1561.26 997.687 1560.09 1005.72 1559.64 1009.33L1555.58 1062.11C1556.03 1065.27 1557.48 1072.94 1559.64 1078.36C1562.35 1085.12 1565.05 1082.42 1562.35 1090.54C1560.18 1097.04 1561.45 1099.56 1562.35 1100.01L1573.18 1129.79V1141.97L1581.3 1160.92L1573.18 1178.52L1567.76 1190.7L1559.64 1215.06L1554.23 1225.89C1551.97 1226.34 1547.19 1227.79 1546.11 1229.95C1544.75 1232.66 1529.86 1246.19 1529.86 1242.13C1529.86 1238.07 1524.45 1235.37 1521.74 1234.01C1519.03 1232.66 1489.26 1238.07 1489.26 1234.01C1489.26 1230.76 1477.53 1227.25 1471.66 1225.89L1456.77 1220.48L1436.47 1223.18L1424.29 1229.95L1406.69 1236.72L1374.21 1255.67L1364.73 1259.73L1352.55 1273.27C1348.04 1276.87 1338.47 1283.82 1336.31 1282.74C1333.6 1281.39 1324.13 1273.27 1316.01 1273.27C1307.88 1273.27 1297.06 1273.27 1294.35 1266.5C1291.64 1259.73 1288.94 1251.61 1284.87 1250.26C1281.63 1249.17 1263.67 1244.39 1255.1 1242.13H1233.44L1200.96 1227.25C1193.74 1227.25 1177.95 1227.25 1172.53 1227.25C1167.12 1227.25 1142.3 1227.25 1130.57 1227.25L1115.68 1239.43C1111.62 1241.23 1103.23 1245.38 1102.15 1247.55C1101.07 1249.71 1097.19 1253.86 1095.38 1255.67L1112.98 1259.73C1116.59 1260.18 1126.51 1260 1137.34 1255.67C1150.88 1250.26 1161.7 1247.55 1164.41 1247.55C1166.58 1247.55 1194.19 1252.96 1207.72 1255.67C1214.94 1257.02 1230.19 1259.73 1233.44 1259.73C1237.5 1259.73 1259.16 1267.85 1261.87 1270.56C1264.57 1273.27 1279.46 1280.03 1290.29 1286.8C1298.95 1292.21 1311.04 1302.59 1316.01 1307.1C1318.71 1306.2 1324.67 1304.4 1326.83 1304.4C1329.54 1304.4 1347.14 1304.4 1348.49 1304.4C1349.57 1304.4 1356.16 1298.98 1359.32 1296.27C1366.09 1291.31 1380.7 1280.57 1385.04 1277.33C1390.45 1273.27 1393.16 1269.2 1401.28 1266.5C1409.4 1263.79 1422.93 1267.85 1431.06 1263.79C1439.18 1259.73 1463.54 1255.67 1463.54 1259.73C1463.54 1263.79 1463.54 1277.33 1468.95 1277.33C1474.37 1277.33 1481.14 1277.33 1485.2 1277.33C1489.26 1277.33 1490.61 1282.74 1493.32 1282.74C1495.48 1282.74 1503.24 1285.45 1506.85 1286.8C1505.95 1289.96 1503.6 1297.09 1501.44 1300.34C1499.27 1303.58 1487.9 1312.52 1482.49 1316.58L1456.77 1324.7C1449.1 1326.5 1433.22 1330.93 1431.06 1334.17C1428.35 1338.23 1416.17 1361.24 1414.81 1362.6C1413.46 1363.95 1406.69 1376.13 1406.69 1381.55C1406.69 1385.88 1403.08 1399.59 1401.28 1405.91C1396.77 1409.52 1387.2 1416.74 1385.04 1416.74C1382.33 1416.74 1372.85 1419.45 1368.79 1420.8C1364.73 1422.15 1340.37 1427.57 1336.31 1427.57C1333.06 1427.57 1319.62 1425.76 1313.3 1424.86C1311.49 1428.02 1308.97 1434.61 1313.3 1435.69C1317.63 1436.77 1334.96 1438.85 1343.08 1439.75C1346.69 1439.75 1354.99 1440.83 1359.32 1445.16C1364.73 1450.58 1374.21 1460.05 1371.5 1461.41C1369.33 1462.49 1362.48 1471.78 1359.32 1476.29L1344.43 1500.56V1502.66M2614.87 287.259C2602.83 295.88 2592.76 304.647 2584.26 313.83C2547.52 340.578 2516.86 366.358 2478.68 401.593C2463.94 422.051 2451.71 425.448 2424.54 420.543L2409.65 424.603C2392.95 447.558 2375.21 466.822 2354.21 482.805C2333.74 505.731 2317.37 527.007 2305.43 549.434C2282.69 575.106 2259.71 599.428 2232.34 626.279C2199.83 664.213 2185.81 694.771 2163.31 754.864C2159.34 773.989 2157.66 788.35 2156.5 800.884C2146.69 810.091 2136.74 817.866 2125.41 827.954C2122.81 872.718 2121.49 897.713 2125.41 937.59C2122.22 953.737 2120.72 960.484 2118.65 967.368C2097.47 993.264 2088.79 1011.35 2075.33 1045.87C2065.38 1095.08 2039.82 1117.65 1973.82 1152.8L1818.16 1148.74C1794.85 1157.27 1776.61 1164.96 1762.67 1171.35C1743.36 1175.99 1727.6 1174.23 1709.88 1164.98C1688.71 1163.44 1671.38 1162.75 1650.33 1150.25C1631.37 1146.4 1618.55 1144.89 1611.07 1144.78C1590.4 1131.91 1581.45 1111.37 1579.94 1078.36C1575.49 1052.72 1573.71 1030.95 1573.57 1009.33C1579.83 986.193 1582.93 963.214 1582.06 935.842M1609.72 1175.81L1621.9 1178.52C1620.55 1179.87 1620.82 1182.85 1632.73 1183.93C1644.64 1185.02 1658.45 1187.09 1663.86 1187.99C1663.41 1186.64 1664.95 1184.74 1674.69 1187.99C1686.87 1192.05 1696.35 1194.76 1697.7 1194.76C1699.05 1194.76 1704.47 1197.47 1709.88 1194.76C1715.3 1192.05 1722.06 1192.05 1724.77 1192.05C1727.48 1192.05 1750.49 1194.76 1757.26 1192.05C1764.02 1189.35 1773.5 1183.93 1774.85 1183.93C1775.93 1183.93 1786.13 1179.42 1791.09 1177.16C1796.06 1174.46 1806.25 1169.04 1807.34 1169.04C1808.69 1169.04 1818.16 1169.04 1819.52 1169.04C1820.87 1169.04 1830.35 1171.75 1830.35 1173.1C1830.35 1174.46 1835.76 1182.58 1835.76 1183.93C1835.76 1185.29 1841.17 1194.76 1842.53 1197.47C1843.88 1200.17 1846.59 1209.65 1847.94 1213.71C1849.02 1216.96 1844.78 1227.7 1842.53 1232.66L1833.05 1252.96L1827.64 1257.02L1818.16 1261.08L1807.34 1263.79L1792.45 1265.14C1790.64 1265.14 1786.49 1265.14 1784.33 1265.14C1782.16 1265.14 1777.11 1268.75 1774.85 1270.56C1773.95 1270.56 1770.79 1271.64 1765.38 1275.97C1759.96 1280.3 1755.9 1283.19 1754.55 1284.09C1754.1 1285 1752.65 1287.07 1750.49 1288.15C1747.78 1289.51 1743.72 1293.57 1739.66 1294.92C1735.6 1296.27 1728.83 1301.69 1724.77 1301.69C1721.52 1301.69 1711.69 1303.49 1707.18 1304.4C1703.11 1305.3 1694.45 1307.1 1692.29 1307.1C1689.58 1307.1 1671.98 1309.81 1667.92 1307.1C1663.86 1304.4 1651.68 1300.34 1650.33 1301.69C1649.24 1302.77 1639.95 1303.95 1635.44 1304.4L1621.9 1301.69C1620.55 1300.79 1617.3 1298.71 1615.14 1297.63C1612.97 1296.55 1606.11 1293.57 1602.95 1292.21C1602.05 1289.96 1599.98 1284.91 1598.89 1282.74C1597.54 1280.03 1597.54 1270.56 1596.19 1265.14C1594.83 1259.73 1592.13 1263.79 1592.13 1257.02C1592.13 1250.26 1592.13 1244.84 1592.13 1242.13C1592.13 1239.97 1588.52 1234.92 1586.71 1232.66C1586.71 1230.4 1586.71 1224.81 1586.71 1220.48C1586.71 1215.06 1586.71 1206.94 1586.71 1205.59C1586.71 1204.24 1586.71 1200.17 1586.71 1197.47C1586.71 1194.76 1584 1187.99 1586.71 1187.99C1588.88 1187.99 1591.22 1183.48 1592.13 1181.23L1609.72 1175.81Z" stroke="#42413E" stroke-width="3"/>
<path d="M1582 936C1581.68 927.718 1581 919.029 1579.94 909.813C1564.28 893.8 1549.23 882.535 1532.57 874.301C1522.07 865.916 1513.03 857.503 1505.5 847.392C1489.74 842.634 1471.66 842.182 1448.65 846.197L1436.47 836.722C1436.02 834.466 1435.12 829.684 1435.12 828.601C1435.12 827.518 1436.92 822.736 1437.82 820.48L1444.59 811.005L1448.65 802.884V790.702L1440.53 783.935L1416.17 781.227L1401.28 783.935H1391.8L1386.39 781.227C1385.94 779.423 1385.31 775.543 1386.39 774.46C1387.74 773.106 1390.45 771.753 1393.16 769.046C1395.86 766.339 1398.57 763.632 1401.28 762.278C1403.44 761.195 1404.89 757.315 1405.34 755.51C1405.34 751.901 1405.34 744.141 1405.34 741.975C1405.34 739.268 1406.69 729.793 1406.69 728.44C1406.69 727.086 1413.46 718.965 1416.17 716.258C1418.87 713.551 1427 713.551 1428.35 709.491C1429.43 706.242 1437.82 701.821 1441.88 700.016C1444.14 698.662 1449.19 695.685 1451.36 694.602C1454.07 693.248 1467.6 690.541 1468.95 689.188C1470.31 687.834 1482.49 682.42 1483.84 679.713C1484.93 677.547 1491.51 666.178 1494.67 660.764V649.935V636.4C1495.57 633.693 1497.38 628.008 1497.38 626.925C1497.38 625.842 1499.18 621.962 1500.09 620.158C1501.44 619.707 1504.42 618.263 1505.5 616.097C1506.58 613.931 1514.07 612.488 1517.68 612.037C1522.64 610.683 1532.57 607.705 1532.57 606.622C1532.57 605.269 1539.34 603.915 1539.34 602.562C1539.34 601.479 1543.85 596.697 1546.11 594.441L1548.81 579.552C1551.52 579.101 1558.29 577.928 1563.7 576.845C1570.47 575.491 1579.94 578.198 1581.3 574.138C1582.65 570.077 1582.65 557.895 1584 555.188C1585.36 552.481 1589.42 551.128 1592.13 538.946C1594.29 529.201 1593.03 522.253 1592.13 519.997L1581.3 506.461C1586.26 505.108 1596.73 501.859 1598.89 499.694C1601.06 497.528 1605.21 487.963 1607.01 483.451L1611.07 471.27L1592.13 488.866L1566.41 486.158C1565.96 489.768 1565.05 497.799 1565.05 501.047C1565.05 505.108 1563.7 506.461 1566.41 511.875C1568.57 516.207 1575.43 519.997 1578.59 521.35C1581.3 525.411 1586.17 533.803 1584 534.885C1581.84 535.968 1578.59 541.653 1577.24 544.36C1573.63 543.458 1566.14 542.194 1565.05 544.36C1563.97 546.526 1554.68 550.677 1550.17 552.481L1544.75 556.542C1541.59 560.151 1535.28 567.641 1535.28 568.724C1535.28 569.806 1536.18 573.687 1536.63 575.491L1523.1 598.501L1501.44 599.855L1490.61 606.622L1486.55 618.804L1483.84 633.693V641.814L1478.43 658.056L1464.89 670.238L1441.88 682.42L1427 687.834L1416.17 695.955C1415.26 696.406 1413.19 697.579 1412.11 698.662C1411.02 699.745 1405.34 704.528 1402.63 706.783L1391.8 713.551C1391.8 714.905 1391.8 718.424 1391.8 721.672C1391.8 725.733 1391.8 727.086 1391.8 731.147C1391.8 734.395 1390.9 740.622 1390.45 743.329C1387.74 746.487 1381.79 753.345 1379.62 755.51C1377.46 757.676 1367.89 768.143 1363.38 773.106C1365.18 774.911 1368.79 779.062 1368.79 781.227C1368.79 783.393 1370.6 792.958 1371.5 797.47C1371.95 797.019 1373.4 796.387 1375.56 797.47C1377.73 798.553 1397.22 803.335 1406.69 805.591H1433.76C1431.96 808.298 1428.35 813.983 1428.35 815.066C1428.35 816.419 1424.29 823.187 1424.29 824.54C1424.29 825.623 1424.29 834.917 1424.29 839.429L1425.64 857.025C1427.9 857.476 1433.49 858.649 1437.82 859.732C1443.24 861.086 1440.53 859.732 1448.65 862.439C1456.77 865.146 1460.83 866.5 1467.6 866.5C1474.37 866.5 1479.78 866.5 1483.84 866.5C1487.9 866.5 1494.67 867.853 1498.73 869.207C1502.79 870.56 1505.5 870.56 1508.21 871.914C1510.91 873.267 1521.74 878.681 1521.74 880.035C1521.74 881.389 1525.8 885.449 1525.8 886.803C1525.8 887.885 1530.31 890.863 1532.57 892.217L1548.81 901.691C1551.52 906.203 1557.48 915.497 1559.64 916.58C1562.35 917.934 1566.41 920.641 1566.41 923.348C1566.41 925.627 1566.41 932.704 1566.41 936.5" stroke="#42413E" stroke-opacity="0.21" stroke-width="3"/>
<path d="M2354.83 1083V1097.74H2351.49L2346.17 1090H2346.08V1097.74H2342.08V1083H2345.47L2350.72 1090.72H2350.83V1083H2354.83Z" fill="#42413E"/>
<path d="M2350.02 1342.71C2349.99 1342.23 2349.81 1341.86 2349.48 1341.59C2349.17 1341.32 2348.68 1341.19 2348.04 1341.19C2347.62 1341.19 2347.29 1341.24 2347.02 1341.34C2346.76 1341.43 2346.57 1341.57 2346.45 1341.73C2346.32 1341.9 2346.26 1342.09 2346.25 1342.31C2346.24 1342.49 2346.27 1342.65 2346.35 1342.79C2346.42 1342.93 2346.54 1343.06 2346.71 1343.17C2346.87 1343.28 2347.08 1343.38 2347.33 1343.48C2347.59 1343.57 2347.89 1343.65 2348.24 1343.72L2349.45 1343.98C2350.26 1344.15 2350.96 1344.38 2351.54 1344.66C2352.12 1344.95 2352.6 1345.28 2352.97 1345.66C2353.34 1346.04 2353.61 1346.47 2353.78 1346.95C2353.96 1347.42 2354.05 1347.94 2354.06 1348.5C2354.05 1349.47 2353.81 1350.29 2353.33 1350.96C2352.85 1351.63 2352.16 1352.15 2351.27 1352.5C2350.38 1352.85 2349.31 1353.02 2348.07 1353.02C2346.78 1353.02 2345.67 1352.83 2344.71 1352.45C2343.76 1352.07 2343.02 1351.49 2342.49 1350.7C2341.97 1349.91 2341.71 1348.9 2341.7 1347.67H2345.5C2345.53 1348.12 2345.64 1348.5 2345.84 1348.8C2346.04 1349.11 2346.33 1349.34 2346.69 1349.5C2347.06 1349.66 2347.5 1349.74 2348.01 1349.74C2348.44 1349.74 2348.79 1349.69 2349.08 1349.58C2349.37 1349.48 2349.59 1349.33 2349.74 1349.14C2349.88 1348.95 2349.96 1348.74 2349.97 1348.5C2349.96 1348.28 2349.89 1348.08 2349.74 1347.91C2349.6 1347.74 2349.37 1347.58 2349.05 1347.45C2348.73 1347.31 2348.3 1347.18 2347.75 1347.06L2346.28 1346.74C2344.97 1346.46 2343.95 1345.99 2343.19 1345.33C2342.44 1344.66 2342.07 1343.75 2342.08 1342.6C2342.07 1341.66 2342.32 1340.84 2342.82 1340.14C2343.33 1339.44 2344.04 1338.89 2344.93 1338.49C2345.84 1338.1 2346.87 1337.9 2348.04 1337.9C2349.23 1337.9 2350.26 1338.1 2351.13 1338.5C2351.99 1338.9 2352.66 1339.46 2353.13 1340.19C2353.61 1340.91 2353.85 1341.75 2353.85 1342.71H2350.02Z" fill="#42413E"/>
<path d="M2471.04 1226.7V1211.96H2475.04V1223.48H2481V1226.7H2471.04Z" fill="#42413E"/>
<path d="M2231.34 1219.33C2231.34 1220.97 2231.02 1222.36 2230.38 1223.49C2229.75 1224.61 2228.88 1225.46 2227.8 1226.04C2226.71 1226.62 2225.5 1226.91 2224.17 1226.91C2222.83 1226.91 2221.61 1226.62 2220.53 1226.04C2219.45 1225.45 2218.59 1224.6 2217.95 1223.47C2217.32 1222.34 2217 1220.96 2217 1219.33C2217 1217.69 2217.32 1216.31 2217.95 1215.19C2218.59 1214.06 2219.45 1213.21 2220.53 1212.63C2221.61 1212.05 2222.83 1211.76 2224.17 1211.76C2225.5 1211.76 2226.71 1212.05 2227.8 1212.63C2228.88 1213.21 2229.75 1214.06 2230.38 1215.19C2231.02 1216.31 2231.34 1217.69 2231.34 1219.33ZM2227.22 1219.33C2227.22 1218.45 2227.11 1217.71 2226.87 1217.1C2226.64 1216.49 2226.3 1216.03 2225.84 1215.72C2225.39 1215.4 2224.83 1215.24 2224.17 1215.24C2223.51 1215.24 2222.95 1215.4 2222.49 1215.72C2222.04 1216.03 2221.7 1216.49 2221.46 1217.1C2221.23 1217.71 2221.12 1218.45 2221.12 1219.33C2221.12 1220.22 2221.23 1220.96 2221.46 1221.57C2221.7 1222.18 2222.04 1222.64 2222.49 1222.95C2222.95 1223.27 2223.51 1223.42 2224.17 1223.42C2224.83 1223.42 2225.39 1223.27 2225.84 1222.95C2226.3 1222.64 2226.64 1222.18 2226.87 1221.57C2227.11 1220.96 2227.22 1220.22 2227.22 1219.33Z" fill="#42413E"/>
<path d="M2291.29 1132.1C2309.61 1120.18 2321.32 1116.57 2344.5 1114.92M2352.95 1114.92C2375.17 1116.7 2386.95 1120.23 2406.45 1132.1M2435.73 1161.66C2446.84 1179.37 2451.06 1190.23 2453.19 1212.06M2453.19 1227.83C2450.67 1249.43 2446.78 1260.41 2435.45 1277.95M2406.73 1307.8C2387.44 1319.45 2375.6 1323.26 2352.67 1325.26M2344.5 1325.26C2324.08 1323.84 2311.22 1320.39 2290.16 1307.8M2261.72 1278.51C2249.1 1257.26 2245.31 1246.18 2243.98 1227.83M2243.98 1212.06C2246.53 1190.81 2250.31 1179.68 2261.72 1161.38M2410.96 1282.17L2419.97 1291.18M2451.22 1322.44L2432.36 1303.57M2285.94 1157.72L2277.21 1148.93M2245.95 1117.45L2264.69 1136.32M2411.24 1157.16L2419.9 1148.62M2451.5 1117.45L2432.64 1136.06M2245.95 1322.44L2264.62 1303.77M2285.94 1282.46L2277.35 1291.05M2354.83 1083V1097.74H2351.49L2346.17 1090H2346.08V1097.74H2342.08V1083H2345.47L2350.72 1090.72H2350.83V1083H2354.83ZM2350.02 1342.71C2349.99 1342.23 2349.81 1341.86 2349.48 1341.59C2349.17 1341.32 2348.68 1341.19 2348.04 1341.19C2347.62 1341.19 2347.29 1341.24 2347.02 1341.34C2346.76 1341.43 2346.57 1341.57 2346.45 1341.73C2346.32 1341.9 2346.26 1342.09 2346.25 1342.31C2346.24 1342.49 2346.27 1342.65 2346.35 1342.79C2346.42 1342.93 2346.54 1343.06 2346.71 1343.17C2346.87 1343.28 2347.08 1343.38 2347.33 1343.48C2347.59 1343.57 2347.89 1343.65 2348.24 1343.72L2349.45 1343.98C2350.26 1344.15 2350.96 1344.38 2351.54 1344.66C2352.12 1344.95 2352.6 1345.28 2352.97 1345.66C2353.34 1346.04 2353.61 1346.47 2353.78 1346.95C2353.96 1347.42 2354.05 1347.94 2354.06 1348.5C2354.05 1349.47 2353.81 1350.29 2353.33 1350.96C2352.85 1351.63 2352.16 1352.15 2351.27 1352.5C2350.38 1352.85 2349.31 1353.02 2348.07 1353.02C2346.78 1353.02 2345.67 1352.83 2344.71 1352.45C2343.76 1352.07 2343.02 1351.49 2342.49 1350.7C2341.97 1349.91 2341.71 1348.9 2341.7 1347.67H2345.5C2345.53 1348.12 2345.64 1348.5 2345.84 1348.8C2346.04 1349.11 2346.33 1349.34 2346.69 1349.5C2347.06 1349.66 2347.5 1349.74 2348.01 1349.74C2348.44 1349.74 2348.79 1349.69 2349.08 1349.58C2349.37 1349.48 2349.59 1349.33 2349.74 1349.14C2349.88 1348.95 2349.96 1348.74 2349.97 1348.5C2349.96 1348.28 2349.89 1348.08 2349.74 1347.91C2349.6 1347.74 2349.37 1347.58 2349.05 1347.45C2348.73 1347.31 2348.3 1347.18 2347.75 1347.06L2346.28 1346.74C2344.97 1346.46 2343.95 1345.99 2343.19 1345.33C2342.44 1344.66 2342.07 1343.75 2342.08 1342.6C2342.07 1341.66 2342.32 1340.84 2342.82 1340.14C2343.33 1339.44 2344.04 1338.89 2344.93 1338.49C2345.84 1338.1 2346.87 1337.9 2348.04 1337.9C2349.23 1337.9 2350.26 1338.1 2351.13 1338.5C2351.99 1338.9 2352.66 1339.46 2353.13 1340.19C2353.61 1340.91 2353.85 1341.75 2353.85 1342.71H2350.02ZM2471.04 1226.7V1211.96H2475.04V1223.48H2481V1226.7H2471.04ZM2231.34 1219.33C2231.34 1220.97 2231.02 1222.36 2230.38 1223.49C2229.75 1224.61 2228.88 1225.46 2227.8 1226.04C2226.71 1226.62 2225.5 1226.91 2224.17 1226.91C2222.83 1226.91 2221.61 1226.62 2220.53 1226.04C2219.45 1225.45 2218.59 1224.6 2217.95 1223.47C2217.32 1222.34 2217 1220.96 2217 1219.33C2217 1217.69 2217.32 1216.31 2217.95 1215.19C2218.59 1214.06 2219.45 1213.21 2220.53 1212.63C2221.61 1212.05 2222.83 1211.76 2224.17 1211.76C2225.5 1211.76 2226.71 1212.05 2227.8 1212.63C2228.88 1213.21 2229.75 1214.06 2230.38 1215.19C2231.02 1216.31 2231.34 1217.69 2231.34 1219.33ZM2227.22 1219.33C2227.22 1218.45 2227.11 1217.71 2226.87 1217.1C2226.64 1216.49 2226.3 1216.03 2225.84 1215.72C2225.39 1215.4 2224.83 1215.24 2224.17 1215.24C2223.51 1215.24 2222.95 1215.4 2222.49 1215.72C2222.04 1216.03 2221.7 1216.49 2221.46 1217.1C2221.23 1217.71 2221.12 1218.45 2221.12 1219.33C2221.12 1220.22 2221.23 1220.96 2221.46 1221.57C2221.7 1222.18 2222.04 1222.64 2222.49 1222.95C2222.95 1223.27 2223.51 1223.42 2224.17 1223.42C2224.83 1223.42 2225.39 1223.27 2225.84 1222.95C2226.3 1222.64 2226.64 1222.18 2226.87 1221.57C2227.11 1220.96 2227.22 1220.22 2227.22 1219.33Z" stroke="#42413E"/>
<path d="M2280.75 1227.46L2271.43 1220L2280.75 1212.54L2292.77 1220L2280.75 1227.46Z" fill="#42413E"/>
<path fill-rule="evenodd" clip-rule="evenodd" d="M2358.26 1253.15L2382.31 1228.98L2383.27 1228.01L2391.24 1220L2383.27 1211.99L2382.17 1210.88L2358.26 1186.85L2357.29 1185.88L2349.28 1177.83L2341.26 1185.8L2340.3 1186.76L2316.06 1210.88L2314.95 1211.99L2306.9 1220L2314.95 1228.01L2315.92 1228.98L2340.3 1253.24L2341.26 1254.2L2349.28 1262.17L2357.29 1254.12L2358.26 1253.15ZM2368.32 1228.98L2358.26 1239.09L2357.29 1240.06L2349.28 1248.12L2341.26 1240.14L2340.3 1239.18L2330.05 1228.98L2329.08 1228.01L2321.02 1220L2329.08 1211.99L2330.19 1210.88L2340.3 1200.82L2341.26 1199.86L2349.28 1191.88L2357.29 1199.94L2358.26 1200.91L2368.18 1210.88L2369.28 1211.99L2377.25 1220L2369.28 1228.01L2368.32 1228.98Z" fill="#42413E"/>
<path d="M2349.28 1297.57L2356.74 1288.53L2349.28 1276.23L2341.82 1288.53L2349.28 1297.57Z" fill="#42413E"/>
<path d="M2405.23 1220L2417.8 1227.46L2426.57 1220L2417.8 1212.54L2405.23 1220Z" fill="#42413E"/>
<path fill-rule="evenodd" clip-rule="evenodd" d="M2405.23 1200.38L2368.89 1163.77L2375.66 1150.37L2349.28 1115L2322.89 1150.37L2329.66 1163.77L2292.77 1200.38L2279.64 1193.61L2244 1220L2279.64 1246.25L2292.77 1239.62L2329.66 1276.23L2323.03 1289.63L2349.28 1325L2375.66 1289.63L2368.89 1276.23L2405.23 1239.62L2418.91 1246.39L2454 1220L2418.91 1193.61L2405.23 1200.38ZM2358.26 1163.77L2357.29 1165.7L2358.26 1166.67L2402.47 1210.88L2403.57 1211.99L2405.23 1210.88L2417.8 1205.08L2438 1220L2417.8 1234.92L2405.23 1228.98L2403.57 1228.01L2402.61 1228.98L2358.26 1273.33L2357.29 1274.3L2358.26 1276.23L2364.2 1288.53L2349.28 1309L2334.36 1288.53L2340.3 1276.23L2341.26 1274.3L2340.3 1273.33L2295.95 1228.98L2294.98 1228.01L2292.77 1228.98L2280.75 1234.92L2260 1220L2280.75 1205.08L2292.77 1210.88L2294.98 1211.99L2296.09 1210.88L2340.3 1166.67L2341.26 1165.7L2340.3 1163.77L2334.36 1151.47L2349.28 1131L2364.2 1151.47L2358.26 1163.77Z" fill="#42413E"/>
<path d="M2349.28 1142.43L2356.74 1151.47L2349.28 1163.77L2341.82 1151.47L2349.28 1142.43Z" fill="#42413E"/>
<path d="M1965.86 866.997L1969.85 862.402L1973.85 857.807L2000.27 888.843L1965.86 866.997Z" fill="#E12B36"/>
<path d="M1906.96 838.292L1937.23 803.474C1942.84 808.639 1943.22 812.355 1938.19 820.67L1969.03 839.301C1975.85 831.66 1980.21 831.02 1988.83 835.607L1946.19 884.663C1940.51 876.922 1940.32 872.498 1947.2 864.412L1924.57 836.332C1917.65 841.765 1913.79 843.006 1906.96 838.292Z" fill="#E12B36"/>
<path d="M1778.36 835.069L1782.87 848.553L1780.1 849.48L1775.59 835.996L1778.36 835.069ZM1782.98 832.698L1783.45 834.106C1783.59 834.507 1783.65 834.947 1783.64 835.424C1783.63 835.9 1783.57 836.371 1783.44 836.839C1783.31 837.3 1783.14 837.714 1782.93 838.081L1781.44 837.777C1781.54 837.336 1781.61 836.876 1781.62 836.396C1781.64 835.91 1781.55 835.384 1781.36 834.816L1780.89 833.399L1782.98 832.698ZM1786.58 832.317L1788.93 831.53L1795.71 840.271L1795.86 829.213L1798.21 828.425L1797.85 843.539L1795.96 844.172L1786.58 832.317ZM1785.31 832.742L1787.66 831.958L1791.31 841.465L1792.59 845.299L1789.82 846.226L1785.31 832.742ZM1797.14 828.785L1799.49 827.998L1804 841.482L1801.22 842.411L1799.94 838.577L1797.14 828.785ZM1817.48 828.086L1818.21 830.253L1811.17 832.608L1810.44 830.441L1817.48 828.086ZM1809.43 824.673L1813.94 838.157L1811.16 839.087L1806.65 825.603L1809.43 824.673ZM1817.62 821.931L1822.14 835.415L1819.37 836.341L1814.86 822.857L1817.62 821.931ZM1832.88 829.411L1833.6 831.578L1826.42 833.98L1825.7 831.813L1832.88 829.411ZM1822.82 820.192L1827.33 833.676L1824.55 834.606L1820.04 821.122L1822.82 820.192ZM1829.99 823.899L1830.7 826.011L1824.46 828.099L1823.75 825.988L1829.99 823.899ZM1829.08 818.098L1829.81 820.274L1822.64 822.672L1821.91 820.496L1829.08 818.098ZM1830.71 817.552L1835.74 815.87C1836.77 815.525 1837.71 815.383 1838.55 815.443C1839.4 815.502 1840.13 815.767 1840.73 816.238C1841.34 816.708 1841.79 817.385 1842.08 818.268C1842.32 818.99 1842.41 819.652 1842.33 820.254C1842.26 820.847 1842.07 821.39 1841.74 821.885C1841.41 822.371 1840.99 822.815 1840.46 823.217L1839.74 823.975L1835.37 825.437L1834.62 823.276L1837.87 822.189C1838.36 822.025 1838.74 821.804 1839 821.523C1839.26 821.243 1839.42 820.922 1839.48 820.559C1839.54 820.195 1839.51 819.809 1839.37 819.401C1839.23 818.969 1839.02 818.623 1838.76 818.361C1838.49 818.1 1838.17 817.941 1837.78 817.884C1837.4 817.827 1836.96 817.881 1836.47 818.046L1834.22 818.799L1838 830.107L1835.22 831.036L1830.71 817.552ZM1842.76 828.514L1837.67 823.532L1840.6 822.531L1845.69 827.39L1845.73 827.519L1842.76 828.514ZM1855.7 821.776L1856.42 823.943L1849.24 826.345L1848.52 824.178L1855.7 821.776ZM1845.64 812.557L1850.15 826.041L1847.37 826.971L1842.86 813.487L1845.64 812.557ZM1852.81 816.264L1853.52 818.376L1847.28 820.464L1846.57 818.353L1852.81 816.264ZM1851.9 810.462L1852.63 812.639L1845.46 815.037L1844.73 812.861L1851.9 810.462ZM1861.21 807.348L1865.72 820.832L1862.95 821.759L1858.44 808.275L1861.21 807.348ZM1874.78 802.806L1879.29 816.29L1876.52 817.219L1868.07 809.993L1871.1 819.032L1868.32 819.962L1863.81 806.478L1866.59 805.548L1875.04 812.78L1872.01 803.732L1874.78 802.806ZM1883.19 799.992L1885.54 799.205L1892.32 807.946L1892.47 796.887L1894.82 796.1L1894.46 811.214L1892.58 811.846L1883.19 799.992ZM1881.92 800.417L1884.27 799.633L1887.92 809.14L1889.2 812.974L1886.44 813.901L1881.92 800.417ZM1893.75 796.46L1896.1 795.672L1900.61 809.156L1897.84 810.086L1896.55 806.252L1893.75 796.46ZM1904.96 795.273L1905.03 807.678L1902.08 808.667L1902.58 793.506L1904.46 792.877L1904.96 795.273ZM1911.75 805.432L1904.33 795.484L1903.26 793.277L1905.16 792.642L1914.71 804.44L1911.75 805.432ZM1909.9 800.468L1910.63 802.644L1903.51 805.027L1902.78 802.851L1909.9 800.468ZM1922.11 796.989L1924.88 796.063C1925.13 796.989 1925.15 797.878 1924.94 798.731C1924.74 799.581 1924.31 800.337 1923.65 800.996C1923 801.654 1922.12 802.167 1921.01 802.537C1920.15 802.826 1919.32 802.937 1918.54 802.87C1917.75 802.797 1917.02 802.561 1916.35 802.162C1915.68 801.762 1915.08 801.205 1914.56 800.494C1914.04 799.782 1913.62 798.932 1913.29 797.944L1912.97 797.009C1912.64 796.021 1912.47 795.086 1912.47 794.202C1912.46 793.311 1912.61 792.503 1912.91 791.778C1913.22 791.051 1913.66 790.421 1914.25 789.889C1914.83 789.358 1915.55 788.95 1916.39 788.667C1917.52 788.291 1918.53 788.178 1919.44 788.327C1920.35 788.474 1921.14 788.835 1921.81 789.408C1922.48 789.98 1923.01 790.708 1923.41 791.593L1920.63 792.522C1920.42 791.99 1920.15 791.566 1919.84 791.251C1919.53 790.93 1919.15 790.737 1918.71 790.672C1918.27 790.598 1917.75 790.665 1917.13 790.871C1916.67 791.026 1916.29 791.248 1916 791.536C1915.72 791.825 1915.51 792.184 1915.4 792.615C1915.28 793.045 1915.25 793.549 1915.31 794.125C1915.38 794.693 1915.53 795.335 1915.77 796.052L1916.09 797.005C1916.33 797.703 1916.58 798.3 1916.87 798.796C1917.15 799.285 1917.46 799.676 1917.8 799.968C1918.14 800.252 1918.51 800.429 1918.92 800.498C1919.33 800.559 1919.78 800.507 1920.28 800.342C1920.86 800.148 1921.31 799.895 1921.62 799.584C1921.94 799.273 1922.13 798.902 1922.21 798.472C1922.29 798.039 1922.26 797.545 1922.11 796.989ZM1929.94 786.913L1930.02 799.318L1927.06 800.307L1927.56 785.146L1929.44 784.517L1929.94 786.913ZM1936.73 797.072L1929.31 787.124L1928.25 784.917L1930.15 784.282L1939.69 796.08L1936.73 797.072ZM1934.89 792.108L1935.61 794.284L1928.49 796.667L1927.76 794.491L1934.89 792.108ZM1944.59 789.098L1941.15 790.248L1940.43 788.081L1943.86 786.931C1944.39 786.754 1944.8 786.523 1945.07 786.238C1945.35 785.948 1945.51 785.619 1945.56 785.252C1945.61 784.886 1945.56 784.505 1945.43 784.11C1945.3 783.709 1945.1 783.361 1944.83 783.067C1944.56 782.773 1944.22 782.577 1943.81 782.478C1943.41 782.38 1942.94 782.419 1942.41 782.597L1939.94 783.424L1943.72 794.732L1940.95 795.662L1936.43 782.178L1941.68 780.421C1942.74 780.068 1943.71 779.956 1944.59 780.087C1945.48 780.21 1946.23 780.537 1946.85 781.07C1947.48 781.602 1947.94 782.297 1948.22 783.156C1948.51 784.026 1948.56 784.847 1948.38 785.617C1948.19 786.387 1947.77 787.072 1947.13 787.672C1946.49 788.27 1945.64 788.745 1944.59 789.098ZM1953.37 779.073L1953.45 791.478L1950.49 792.467L1950.99 777.307L1952.87 776.678L1953.37 779.073ZM1960.16 789.232L1952.75 779.284L1951.68 777.077L1953.58 776.442L1963.13 788.24L1960.16 789.232ZM1958.32 784.268L1959.04 786.445L1951.92 788.827L1951.19 786.651L1958.32 784.268ZM1950.78 776.532L1951.64 773.072L1954.54 772.102L1952.95 775.807L1950.78 776.532Z" fill="#42413E"/>
<path d="M1690.67 1111.28C1690.67 1111.03 1690.63 1110.8 1690.55 1110.6C1690.48 1110.39 1690.35 1110.2 1690.14 1110.03C1689.94 1109.85 1689.66 1109.68 1689.29 1109.51C1688.93 1109.34 1688.46 1109.17 1687.88 1108.98C1687.23 1108.78 1686.62 1108.54 1686.04 1108.28C1685.47 1108.02 1684.96 1107.72 1684.52 1107.37C1684.08 1107.02 1683.74 1106.61 1683.48 1106.15C1683.24 1105.69 1683.11 1105.15 1683.11 1104.54C1683.11 1103.95 1683.24 1103.41 1683.5 1102.93C1683.76 1102.44 1684.13 1102.02 1684.6 1101.68C1685.07 1101.33 1685.62 1101.06 1686.26 1100.87C1686.9 1100.68 1687.61 1100.59 1688.38 1100.59C1689.43 1100.59 1690.34 1100.77 1691.12 1101.15C1691.9 1101.53 1692.51 1102.05 1692.94 1102.71C1693.37 1103.36 1693.59 1104.11 1693.59 1104.96H1690.68C1690.68 1104.54 1690.59 1104.18 1690.42 1103.87C1690.25 1103.55 1689.99 1103.3 1689.64 1103.12C1689.29 1102.93 1688.86 1102.84 1688.33 1102.84C1687.82 1102.84 1687.4 1102.92 1687.06 1103.08C1686.72 1103.23 1686.47 1103.43 1686.3 1103.69C1686.13 1103.95 1686.04 1104.23 1686.04 1104.55C1686.04 1104.79 1686.1 1105.01 1686.22 1105.21C1686.34 1105.4 1686.52 1105.58 1686.77 1105.75C1687.01 1105.92 1687.3 1106.08 1687.65 1106.23C1688.01 1106.38 1688.41 1106.53 1688.88 1106.67C1689.65 1106.9 1690.33 1107.17 1690.92 1107.46C1691.51 1107.75 1692 1108.08 1692.4 1108.45C1692.8 1108.81 1693.1 1109.23 1693.3 1109.69C1693.5 1110.15 1693.6 1110.67 1693.6 1111.26C1693.6 1111.88 1693.48 1112.43 1693.24 1112.92C1693 1113.41 1692.65 1113.82 1692.2 1114.16C1691.74 1114.5 1691.2 1114.76 1690.56 1114.93C1689.93 1115.11 1689.23 1115.2 1688.45 1115.2C1687.74 1115.2 1687.05 1115.1 1686.37 1114.92C1685.68 1114.73 1685.06 1114.45 1684.5 1114.07C1683.95 1113.69 1683.5 1113.21 1683.17 1112.63C1682.84 1112.04 1682.67 1111.35 1682.67 1110.55H1685.61C1685.61 1110.99 1685.68 1111.36 1685.82 1111.67C1685.96 1111.98 1686.15 1112.22 1686.39 1112.41C1686.65 1112.6 1686.95 1112.74 1687.29 1112.82C1687.64 1112.91 1688.03 1112.95 1688.45 1112.95C1688.95 1112.95 1689.37 1112.88 1689.7 1112.73C1690.03 1112.59 1690.27 1112.39 1690.43 1112.14C1690.59 1111.88 1690.67 1111.6 1690.67 1111.28ZM1701.38 1103.21L1697.51 1115H1694.39L1699.68 1100.78H1701.66L1701.38 1103.21ZM1704.59 1115L1700.71 1103.21L1700.4 1100.78H1702.4L1707.71 1115H1704.59ZM1704.41 1109.71V1112H1696.9V1109.71H1704.41ZM1720.6 1100.78V1115H1717.67L1711.96 1105.47V1115H1709.03V1100.78H1711.96L1717.68 1110.32V1100.78H1720.6ZM1729.22 1100.78V1115H1726.3V1100.78H1729.22ZM1733.59 1100.78V1103.08H1721.99V1100.78H1733.59ZM1739.99 1103.21L1736.12 1115H1733.01L1738.29 1100.78H1740.27L1739.99 1103.21ZM1743.2 1115L1739.32 1103.21L1739.01 1100.78H1741.01L1746.33 1115H1743.2ZM1743.03 1109.71V1112H1735.52V1109.71H1743.03ZM1759.22 1100.78V1115H1756.29L1750.57 1105.47V1115H1747.64V1100.78H1750.57L1756.3 1110.32V1100.78H1759.22ZM1767.72 1103.21L1763.86 1115H1760.74L1766.02 1100.78H1768.01L1767.72 1103.21ZM1770.94 1115L1767.06 1103.21L1766.75 1100.78H1768.75L1774.06 1115H1770.94ZM1770.76 1109.71V1112H1763.25V1109.71H1770.76Z" fill="#42413E"/>
<path d="M1891.15 1112.34V1123H1888.95V1112.34H1891.15ZM1895.4 1116.89V1118.61H1890.55V1116.89H1895.4ZM1895.91 1112.34V1114.06H1890.55V1112.34H1895.91ZM1900.17 1114.16L1897.27 1123H1894.94L1898.9 1112.34H1900.39L1900.17 1114.16ZM1902.58 1123L1899.67 1114.16L1899.44 1112.34H1900.94L1904.93 1123H1902.58ZM1902.45 1119.03V1120.75H1896.82V1119.03H1902.45ZM1913.63 1121.29V1123H1906.07V1121.29H1913.63ZM1913.52 1113.56L1907.04 1123H1905.5V1121.74L1912.02 1112.34H1913.52V1113.56ZM1912.76 1112.34V1114.06H1905.5V1112.34H1912.76ZM1922.18 1121.29V1123H1916.51V1121.29H1922.18ZM1917.22 1112.34V1123H1915.03V1112.34H1917.22ZM1921.44 1116.68V1118.35H1916.51V1116.68H1921.44ZM1922.17 1112.34V1114.06H1916.51V1112.34H1922.17ZM1932.14 1112.34V1123H1929.95L1925.66 1115.85V1123H1923.46V1112.34H1925.66L1929.95 1119.49V1112.34H1932.14ZM1937.33 1123H1935.01L1935.02 1121.29H1937.33C1937.9 1121.29 1938.39 1121.16 1938.79 1120.9C1939.18 1120.63 1939.48 1120.25 1939.68 1119.75C1939.88 1119.25 1939.99 1118.64 1939.99 1117.92V1117.4C1939.99 1116.86 1939.93 1116.38 1939.81 1115.96C1939.7 1115.55 1939.53 1115.2 1939.31 1114.91C1939.08 1114.63 1938.81 1114.42 1938.48 1114.28C1938.15 1114.13 1937.78 1114.06 1937.35 1114.06H1934.96V1112.34H1937.35C1938.06 1112.34 1938.72 1112.46 1939.31 1112.7C1939.9 1112.94 1940.42 1113.29 1940.85 1113.73C1941.29 1114.18 1941.62 1114.72 1941.85 1115.35C1942.09 1115.97 1942.21 1116.66 1942.21 1117.42V1117.92C1942.21 1118.68 1942.09 1119.37 1941.85 1120C1941.62 1120.62 1941.29 1121.16 1940.85 1121.61C1940.42 1122.05 1939.91 1122.4 1939.31 1122.64C1938.71 1122.88 1938.05 1123 1937.33 1123ZM1936.25 1112.34V1123H1934.05V1112.34H1936.25ZM1946.15 1112.34V1123H1943.96V1112.34H1946.15ZM1956.88 1112.34V1123H1954.69L1950.4 1115.85V1123H1948.21V1112.34H1950.4L1954.69 1119.49V1112.34H1956.88ZM1965.91 1116.68V1118.39H1960.34V1116.68H1965.91ZM1960.99 1112.34V1123H1958.8V1112.34H1960.99ZM1967.48 1112.34V1123H1965.29V1112.34H1967.48ZM1973.85 1114.16L1970.95 1123H1968.62L1972.58 1112.34H1974.07L1973.85 1114.16ZM1976.26 1123L1973.36 1114.16L1973.12 1112.34H1974.62L1978.61 1123H1976.26ZM1976.13 1119.03V1120.75H1970.5V1119.03H1976.13Z" fill="#42413E"/>
<path d="M1685.67 1221.34V1232H1683.48V1221.34H1685.67ZM1694.58 1230.29V1232H1689.21V1230.29H1694.58ZM1689.92 1221.34V1232H1687.73V1221.34H1689.92ZM1702.95 1225.68V1227.39H1697.39V1225.68H1702.95ZM1698.04 1221.34V1232H1695.84V1221.34H1698.04ZM1704.52 1221.34V1232H1702.33V1221.34H1704.52ZM1710.9 1223.16L1708 1232H1705.66L1709.63 1221.34H1711.11L1710.9 1223.16ZM1713.31 1232L1710.4 1223.16L1710.17 1221.34H1711.67L1715.65 1232H1713.31ZM1713.18 1228.03V1229.75H1707.55V1228.03H1713.18ZM1723.65 1232H1721.33L1721.35 1230.29H1723.65C1724.23 1230.29 1724.71 1230.16 1725.11 1229.9C1725.51 1229.63 1725.8 1229.25 1726 1228.75C1726.21 1228.25 1726.31 1227.64 1726.31 1226.92V1226.4C1726.31 1225.86 1726.25 1225.38 1726.14 1224.96C1726.02 1224.55 1725.85 1224.2 1725.63 1223.91C1725.41 1223.63 1725.13 1223.42 1724.8 1223.28C1724.48 1223.13 1724.1 1223.06 1723.67 1223.06H1721.29V1221.34H1723.67C1724.39 1221.34 1725.04 1221.46 1725.63 1221.7C1726.23 1221.94 1726.74 1222.29 1727.18 1222.73C1727.61 1223.18 1727.94 1223.72 1728.18 1224.35C1728.42 1224.97 1728.54 1225.66 1728.54 1226.42V1226.92C1728.54 1227.68 1728.42 1228.37 1728.18 1229C1727.94 1229.62 1727.61 1230.16 1727.18 1230.61C1726.75 1231.05 1726.23 1231.4 1725.63 1231.64C1725.03 1231.88 1724.38 1232 1723.65 1232ZM1722.58 1221.34V1232H1720.38V1221.34H1722.58ZM1737.29 1230.29V1232H1731.61V1230.29H1737.29ZM1732.33 1221.34V1232H1730.13V1221.34H1732.33ZM1736.55 1225.68V1227.35H1731.61V1225.68H1736.55ZM1737.28 1221.34V1223.06H1731.61V1221.34H1737.28ZM1681.96 1247.21C1681.96 1247.02 1681.93 1246.85 1681.88 1246.7C1681.82 1246.54 1681.72 1246.4 1681.57 1246.27C1681.42 1246.14 1681.2 1246.01 1680.93 1245.88C1680.66 1245.76 1680.3 1245.62 1679.87 1245.49C1679.38 1245.33 1678.93 1245.16 1678.49 1244.96C1678.06 1244.77 1677.68 1244.54 1677.35 1244.28C1677.02 1244.02 1676.76 1243.71 1676.57 1243.36C1676.39 1243.02 1676.29 1242.61 1676.29 1242.16C1676.29 1241.71 1676.39 1241.31 1676.59 1240.95C1676.78 1240.58 1677.06 1240.27 1677.41 1240.01C1677.76 1239.75 1678.17 1239.54 1678.65 1239.4C1679.14 1239.26 1679.67 1239.19 1680.24 1239.19C1681.03 1239.19 1681.71 1239.33 1682.3 1239.61C1682.89 1239.9 1683.34 1240.29 1683.66 1240.78C1683.99 1241.27 1684.15 1241.84 1684.15 1242.47H1681.97C1681.97 1242.16 1681.9 1241.88 1681.77 1241.65C1681.65 1241.41 1681.45 1241.22 1681.19 1241.09C1680.93 1240.95 1680.6 1240.88 1680.21 1240.88C1679.82 1240.88 1679.51 1240.94 1679.25 1241.06C1679 1241.17 1678.81 1241.32 1678.68 1241.52C1678.55 1241.71 1678.49 1241.92 1678.49 1242.16C1678.49 1242.34 1678.54 1242.51 1678.62 1242.65C1678.72 1242.8 1678.85 1242.94 1679.03 1243.06C1679.21 1243.19 1679.44 1243.31 1679.7 1243.42C1679.96 1243.54 1680.27 1243.65 1680.62 1243.75C1681.2 1243.93 1681.71 1244.13 1682.15 1244.35C1682.59 1244.57 1682.96 1244.81 1683.26 1245.09C1683.56 1245.36 1683.78 1245.67 1683.93 1246.02C1684.08 1246.36 1684.16 1246.76 1684.16 1247.19C1684.16 1247.66 1684.07 1248.07 1683.89 1248.44C1683.71 1248.81 1683.45 1249.12 1683.11 1249.37C1682.76 1249.62 1682.36 1249.82 1681.88 1249.95C1681.41 1250.08 1680.88 1250.15 1680.29 1250.15C1679.77 1250.15 1679.25 1250.08 1678.73 1249.94C1678.22 1249.8 1677.75 1249.59 1677.33 1249.3C1676.92 1249.02 1676.59 1248.66 1676.34 1248.22C1676.09 1247.78 1675.96 1247.26 1675.96 1246.66H1678.17C1678.17 1246.99 1678.22 1247.27 1678.32 1247.5C1678.43 1247.73 1678.57 1247.92 1678.75 1248.06C1678.95 1248.2 1679.17 1248.3 1679.43 1248.37C1679.69 1248.43 1679.98 1248.46 1680.29 1248.46C1680.67 1248.46 1680.99 1248.41 1681.23 1248.3C1681.48 1248.19 1681.66 1248.04 1681.78 1247.85C1681.9 1247.66 1681.96 1247.45 1681.96 1247.21ZM1689.99 1241.16L1687.09 1250H1684.75L1688.72 1239.34H1690.2L1689.99 1241.16ZM1692.4 1250L1689.49 1241.16L1689.26 1239.34H1690.76L1694.74 1250H1692.4ZM1692.27 1246.03V1247.75H1686.64V1246.03H1692.27ZM1704.41 1239.34V1250H1702.21L1697.93 1242.85V1250H1695.73V1239.34H1697.93L1702.22 1246.49V1239.34H1704.41ZM1710.87 1239.34V1250H1708.68V1239.34H1710.87ZM1714.15 1239.34V1241.06H1705.45V1239.34H1714.15ZM1718.95 1241.16L1716.05 1250H1713.71L1717.68 1239.34H1719.16L1718.95 1241.16ZM1721.36 1250L1718.45 1241.16L1718.22 1239.34H1719.72L1723.7 1250H1721.36ZM1721.23 1246.03V1247.75H1715.6V1246.03H1721.23ZM1733.37 1239.34V1250H1731.17L1726.89 1242.85V1250H1724.69V1239.34H1726.89L1731.18 1246.49V1239.34H1733.37ZM1739.75 1241.16L1736.85 1250H1734.51L1738.48 1239.34H1739.96L1739.75 1241.16ZM1742.16 1250L1739.25 1241.16L1739.02 1239.34H1740.52L1744.5 1250H1742.16ZM1742.03 1246.03V1247.75H1736.4V1246.03H1742.03Z" fill="#42413E"/>
<path d="M1189.61 1420.78H1192.09L1195.74 1431.22L1199.39 1420.78H1201.87L1196.74 1435H1194.74L1189.61 1420.78ZM1188.27 1420.78H1190.74L1191.19 1430.96V1435H1188.27V1420.78ZM1200.74 1420.78H1203.22V1435H1200.29V1430.96L1200.74 1420.78ZM1211.75 1423.21L1207.88 1435H1204.76L1210.05 1420.78H1212.03L1211.75 1423.21ZM1214.96 1435L1211.08 1423.21L1210.77 1420.78H1212.77L1218.08 1435H1214.96ZM1214.78 1429.71V1432H1207.27V1429.71H1214.78ZM1229.69 1432.71V1435H1219.61V1432.71H1229.69ZM1229.54 1422.41L1220.91 1435H1218.85V1433.32L1227.55 1420.78H1229.54V1422.41ZM1228.53 1420.78V1423.08H1218.86V1420.78H1228.53ZM1237.47 1423.21L1233.6 1435H1230.49L1235.77 1420.78H1237.75L1237.47 1423.21ZM1240.68 1435L1236.8 1423.21L1236.49 1420.78H1238.49L1243.81 1435H1240.68ZM1240.51 1429.71V1432H1233V1429.71H1240.51ZM1256.22 1427.57V1433.2C1256 1433.47 1255.66 1433.76 1255.19 1434.07C1254.73 1434.38 1254.14 1434.64 1253.41 1434.86C1252.68 1435.08 1251.79 1435.2 1250.76 1435.2C1249.84 1435.2 1249.01 1435.05 1248.25 1434.75C1247.49 1434.44 1246.84 1433.99 1246.3 1433.41C1245.76 1432.82 1245.34 1432.11 1245.05 1431.26C1244.75 1430.41 1244.61 1429.43 1244.61 1428.34V1427.45C1244.61 1426.36 1244.75 1425.38 1245.03 1424.53C1245.31 1423.68 1245.72 1422.96 1246.25 1422.37C1246.78 1421.79 1247.4 1421.34 1248.13 1421.04C1248.86 1420.73 1249.67 1420.58 1250.56 1420.58C1251.8 1420.58 1252.82 1420.78 1253.61 1421.18C1254.41 1421.58 1255.01 1422.13 1255.43 1422.84C1255.85 1423.54 1256.11 1424.35 1256.21 1425.26H1253.37C1253.3 1424.78 1253.16 1424.36 1252.96 1424C1252.76 1423.65 1252.47 1423.37 1252.09 1423.16C1251.72 1422.96 1251.24 1422.86 1250.64 1422.86C1250.15 1422.86 1249.72 1422.96 1249.33 1423.16C1248.96 1423.36 1248.64 1423.65 1248.38 1424.03C1248.12 1424.42 1247.92 1424.89 1247.78 1425.46C1247.64 1426.03 1247.58 1426.68 1247.58 1427.43V1428.34C1247.58 1429.08 1247.65 1429.74 1247.79 1430.31C1247.93 1430.88 1248.15 1431.36 1248.43 1431.75C1248.71 1432.13 1249.06 1432.42 1249.48 1432.62C1249.9 1432.81 1250.38 1432.91 1250.94 1432.91C1251.4 1432.91 1251.78 1432.87 1252.09 1432.79C1252.4 1432.71 1252.65 1432.62 1252.84 1432.51C1253.04 1432.39 1253.18 1432.28 1253.29 1432.18V1429.66H1250.61V1427.57H1256.22ZM1264.36 1423.21L1260.5 1435H1257.38L1262.66 1420.78H1264.65L1264.36 1423.21ZM1267.58 1435L1263.7 1423.21L1263.39 1420.78H1265.39L1270.7 1435H1267.58ZM1267.4 1429.71V1432H1259.89V1429.71H1267.4ZM1266.1 1417.02L1267.72 1417.13C1267.72 1417.6 1267.63 1418.04 1267.44 1418.43C1267.25 1418.81 1266.99 1419.12 1266.66 1419.36C1266.33 1419.58 1265.95 1419.7 1265.52 1419.7C1265.2 1419.7 1264.93 1419.65 1264.71 1419.57C1264.48 1419.49 1264.28 1419.39 1264.09 1419.28C1263.9 1419.16 1263.71 1419.06 1263.5 1418.97C1263.31 1418.89 1263.08 1418.85 1262.83 1418.85C1262.6 1418.85 1262.41 1418.93 1262.24 1419.09C1262.09 1419.25 1262.01 1419.49 1262.01 1419.79L1260.38 1419.71C1260.38 1419.24 1260.47 1418.81 1260.66 1418.42C1260.85 1418.03 1261.11 1417.71 1261.44 1417.48C1261.78 1417.24 1262.15 1417.12 1262.58 1417.12C1262.84 1417.12 1263.09 1417.16 1263.31 1417.26C1263.53 1417.34 1263.74 1417.44 1263.94 1417.55C1264.15 1417.66 1264.36 1417.76 1264.58 1417.84C1264.79 1417.93 1265.02 1417.97 1265.26 1417.97C1265.49 1417.97 1265.68 1417.89 1265.85 1417.72C1266.02 1417.56 1266.1 1417.32 1266.1 1417.02ZM1283.52 1427.56V1428.23C1283.52 1429.31 1283.38 1430.28 1283.08 1431.14C1282.79 1432 1282.38 1432.73 1281.84 1433.34C1281.31 1433.94 1280.67 1434.4 1279.93 1434.72C1279.19 1435.04 1278.38 1435.2 1277.48 1435.2C1276.59 1435.2 1275.77 1435.04 1275.03 1434.72C1274.29 1434.4 1273.65 1433.94 1273.11 1433.34C1272.57 1432.73 1272.15 1432 1271.85 1431.14C1271.56 1430.28 1271.41 1429.31 1271.41 1428.23V1427.56C1271.41 1426.47 1271.56 1425.5 1271.85 1424.65C1272.15 1423.79 1272.56 1423.06 1273.09 1422.45C1273.63 1421.85 1274.27 1421.38 1275.01 1421.06C1275.75 1420.75 1276.57 1420.59 1277.46 1420.59C1278.36 1420.59 1279.17 1420.75 1279.91 1421.06C1280.65 1421.38 1281.29 1421.85 1281.82 1422.45C1282.36 1423.06 1282.78 1423.79 1283.07 1424.65C1283.37 1425.5 1283.52 1426.47 1283.52 1427.56ZM1280.56 1428.23V1427.54C1280.56 1426.78 1280.5 1426.12 1280.36 1425.55C1280.22 1424.97 1280.02 1424.49 1279.75 1424.1C1279.49 1423.71 1279.16 1423.42 1278.78 1423.22C1278.39 1423.02 1277.95 1422.92 1277.46 1422.92C1276.96 1422.92 1276.52 1423.02 1276.14 1423.22C1275.76 1423.42 1275.44 1423.71 1275.17 1424.1C1274.91 1424.49 1274.71 1424.97 1274.58 1425.55C1274.44 1426.12 1274.37 1426.78 1274.37 1427.54V1428.23C1274.37 1428.98 1274.44 1429.65 1274.58 1430.22C1274.71 1430.8 1274.92 1431.28 1275.18 1431.68C1275.45 1432.07 1275.78 1432.37 1276.16 1432.57C1276.54 1432.77 1276.98 1432.87 1277.48 1432.87C1277.97 1432.87 1278.41 1432.77 1278.8 1432.57C1279.18 1432.37 1279.5 1432.07 1279.76 1431.68C1280.02 1431.28 1280.22 1430.8 1280.36 1430.22C1280.5 1429.65 1280.56 1428.98 1280.56 1428.23Z" fill="#42413E"/>
</svg>
