<svg width="2616" height="1503" viewBox="0 0 2616 1503" fill="none" xmlns="http://www.w3.org/2000/svg">
<path d="M2349.34 1502.66V1387.5M2615.11 939.252H1328.05H1167.17H1086.73H724.747H684.527H523.645H443.204H121.441H0M2349.34 0.242432V47.1929V234.995V281.945V375.846V751.45V1052.5" stroke="#42413E" stroke-width="3"/>
<path d="M1611.07 469.27L1607.01 481.451C1605.21 485.963 1601.06 495.528 1598.89 497.694C1596.73 499.859 1586.26 503.108 1581.3 504.461L1592.13 517.997C1593.03 520.253 1594.29 527.201 1592.13 536.946C1589.42 549.128 1585.36 550.481 1584 553.188C1582.65 555.895 1582.65 568.077 1581.3 572.138C1579.94 576.198 1570.47 573.491 1563.7 574.845C1558.29 575.928 1551.52 577.101 1548.81 577.552L1546.11 592.441C1543.85 594.697 1539.34 599.479 1539.34 600.562C1539.34 601.915 1532.57 603.269 1532.57 604.622C1532.57 605.705 1522.64 608.683 1517.68 610.036C1514.07 610.488 1506.58 611.931 1505.5 614.097C1504.42 616.263 1501.44 617.707 1500.09 618.158C1499.18 619.962 1497.38 623.842 1497.38 624.925C1497.38 626.008 1495.57 631.693 1494.67 634.4V647.935V658.764C1491.51 664.178 1484.93 675.547 1483.84 677.713C1482.49 680.42 1470.31 685.834 1468.95 687.188C1467.6 688.541 1454.07 691.248 1451.36 692.602C1449.19 693.685 1444.14 696.662 1441.88 698.016C1437.82 699.821 1429.43 704.242 1428.35 707.49C1427 711.551 1418.87 711.551 1416.17 714.258C1413.46 716.965 1406.69 725.086 1406.69 726.44C1406.69 727.793 1405.34 737.268 1405.34 739.975C1405.34 742.141 1405.34 749.901 1405.34 753.51C1404.89 755.315 1403.44 759.195 1401.28 760.278C1398.57 761.632 1395.86 764.339 1393.16 767.046C1390.45 769.753 1387.74 771.106 1386.39 772.46C1385.31 773.543 1385.94 777.423 1386.39 779.227L1391.8 781.935H1401.28L1416.17 779.227L1440.53 781.935L1448.65 788.702V800.884L1444.59 809.005L1437.82 818.48C1436.92 820.736 1435.12 825.518 1435.12 826.601C1435.12 827.684 1436.02 832.466 1436.47 834.722L1448.65 844.197C1471.66 840.182 1489.74 840.634 1505.5 845.392C1513.03 855.503 1522.07 863.916 1532.57 872.301C1549.23 880.535 1564.28 891.8 1579.94 907.813C1584.61 948.397 1581.85 978.727 1573.57 1009.33C1573.71 1030.95 1575.49 1052.72 1579.94 1078.36C1581.45 1111.37 1590.4 1131.91 1611.07 1144.78C1618.55 1144.89 1631.37 1146.4 1650.33 1150.25C1671.38 1162.75 1688.71 1163.44 1709.88 1164.98C1727.6 1174.23 1743.36 1175.99 1762.67 1171.35C1776.61 1164.96 1794.85 1157.27 1818.16 1148.74L1973.82 1152.8C2039.82 1117.65 2065.38 1095.08 2075.33 1045.87C2088.79 1011.35 2097.47 993.264 2118.65 967.368C2120.72 960.484 2122.22 953.737 2125.41 937.59C2121.49 897.713 2122.81 872.718 2125.41 827.954C2136.74 817.866 2146.69 810.091 2156.5 800.884C2157.66 788.35 2159.34 773.989 2163.31 754.864C2185.81 694.771 2199.83 664.213 2232.34 626.279C2259.71 599.428 2282.69 575.106 2305.43 549.434C2317.37 527.007 2333.74 505.731 2354.21 482.805C2375.21 466.822 2392.95 447.558 2409.65 424.603L2424.54 420.543C2451.71 425.448 2463.94 422.051 2478.68 401.593C2516.86 366.358 2547.52 340.578 2584.26 313.83C2592.76 304.647 2602.83 295.88 2614.87 287.259M1611.07 469.27L1592.13 486.865L1566.41 484.158C1565.96 487.768 1565.05 495.799 1565.05 499.047C1565.05 503.108 1563.7 504.461 1566.41 509.875C1568.57 514.207 1575.43 517.997 1578.59 519.35C1581.3 523.411 1586.17 531.803 1584 532.885C1581.84 533.968 1578.59 539.653 1577.24 542.36C1573.63 541.458 1566.14 540.194 1565.05 542.36C1563.97 544.526 1554.68 548.677 1550.17 550.481L1544.75 554.542C1541.59 558.151 1535.28 565.641 1535.28 566.724C1535.28 567.806 1536.18 571.687 1536.63 573.491L1523.1 596.501L1501.44 597.855L1490.61 604.622L1486.55 616.804L1483.84 631.693V639.814L1478.43 656.056L1464.89 668.238L1441.88 680.42L1427 685.834L1416.17 693.955C1415.26 694.406 1413.19 695.579 1412.11 696.662C1411.02 697.745 1405.34 702.528 1402.63 704.783L1391.8 711.551C1391.8 712.905 1391.8 716.424 1391.8 719.672C1391.8 723.733 1391.8 725.086 1391.8 729.147C1391.8 732.395 1390.9 738.622 1390.45 741.329C1387.74 744.487 1381.79 751.345 1379.62 753.51C1377.46 755.676 1367.89 766.143 1363.38 771.106C1365.18 772.911 1368.79 777.062 1368.79 779.227C1368.79 781.393 1370.6 790.958 1371.5 795.47C1371.95 795.019 1373.4 794.387 1375.56 795.47C1377.73 796.553 1397.22 801.335 1406.69 803.591H1433.76C1431.96 806.298 1428.35 811.983 1428.35 813.066C1428.35 814.419 1424.29 821.187 1424.29 822.54C1424.29 823.623 1424.29 832.917 1424.29 837.429L1425.64 855.025C1427.9 855.476 1433.49 856.649 1437.82 857.732C1443.24 859.086 1440.53 857.732 1448.65 860.439C1456.77 863.146 1460.83 864.5 1467.6 864.5C1474.37 864.5 1479.78 864.5 1483.84 864.5C1487.9 864.5 1494.67 865.853 1498.73 867.207C1502.79 868.56 1505.5 868.56 1508.21 869.914C1510.91 871.267 1521.74 876.681 1521.74 878.035C1521.74 879.389 1525.8 883.449 1525.8 884.803C1525.8 885.885 1530.31 888.863 1532.57 890.217L1548.81 899.691C1551.52 904.203 1557.48 913.497 1559.64 914.58C1562.35 915.934 1566.41 918.641 1566.41 921.348C1566.41 924.055 1566.41 933.53 1566.41 936.237C1566.41 938.944 1569.12 940.297 1569.12 945.711C1569.12 951.125 1569.12 961.954 1569.12 964.661C1569.12 966.826 1565.51 975.489 1563.7 979.55C1563.7 983.159 1563.43 991.19 1562.35 994.438C1561.26 997.687 1560.09 1005.72 1559.64 1009.33L1555.58 1062.11C1556.03 1065.27 1557.48 1072.94 1559.64 1078.36C1562.35 1085.12 1565.05 1082.42 1562.35 1090.54C1560.18 1097.04 1561.45 1099.56 1562.35 1100.01L1573.18 1129.79V1141.97L1581.3 1160.92L1573.18 1178.52L1567.76 1190.7L1559.64 1215.06L1554.23 1225.89C1551.97 1226.34 1547.19 1227.79 1546.11 1229.95C1544.75 1232.66 1529.86 1246.19 1529.86 1242.13C1529.86 1238.07 1524.45 1235.37 1521.74 1234.01C1519.03 1232.66 1489.26 1238.07 1489.26 1234.01C1489.26 1230.76 1477.53 1227.25 1471.66 1225.89L1456.77 1220.48L1436.47 1223.18L1424.29 1229.95L1406.69 1236.72L1374.21 1255.67L1364.73 1259.73L1352.55 1273.27C1348.04 1276.87 1338.47 1283.82 1336.31 1282.74C1333.6 1281.39 1324.13 1273.27 1316.01 1273.27C1307.88 1273.27 1297.06 1273.26 1294.35 1266.5C1291.64 1259.73 1288.94 1251.61 1284.87 1250.26C1281.63 1249.17 1263.67 1244.39 1255.1 1242.13H1233.44L1200.96 1227.25C1193.74 1227.25 1177.95 1227.25 1172.53 1227.25C1167.12 1227.25 1142.3 1227.25 1130.57 1227.25L1115.68 1239.43C1111.62 1241.23 1103.23 1245.38 1102.15 1247.55C1101.07 1249.71 1097.19 1253.86 1095.38 1255.67L1112.98 1259.73C1116.59 1260.18 1126.51 1260 1137.34 1255.67C1150.88 1250.26 1161.7 1247.55 1164.41 1247.55C1166.58 1247.55 1194.19 1252.96 1207.72 1255.67C1214.94 1257.02 1230.19 1259.73 1233.44 1259.73C1237.5 1259.73 1259.16 1267.85 1261.87 1270.56C1264.57 1273.27 1279.46 1280.03 1290.29 1286.8C1298.95 1292.21 1311.04 1302.59 1316.01 1307.1C1318.71 1306.2 1324.67 1304.4 1326.83 1304.4C1329.54 1304.4 1347.14 1304.4 1348.49 1304.4C1349.57 1304.4 1356.16 1298.98 1359.32 1296.27C1366.09 1291.31 1380.7 1280.57 1385.04 1277.33C1390.45 1273.27 1393.16 1269.2 1401.28 1266.5C1409.4 1263.79 1422.93 1267.85 1431.06 1263.79C1439.18 1259.73 1463.54 1255.67 1463.54 1259.73C1463.54 1263.79 1463.54 1277.33 1468.95 1277.33C1474.37 1277.33 1481.14 1277.33 1485.2 1277.33C1489.26 1277.33 1490.61 1282.74 1493.32 1282.74C1495.48 1282.74 1503.24 1285.45 1506.85 1286.8C1505.95 1289.96 1503.6 1297.09 1501.44 1300.34C1499.27 1303.58 1487.9 1312.52 1482.49 1316.58L1456.77 1324.7C1449.1 1326.5 1433.22 1330.93 1431.06 1334.17C1428.35 1338.23 1416.17 1361.24 1414.81 1362.6C1413.46 1363.95 1406.69 1376.13 1406.69 1381.55C1406.69 1385.88 1403.08 1399.59 1401.28 1405.91C1396.77 1409.52 1387.2 1416.74 1385.04 1416.74C1382.33 1416.74 1372.85 1419.45 1368.79 1420.8C1364.73 1422.15 1340.37 1427.57 1336.31 1427.57L1308 1422.5L1297.5 1416.74L1287 1399.5L1284.87 1379.5L1287 1354L1284.87 1339.5L1287 1328.5V1319L1281.5 1328.5L1280 1343L1278.5 1374.5L1280 1405.91L1290.29 1422.5L1313.3 1435.69C1317.63 1436.77 1334.96 1438.85 1343.08 1439.75C1346.69 1439.75 1354.99 1440.83 1359.32 1445.16C1364.73 1450.58 1374.21 1460.05 1371.5 1461.41C1369.33 1462.49 1362.48 1471.78 1359.32 1476.29L1344.43 1500.56V1502.66M1611.07 469.27L1638.5 410L1625 368.5M1625 368.5L1643 349.5C1651.33 337.333 1668.5 312.3 1670.5 309.5C1673 306 1692 283.5 1693 272.5C1693.8 263.7 1696.33 222.833 1697.5 203.5L1707 154M1625 368.5L1592.13 349.5L1598.89 336C1584.46 328.833 1554.5 313.5 1550.17 309.5C1544.75 304.5 1506 287.5 1498 280C1490 272.5 1480.5 265 1467.5 260C1457.1 256 1444.17 247.667 1439 244L1417.5 215L1409.5 189.5M1609.72 1175.81L1621.9 1178.52C1620.55 1179.87 1620.82 1182.85 1632.73 1183.93C1644.64 1185.01 1658.45 1187.09 1663.86 1187.99C1663.41 1186.64 1664.95 1184.74 1674.69 1187.99C1686.87 1192.05 1696.35 1194.76 1697.7 1194.76C1699.05 1194.76 1704.47 1197.47 1709.88 1194.76C1715.3 1192.05 1722.06 1192.05 1724.77 1192.05C1727.48 1192.05 1750.49 1194.76 1757.26 1192.05C1764.02 1189.35 1773.5 1183.93 1774.85 1183.93C1775.93 1183.93 1786.13 1179.42 1791.09 1177.16C1796.06 1174.46 1806.25 1169.04 1807.34 1169.04C1808.69 1169.04 1818.16 1169.04 1819.52 1169.04C1820.87 1169.04 1830.35 1171.75 1830.35 1173.1C1830.35 1174.46 1835.76 1182.58 1835.76 1183.93C1835.76 1185.29 1841.17 1194.76 1842.53 1197.47C1843.88 1200.17 1846.59 1209.65 1847.94 1213.71C1849.02 1216.96 1844.78 1227.7 1842.53 1232.66L1833.05 1252.96L1827.64 1257.02L1818.16 1261.08L1807.34 1263.79L1792.45 1265.14C1790.64 1265.14 1786.49 1265.14 1784.33 1265.14C1782.16 1265.14 1777.11 1268.75 1774.85 1270.56C1773.95 1270.56 1770.79 1271.64 1765.38 1275.97C1759.96 1280.3 1755.9 1283.19 1754.55 1284.09C1754.1 1285 1752.65 1287.07 1750.49 1288.15C1747.78 1289.51 1743.72 1293.57 1739.66 1294.92C1735.6 1296.27 1728.83 1301.69 1724.77 1301.69C1721.52 1301.69 1711.69 1303.49 1707.18 1304.4C1703.11 1305.3 1694.45 1307.1 1692.29 1307.1C1689.58 1307.1 1671.98 1309.81 1667.92 1307.1C1663.86 1304.4 1651.68 1300.34 1650.33 1301.69C1649.24 1302.77 1639.95 1303.95 1635.44 1304.4L1621.9 1301.69C1620.55 1300.79 1617.3 1298.71 1615.14 1297.63C1612.97 1296.55 1606.11 1293.57 1602.95 1292.21C1602.05 1289.96 1599.98 1284.91 1598.89 1282.74C1597.54 1280.03 1597.54 1270.56 1596.19 1265.14C1594.83 1259.73 1592.13 1263.79 1592.13 1257.02C1592.13 1250.26 1592.13 1244.84 1592.13 1242.13C1592.13 1239.97 1588.52 1234.92 1586.71 1232.66C1586.71 1230.4 1586.71 1224.81 1586.71 1220.48C1586.71 1215.06 1586.71 1206.94 1586.71 1205.59C1586.71 1204.24 1586.71 1200.17 1586.71 1197.47C1586.71 1194.76 1584 1187.99 1586.71 1187.99C1588.88 1187.99 1591.22 1183.48 1592.13 1181.23L1609.72 1175.81ZM1429.5 1247L1455 1250.26H1468.95L1474 1248.5L1485.2 1252.5L1501.44 1255.67L1521.5 1262.5L1532 1258L1535 1250.26H1521.74L1501.44 1244L1479.5 1239L1466 1234.01H1452.5H1438L1425.5 1236L1422.5 1242.13L1429.5 1247ZM1341.5 1291L1349.5 1286H1356L1354.5 1291L1348.49 1296.27L1341.5 1291ZM1507.5 1381.5L1498.5 1378.5L1507.5 1366.5L1521.5 1352.5V1350H1526L1536.5 1344.5C1541.83 1342 1552.6 1336.9 1553 1336.5C1553.4 1336.1 1558.83 1333 1561.5 1331.5H1564L1560.5 1338.5L1540 1353.5L1535.5 1351L1534.5 1358.5L1525.5 1359L1524 1366.5L1514.5 1365L1518 1372.5L1507.5 1381.5ZM1600 1319.5L1601 1326.5L1613.5 1325.5L1621.9 1319.5L1616 1313L1611 1309L1602.5 1310.5L1604.5 1318.5V1322L1600 1319.5ZM1943.5 1358.5H1937L1928.5 1364.5L1924.5 1372.5L1920 1379.5L1918 1381.5H1913L1910 1391.5C1907.83 1393.5 1903.2 1397.9 1902 1399.5C1900.8 1401.1 1888.17 1409.17 1882 1413L1872.5 1416.5C1866.83 1419.67 1855.2 1426.2 1854 1427C1852.8 1427.8 1843.5 1430 1839 1431H1828.5L1806.5 1433L1789 1435C1789.33 1438.67 1791 1445.9 1795 1445.5C1799 1445.1 1809.33 1445.33 1814 1445.5C1816.17 1449.33 1820.8 1457.2 1822 1458C1823.2 1458.8 1830.83 1467 1834.5 1471L1851 1478L1882 1486L1908.5 1478L1952.5 1471L1962.5 1463L1967 1458L1965.5 1453.5L1973 1449V1445.5L1962.5 1449L1947 1453.5L1937 1459.5L1924.5 1463L1910 1465L1902 1467.5H1894.5L1877.5 1463L1874.5 1453.5L1877.5 1441L1885 1437L1880 1445.5L1882 1456L1885 1463H1896.5L1906 1459.5H1918L1928.5 1458V1453.5L1924.5 1437H1928.5L1931 1449V1453.5H1934.5L1941 1449H1949.5L1955.5 1445.5L1962.5 1441L1973 1435L1975.5 1429H1969H1962.5L1969 1425H1975.5H1977.5L1980.5 1419.5L1983 1407.5L1985.5 1405L1988 1401.5V1397L1985.5 1391.5L1983 1385.5L1977.5 1381.5L1975.5 1374.5L1977.5 1370L1980.5 1367.5L1973 1362.5H1969L1967 1367.5L1962.5 1372.5L1959.5 1381.5L1961 1372.5L1962.5 1367.5L1961 1361L1955.5 1358.5H1943.5ZM1822 1410.5L1824 1413L1827.5 1415.5H1834.5L1842 1413L1846 1406L1848 1399.5L1850.5 1396L1843.5 1390L1836 1390.5L1832.5 1393.5V1397L1828.5 1396V1390.5L1822 1395C1821.17 1396.5 1819.4 1399.5 1819 1399.5C1818.6 1399.5 1816.17 1403.83 1815 1406V1410.5H1822ZM1810 1406L1815.5 1399V1396L1810 1395L1801 1393.5L1793.5 1395L1787.5 1397L1780.5 1398H1774.5H1771L1772 1395L1768 1393.5H1760.5L1754 1397L1739.5 1414.5L1774.5 1413L1782 1412L1799.5 1410.5L1810 1406ZM1723 1422.5L1732 1418.5L1737.5 1412L1739.5 1404.5L1738.5 1401.5L1721.5 1402.5C1719 1402.17 1713.9 1401.7 1713.5 1402.5C1713.1 1403.3 1705 1405.17 1701 1406H1697.5H1689L1683 1410.5L1678.5 1413L1677.5 1415.5C1679 1416.5 1682.2 1418.5 1683 1418.5C1683.8 1418.5 1687.33 1419.17 1689 1419.5L1696.5 1421L1701 1422.5H1709.5H1715.5H1723ZM1799.5 1451.5L1796.5 1457H1784.5L1763.5 1458L1752 1460L1737.5 1463.5L1735 1466L1725 1467H1719L1715.5 1464.5L1713.5 1457L1721.5 1450L1732 1445.5C1734.5 1444.83 1739.7 1443.4 1740.5 1443C1741.3 1442.6 1747.17 1441.5 1750 1441H1762L1764.5 1438L1780 1441L1786 1444L1788 1447L1793.5 1450L1799.5 1451.5ZM1710.5 1454L1721.5 1445.5L1724 1443H1702L1695 1444L1687.5 1445.5L1681.5 1447L1683 1451.5C1684.33 1451.5 1687.2 1451.6 1688 1452C1688.8 1452.4 1694.67 1452.83 1697.5 1453H1704L1710.5 1454ZM1705 1458L1710.5 1461V1467L1705 1469L1695 1470L1690.5 1473L1688 1475C1688 1475.17 1687.5 1475.6 1685.5 1476C1683.5 1476.4 1671 1478.5 1665 1479.5L1658 1478.5L1650 1475L1647 1473H1641.5L1636 1472L1633.5 1466L1634.5 1461H1640.5L1648 1462C1650.17 1460.67 1654.6 1458 1655 1458C1655.5 1458 1657 1459 1658 1458C1658.8 1457.2 1664.33 1457.67 1667 1458C1668.67 1457.33 1672.2 1456 1673 1456C1673.8 1456 1679 1456.67 1681.5 1457L1692 1458H1705ZM1669.5 1451.5L1657 1447C1654.67 1447.67 1649.7 1449.1 1648.5 1449.5C1647.3 1449.9 1642.67 1452.67 1640.5 1454L1645 1458L1652.5 1454H1657H1662L1669.5 1451.5ZM1437.5 1490L1456.77 1469L1465.5 1454C1469 1451.67 1475.7 1447 1474.5 1447C1473.3 1447 1471 1442.17 1470 1439.75H1458.5L1447.5 1443L1433 1453L1427 1466C1430.5 1465.5 1437.5 1464.4 1437.5 1464C1437.5 1463.5 1446 1460 1443.5 1462C1441.5 1463.6 1432.67 1469.33 1428.5 1472L1420 1473L1414.81 1482.5H1422V1497.5L1437.5 1490Z" stroke="#42413E" stroke-width="3"/>
<path d="M1228 1478.5L1232 1439L1243.5 1427L1254 1400.5L1265 1396L1278 1338L1295 1331C1301.17 1278.93 1314.73 1262.15 1355 1252V1238L1363 1222V1212.5L1379.5 1189.5L1400.5 1176.5L1427.5 1143H1460.5L1474.5 1128.5L1501.5 1039L1511.5 1020.5L1528 1009.5L1538.5 1001L1582.5 981L1614.5 973.5L1659 943.194M1828 801.5L1818 815.5C1811.5 820.667 1797.4 831.4 1793 833C1788.6 834.6 1753.17 843.333 1736 847.5L1715 860.5L1708.5 876L1696.5 903L1672.5 934L1659 943.194M1828 801.5L1837 785.5C1840.83 783.333 1847.9 776.4 1845.5 766C1843.1 755.6 1842.5 745.333 1842.5 741.5L1837 720L1842.5 684V654C1845.83 649.667 1852.8 640.7 1854 639.5C1855.2 638.3 1857.83 621.667 1859 613.5L1856.5 602.5V587.5L1859 570.5L1867 551L1874.5 542M1828 801.5L1854 805.5L1897 809L1928.5 825.5L1952.5 829L1968.5 819.5L2005 809L2023.5 801.5L2137.34 805.5M1874.5 542V528.5V509.5L1856.5 501.5C1852.83 502 1845.5 502.2 1845.5 499C1845.5 495 1849 490.5 1851.5 487C1853.5 484.2 1857.33 473.5 1859 468.5C1857.67 465.333 1854.3 458.5 1851.5 456.5C1848.7 454.5 1842.67 445 1840 440.5L1814 403.5L1807 394.5V389.5L1819.5 380L1827 369.5C1832.33 365.833 1843.5 358.1 1845.5 356.5C1847.5 354.9 1860.67 338.833 1867 331L1893.5 264V228L1908.5 185L1901.5 137M1874.5 542L1891 557.5L1909.5 570.5L1924 580L1971 595.5L1995 604L2011.5 605.5L2030.5 607.5L2091.5 642.5L2105 643.081M2138 698.5L2144 673V656L2138 644.5L2105 643.081M2138 698.5L2142.5 704L2145.5 716L2148.5 726.75M2138 698.5L2137 704.5L2138.5 715L2142.5 726.5C2142.5 731.167 2142.5 741.6 2142.5 746C2142.5 750.4 2142.5 763.5 2142.5 769.5L2140.5 787L2143.5 789.5L2149.5 787M2149.5 787V749.5L2151.5 737.5L2148.5 726.75M2149.5 787L2142.5 801.5L2137.34 805.5M2148.5 726.75L2158.5 715L2171 699.5L2179.5 681.5L2188.5 677.5L2195.5 666C2196.67 663 2199.4 656.4 2201 654C2203 651 2207 642.5 2206 642.5C2205.2 642.5 2202.33 630.167 2201 624L2197.5 612V604L2166 605.5L2163 560.5H2147.5M2105 643.081V585.5L2142.5 560.5H2147.5M2147.5 560.5L2149.5 498.5C2145.17 484 2136.5 454.6 2136.5 453C2136.5 451 2133.5 450 2136.5 446C2138.9 442.8 2141.5 439.667 2142.5 438.5C2143.67 436.5 2147.3 432.1 2152.5 430.5C2157.7 428.9 2167.33 424.5 2171.5 422.5C2178.33 417.167 2192.1 404.8 2192.5 398C2192.9 391.2 2196 383.167 2197.5 380L2210 369.5H2221.5L2242 340.5C2244.17 337.333 2249.4 331 2253 331C2257.5 331 2277.5 327.5 2281 326.5C2283.8 325.7 2296.17 326.167 2302 326.5C2302.5 323.167 2304.1 315.9 2306.5 313.5C2308.9 311.1 2327.17 296.833 2336 290V275V255.5M1659 943.194L1664.5 964V981C1667.17 980.833 1672.5 981.1 1672.5 983.5C1672.5 985.9 1672.5 998.167 1672.5 1004V1039L1670 1058.5V1072.5L1672.5 1089L1678 1097L1675 1139L1727.5 1143C1734.33 1144.67 1748.3 1147.5 1749.5 1145.5C1751 1143 1753.5 1136.5 1755.5 1132.5C1757.5 1128.5 1763.5 1121.5 1765.5 1120.5C1767.1 1119.7 1772.83 1116.83 1775.5 1115.5L1790 1120.5C1794.33 1122.33 1803.3 1125.8 1804.5 1125C1806 1124 1828 1120.5 1831 1120.5C1833.4 1120.5 1845 1117.17 1850.5 1115.5L1886 1108L1900 1102.5L1917.5 1108H1936.5L1971 1102.5L1991 1094C1997.5 1093.5 2010.9 1091.8 2012.5 1089C2014.5 1085.5 2024 1072.5 2024.5 1072.5C2024.9 1072.5 2034.67 1069.17 2039.5 1067.5L2046 1058.5C2051.33 1058.67 2061.4 1057 2059 1049C2056.6 1041 2055 1033.33 2054.5 1030.5L2046 1013C2045.33 1008.67 2043.9 999.6 2043.5 998C2043 996 2039.5 982 2039.5 977.5C2039.5 973 2041 969.5 2043.5 957.5C2046 945.5 2050 936.5 2054.5 934C2058.1 932 2068 927.167 2072.5 925C2074.5 923.333 2079.1 919.7 2081.5 918.5C2083.9 917.3 2092.83 914.333 2097 913L2109 906L2119 903C2119 897.333 2119 885 2119 881C2119 877 2119 844.667 2119 829L2122.5 817L2137.34 805.5" stroke="#42413E" stroke-opacity="0.5"/>
<path d="M2354.83 1083V1097.74H2351.49L2346.17 1090H2346.08V1097.74H2342.08V1083H2345.47L2350.72 1090.72H2350.83V1083H2354.83Z" fill="#42413E"/>
<path d="M2350.02 1342.71C2349.99 1342.23 2349.81 1341.86 2349.48 1341.59C2349.17 1341.32 2348.68 1341.19 2348.04 1341.19C2347.62 1341.19 2347.29 1341.24 2347.02 1341.34C2346.76 1341.43 2346.57 1341.57 2346.45 1341.73C2346.32 1341.9 2346.26 1342.09 2346.25 1342.31C2346.24 1342.49 2346.27 1342.65 2346.35 1342.79C2346.42 1342.93 2346.54 1343.06 2346.71 1343.17C2346.87 1343.28 2347.08 1343.38 2347.33 1343.48C2347.59 1343.57 2347.89 1343.65 2348.24 1343.72L2349.45 1343.98C2350.26 1344.15 2350.96 1344.38 2351.54 1344.66C2352.12 1344.95 2352.6 1345.28 2352.97 1345.66C2353.34 1346.04 2353.61 1346.47 2353.78 1346.95C2353.96 1347.42 2354.05 1347.94 2354.06 1348.5C2354.05 1349.47 2353.81 1350.29 2353.33 1350.96C2352.85 1351.63 2352.16 1352.15 2351.27 1352.5C2350.38 1352.85 2349.31 1353.02 2348.07 1353.02C2346.78 1353.02 2345.67 1352.83 2344.71 1352.45C2343.76 1352.07 2343.02 1351.49 2342.49 1350.7C2341.97 1349.91 2341.71 1348.9 2341.7 1347.67H2345.5C2345.53 1348.12 2345.64 1348.5 2345.84 1348.8C2346.04 1349.11 2346.33 1349.34 2346.69 1349.5C2347.06 1349.66 2347.5 1349.74 2348.01 1349.74C2348.44 1349.74 2348.79 1349.69 2349.08 1349.58C2349.37 1349.48 2349.59 1349.33 2349.74 1349.14C2349.88 1348.95 2349.96 1348.74 2349.97 1348.5C2349.96 1348.28 2349.89 1348.08 2349.74 1347.91C2349.6 1347.74 2349.37 1347.58 2349.05 1347.45C2348.73 1347.31 2348.3 1347.18 2347.75 1347.06L2346.28 1346.74C2344.97 1346.46 2343.95 1345.99 2343.19 1345.33C2342.44 1344.66 2342.07 1343.75 2342.08 1342.6C2342.07 1341.66 2342.32 1340.84 2342.82 1340.14C2343.33 1339.44 2344.04 1338.89 2344.93 1338.49C2345.84 1338.1 2346.87 1337.9 2348.04 1337.9C2349.23 1337.9 2350.26 1338.1 2351.13 1338.5C2351.99 1338.9 2352.66 1339.46 2353.13 1340.19C2353.61 1340.91 2353.85 1341.75 2353.85 1342.71H2350.02Z" fill="#42413E"/>
<path d="M2471.04 1226.7V1211.96H2475.04V1223.48H2481V1226.7H2471.04Z" fill="#42413E"/>
<path d="M2231.34 1219.33C2231.34 1220.97 2231.02 1222.36 2230.38 1223.49C2229.75 1224.61 2228.88 1225.46 2227.8 1226.04C2226.71 1226.62 2225.5 1226.91 2224.17 1226.91C2222.83 1226.91 2221.61 1226.62 2220.53 1226.04C2219.45 1225.45 2218.59 1224.6 2217.95 1223.47C2217.32 1222.34 2217 1220.96 2217 1219.33C2217 1217.69 2217.32 1216.31 2217.95 1215.19C2218.59 1214.06 2219.45 1213.21 2220.53 1212.63C2221.61 1212.05 2222.83 1211.76 2224.17 1211.76C2225.5 1211.76 2226.71 1212.05 2227.8 1212.63C2228.88 1213.21 2229.75 1214.06 2230.38 1215.19C2231.02 1216.31 2231.34 1217.69 2231.34 1219.33ZM2227.22 1219.33C2227.22 1218.45 2227.11 1217.71 2226.87 1217.1C2226.64 1216.49 2226.3 1216.03 2225.84 1215.72C2225.39 1215.4 2224.83 1215.24 2224.17 1215.24C2223.51 1215.24 2222.95 1215.4 2222.49 1215.72C2222.04 1216.03 2221.7 1216.49 2221.46 1217.1C2221.23 1217.71 2221.12 1218.45 2221.12 1219.33C2221.12 1220.22 2221.23 1220.96 2221.46 1221.57C2221.7 1222.18 2222.04 1222.64 2222.49 1222.95C2222.95 1223.27 2223.51 1223.42 2224.17 1223.42C2224.83 1223.42 2225.39 1223.27 2225.84 1222.95C2226.3 1222.64 2226.64 1222.18 2226.87 1221.57C2227.11 1220.96 2227.22 1220.22 2227.22 1219.33Z" fill="#42413E"/>
<path d="M2291.29 1132.1C2309.61 1120.18 2321.32 1116.57 2344.5 1114.92M2352.95 1114.92C2375.17 1116.7 2386.95 1120.23 2406.45 1132.1M2435.73 1161.66C2446.84 1179.37 2451.06 1190.23 2453.19 1212.06M2453.19 1227.83C2450.67 1249.43 2446.78 1260.41 2435.45 1277.95M2406.73 1307.8C2387.44 1319.45 2375.6 1323.26 2352.67 1325.26M2344.5 1325.26C2324.08 1323.84 2311.22 1320.39 2290.16 1307.8M2261.72 1278.51C2249.1 1257.26 2245.31 1246.18 2243.98 1227.83M2243.98 1212.06C2246.53 1190.81 2250.31 1179.68 2261.72 1161.38M2410.96 1282.17L2419.97 1291.18M2451.22 1322.44L2432.36 1303.57M2285.94 1157.72L2277.21 1148.93M2245.95 1117.45L2264.69 1136.32M2411.24 1157.16L2419.9 1148.62M2451.5 1117.45L2432.64 1136.06M2245.95 1322.44L2264.62 1303.77M2285.94 1282.46L2277.35 1291.05M2354.83 1083V1097.74H2351.49L2346.17 1090H2346.08V1097.74H2342.08V1083H2345.47L2350.72 1090.72H2350.83V1083H2354.83ZM2350.02 1342.71C2349.99 1342.23 2349.81 1341.86 2349.48 1341.59C2349.17 1341.32 2348.68 1341.19 2348.04 1341.19C2347.62 1341.19 2347.29 1341.24 2347.02 1341.34C2346.76 1341.43 2346.57 1341.57 2346.45 1341.73C2346.32 1341.9 2346.26 1342.09 2346.25 1342.31C2346.24 1342.49 2346.27 1342.65 2346.35 1342.79C2346.42 1342.93 2346.54 1343.06 2346.71 1343.17C2346.87 1343.28 2347.08 1343.38 2347.33 1343.48C2347.59 1343.57 2347.89 1343.65 2348.24 1343.72L2349.45 1343.98C2350.26 1344.15 2350.96 1344.38 2351.54 1344.66C2352.12 1344.95 2352.6 1345.28 2352.97 1345.66C2353.34 1346.04 2353.61 1346.47 2353.78 1346.95C2353.96 1347.42 2354.05 1347.94 2354.06 1348.5C2354.05 1349.47 2353.81 1350.29 2353.33 1350.96C2352.85 1351.63 2352.16 1352.15 2351.27 1352.5C2350.38 1352.85 2349.31 1353.02 2348.07 1353.02C2346.78 1353.02 2345.67 1352.83 2344.71 1352.45C2343.76 1352.07 2343.02 1351.49 2342.49 1350.7C2341.97 1349.91 2341.71 1348.9 2341.7 1347.67H2345.5C2345.53 1348.12 2345.64 1348.5 2345.84 1348.8C2346.04 1349.11 2346.33 1349.34 2346.69 1349.5C2347.06 1349.66 2347.5 1349.74 2348.01 1349.74C2348.44 1349.74 2348.79 1349.69 2349.08 1349.58C2349.37 1349.48 2349.59 1349.33 2349.74 1349.14C2349.88 1348.95 2349.96 1348.74 2349.97 1348.5C2349.96 1348.28 2349.89 1348.08 2349.74 1347.91C2349.6 1347.74 2349.37 1347.58 2349.05 1347.45C2348.73 1347.31 2348.3 1347.18 2347.75 1347.06L2346.28 1346.74C2344.97 1346.46 2343.95 1345.99 2343.19 1345.33C2342.44 1344.66 2342.07 1343.75 2342.08 1342.6C2342.07 1341.66 2342.32 1340.84 2342.82 1340.14C2343.33 1339.44 2344.04 1338.89 2344.93 1338.49C2345.84 1338.1 2346.87 1337.9 2348.04 1337.9C2349.23 1337.9 2350.26 1338.1 2351.13 1338.5C2351.99 1338.9 2352.66 1339.46 2353.13 1340.19C2353.61 1340.91 2353.85 1341.75 2353.85 1342.71H2350.02ZM2471.04 1226.7V1211.96H2475.04V1223.48H2481V1226.7H2471.04ZM2231.34 1219.33C2231.34 1220.97 2231.02 1222.36 2230.38 1223.49C2229.75 1224.61 2228.88 1225.46 2227.8 1226.04C2226.71 1226.62 2225.5 1226.91 2224.17 1226.91C2222.83 1226.91 2221.61 1226.62 2220.53 1226.04C2219.45 1225.45 2218.59 1224.6 2217.95 1223.47C2217.32 1222.34 2217 1220.96 2217 1219.33C2217 1217.69 2217.32 1216.31 2217.95 1215.19C2218.59 1214.06 2219.45 1213.21 2220.53 1212.63C2221.61 1212.05 2222.83 1211.76 2224.17 1211.76C2225.5 1211.76 2226.71 1212.05 2227.8 1212.63C2228.88 1213.21 2229.75 1214.06 2230.38 1215.19C2231.02 1216.31 2231.34 1217.69 2231.34 1219.33ZM2227.22 1219.33C2227.22 1218.45 2227.11 1217.71 2226.87 1217.1C2226.64 1216.49 2226.3 1216.03 2225.84 1215.72C2225.39 1215.4 2224.83 1215.24 2224.17 1215.24C2223.51 1215.24 2222.95 1215.4 2222.49 1215.72C2222.04 1216.03 2221.7 1216.49 2221.46 1217.1C2221.23 1217.71 2221.12 1218.45 2221.12 1219.33C2221.12 1220.22 2221.23 1220.96 2221.46 1221.57C2221.7 1222.18 2222.04 1222.64 2222.49 1222.95C2222.95 1223.27 2223.51 1223.42 2224.17 1223.42C2224.83 1223.42 2225.39 1223.27 2225.84 1222.95C2226.3 1222.64 2226.64 1222.18 2226.87 1221.57C2227.11 1220.96 2227.22 1220.22 2227.22 1219.33Z" stroke="#42413E"/>
<path d="M2280.75 1227.46L2271.43 1220L2280.75 1212.54L2292.77 1220L2280.75 1227.46Z" fill="#42413E"/>
<path fill-rule="evenodd" clip-rule="evenodd" d="M2358.26 1253.15L2382.31 1228.98L2383.27 1228.01L2391.24 1220L2383.27 1211.99L2382.17 1210.88L2358.26 1186.85L2357.29 1185.88L2349.28 1177.83L2341.26 1185.8L2340.3 1186.76L2316.06 1210.88L2314.95 1211.99L2306.9 1220L2314.95 1228.01L2315.92 1228.98L2340.3 1253.24L2341.26 1254.2L2349.28 1262.17L2357.29 1254.12L2358.26 1253.15ZM2368.32 1228.98L2358.26 1239.09L2357.29 1240.06L2349.28 1248.12L2341.26 1240.14L2340.3 1239.18L2330.05 1228.98L2329.08 1228.01L2321.02 1220L2329.08 1211.99L2330.19 1210.88L2340.3 1200.82L2341.26 1199.86L2349.28 1191.88L2357.29 1199.94L2358.26 1200.91L2368.18 1210.88L2369.28 1211.99L2377.25 1220L2369.28 1228.01L2368.32 1228.98Z" fill="#42413E"/>
<path d="M2349.28 1297.57L2356.74 1288.53L2349.28 1276.23L2341.82 1288.53L2349.28 1297.57Z" fill="#42413E"/>
<path d="M2405.23 1220L2417.8 1227.46L2426.57 1220L2417.8 1212.54L2405.23 1220Z" fill="#42413E"/>
<path fill-rule="evenodd" clip-rule="evenodd" d="M2405.23 1200.38L2368.89 1163.77L2375.66 1150.37L2349.28 1115L2322.89 1150.37L2329.66 1163.77L2292.77 1200.38L2279.64 1193.61L2244 1220L2279.64 1246.25L2292.77 1239.62L2329.66 1276.23L2323.03 1289.63L2349.28 1325L2375.66 1289.63L2368.89 1276.23L2405.23 1239.62L2418.91 1246.39L2454 1220L2418.91 1193.61L2405.23 1200.38ZM2358.26 1163.77L2357.29 1165.7L2358.26 1166.67L2402.47 1210.88L2403.57 1211.99L2405.23 1210.88L2417.8 1205.08L2438 1220L2417.8 1234.92L2405.23 1228.98L2403.57 1228.01L2402.61 1228.98L2358.26 1273.33L2357.29 1274.3L2358.26 1276.23L2364.2 1288.53L2349.28 1309L2334.36 1288.53L2340.3 1276.23L2341.26 1274.3L2340.3 1273.33L2295.95 1228.98L2294.98 1228.01L2292.77 1228.98L2280.75 1234.92L2260 1220L2280.75 1205.08L2292.77 1210.88L2294.98 1211.99L2296.09 1210.88L2340.3 1166.67L2341.26 1165.7L2340.3 1163.77L2334.36 1151.47L2349.28 1131L2364.2 1151.47L2358.26 1163.77Z" fill="#42413E"/>
<path d="M2349.28 1142.43L2356.74 1151.47L2349.28 1163.77L2341.82 1151.47L2349.28 1142.43Z" fill="#42413E"/>
<path d="M2070.51 901.165L2076.3 899.284L2082.09 897.402L2088.76 937.615L2070.51 901.165Z" fill="#E12B36"/>
<path d="M2034.81 846.225L2078.68 831.968C2080.84 839.288 2079.25 842.67 2070.65 847.202L2087.49 879.058C2097.28 876.023 2101.34 877.719 2106.37 886.089L2044.55 906.175C2043.67 896.615 2045.78 892.725 2055.85 889.339L2050.91 853.614C2042.18 854.708 2038.23 853.781 2034.81 846.225Z" fill="#E12B36"/>
<path d="M1877.74 814.166L1880.86 839.569L1875.64 840.209L1872.52 814.806L1877.74 814.166ZM1886.74 811.643L1887.07 814.295C1887.16 815.051 1887.11 815.848 1886.92 816.686C1886.74 817.523 1886.45 818.332 1886.07 819.111C1885.68 819.879 1885.23 820.548 1884.72 821.119L1882.2 820.047C1882.54 819.308 1882.82 818.518 1883.02 817.679C1883.22 816.827 1883.26 815.867 1883.13 814.797L1882.8 812.127L1886.74 811.643ZM1893.23 812.263L1897.66 811.719L1906.48 829.569L1910.71 810.117L1915.14 809.573L1909.08 836.102L1905.53 836.539L1893.23 812.263ZM1890.84 812.557L1895.25 812.015L1898.29 830.096L1899.17 837.319L1893.96 837.96L1890.84 812.557ZM1913.12 809.821L1917.55 809.277L1920.67 834.68L1915.44 835.323L1914.55 828.1L1913.12 809.821ZM1949.25 815.887L1949.75 819.97L1936.49 821.598L1935.99 817.515L1949.25 815.887ZM1936.27 806.978L1939.39 832.381L1934.16 833.024L1931.04 807.621L1936.27 806.978ZM1951.71 805.082L1954.83 830.485L1949.61 831.126L1946.5 805.723L1951.71 805.082ZM1975.93 823.751L1976.43 827.833L1962.91 829.494L1962.41 825.411L1975.93 823.751ZM1961.5 803.881L1964.62 829.284L1959.38 829.926L1956.27 804.523L1961.5 803.881ZM1972.82 812.993L1973.31 816.971L1961.55 818.415L1961.06 814.437L1972.82 812.993ZM1973.29 802.433L1973.8 806.533L1960.29 808.191L1959.79 804.091L1973.29 802.433ZM1976.36 802.055L1985.84 800.892C1987.78 800.654 1989.49 800.74 1990.95 801.15C1992.43 801.559 1993.62 802.286 1994.52 803.334C1995.41 804.381 1995.96 805.736 1996.17 807.399C1996.33 808.76 1996.24 809.957 1995.9 810.992C1995.56 812.013 1995.02 812.9 1994.26 813.655C1993.51 814.396 1992.6 815.027 1991.53 815.548L1989.98 816.623L1981.75 817.635L1981.21 813.556L1987.34 812.804C1988.26 812.692 1989 812.435 1989.56 812.035C1990.13 811.635 1990.52 811.126 1990.76 810.507C1991 809.887 1991.07 809.193 1990.98 808.426C1990.88 807.611 1990.64 806.926 1990.27 806.37C1989.89 805.814 1989.38 805.417 1988.72 805.178C1988.07 804.94 1987.27 804.878 1986.34 804.992L1982.1 805.513L1984.72 826.816L1979.48 827.458L1976.36 802.055ZM1993.69 825.715L1986.5 815.103L1992.03 814.389L1999.26 824.783L1999.29 825.027L1993.69 825.715ZM2018.92 818.472L2019.42 822.555L2005.9 824.215L2005.4 820.133L2018.92 818.472ZM2004.49 798.602L2007.61 824.005L2002.37 824.648L1999.26 799.245L2004.49 798.602ZM2015.81 807.714L2016.3 811.692L2004.54 813.136L2004.05 809.158L2015.81 807.714ZM2016.28 797.154L2016.79 801.254L2003.28 802.912L2002.78 798.812L2016.28 797.154ZM2033.82 795.001L2036.94 820.404L2031.72 821.045L2028.6 795.642L2033.82 795.001ZM2059.4 791.861L2062.51 817.264L2057.28 817.906L2044.98 802.131L2047.07 819.159L2041.84 819.802L2038.72 794.399L2043.95 793.756L2056.27 809.547L2054.18 792.501L2059.4 791.861ZM2075.24 789.915L2079.67 789.371L2088.48 807.221L2092.72 787.769L2097.15 787.225L2091.09 813.755L2087.53 814.192L2075.24 789.915ZM2072.85 790.209L2077.26 789.667L2080.3 807.748L2081.18 814.971L2075.97 815.612L2072.85 790.209ZM2095.13 787.473L2099.56 786.929L2102.68 812.332L2097.44 812.975L2096.56 805.752L2095.13 787.473ZM2115.32 789.403L2111 811.31L2105.43 811.994L2111.75 785.432L2115.3 784.997L2115.32 789.403ZM2123.65 809.757L2114.14 789.549L2113.05 785.273L2116.62 784.834L2129.23 809.072L2123.65 809.757ZM2122.17 800.339L2122.68 804.439L2109.26 806.087L2108.76 801.987L2122.17 800.339ZM2144.96 798.586L2150.18 797.946C2150.29 799.668 2150 801.244 2149.33 802.673C2148.66 804.1 2147.63 805.277 2146.24 806.205C2144.85 807.13 2143.12 807.721 2141.03 807.977C2139.41 808.177 2137.91 808.077 2136.55 807.677C2135.19 807.266 2133.99 806.587 2132.94 805.641C2131.9 804.694 2131.05 803.5 2130.39 802.058C2129.73 800.616 2129.28 798.965 2129.06 797.104L2128.84 795.341C2128.61 793.48 2128.65 791.77 2128.95 790.209C2129.27 788.636 2129.82 787.263 2130.61 786.092C2131.41 784.919 2132.42 783.969 2133.64 783.24C2134.86 782.512 2136.27 782.05 2137.86 781.854C2139.98 781.594 2141.81 781.759 2143.36 782.348C2144.92 782.936 2146.18 783.855 2147.15 785.106C2148.13 786.355 2148.81 787.83 2149.18 789.532L2143.95 790.174C2143.77 789.158 2143.46 788.316 2143.02 787.65C2142.58 786.971 2141.99 786.496 2141.23 786.222C2140.49 785.936 2139.54 785.864 2138.37 786.007C2137.5 786.114 2136.76 786.37 2136.15 786.776C2135.54 787.181 2135.05 787.743 2134.69 788.46C2134.33 789.177 2134.1 790.056 2134 791.095C2133.92 792.121 2133.96 793.308 2134.12 794.657L2134.34 796.455C2134.5 797.769 2134.74 798.914 2135.07 799.89C2135.38 800.854 2135.79 801.655 2136.28 802.291C2136.78 802.914 2137.38 803.36 2138.07 803.629C2138.78 803.885 2139.6 803.956 2140.53 803.842C2141.62 803.708 2142.5 803.422 2143.17 802.986C2143.83 802.55 2144.31 801.966 2144.6 801.234C2144.9 800.501 2145.02 799.618 2144.96 798.586ZM2162.4 783.624L2158.07 805.531L2152.51 806.214L2158.83 779.652L2162.37 779.217L2162.4 783.624ZM2170.72 803.977L2161.21 783.769L2160.12 779.493L2163.69 779.054L2176.3 803.292L2170.72 803.977ZM2169.25 794.56L2169.75 798.66L2156.33 800.307L2155.83 796.207L2169.25 794.56ZM2187.44 792.733L2180.97 793.528L2180.47 789.445L2186.94 788.65C2187.94 788.528 2188.73 788.265 2189.32 787.862C2189.91 787.448 2190.31 786.926 2190.53 786.297C2190.75 785.668 2190.81 784.981 2190.72 784.237C2190.63 783.481 2190.39 782.795 2190.02 782.179C2189.65 781.564 2189.13 781.097 2188.45 780.778C2187.78 780.46 2186.94 780.362 2185.94 780.485L2181.28 781.057L2183.89 802.36L2178.66 803.003L2175.54 777.6L2185.43 776.385C2187.42 776.141 2189.17 776.292 2190.68 776.839C2192.2 777.373 2193.41 778.222 2194.32 779.385C2195.23 780.548 2195.78 781.938 2195.98 783.555C2196.18 785.195 2195.98 786.661 2195.37 787.951C2194.76 789.242 2193.78 790.301 2192.43 791.128C2191.09 791.954 2189.43 792.489 2187.44 792.733ZM2206.54 778.204L2202.21 800.111L2196.65 800.794L2202.97 774.232L2206.51 773.797L2206.54 778.204ZM2214.86 798.558L2205.35 778.349L2204.26 774.074L2207.84 773.634L2220.45 797.872L2214.86 798.558ZM2213.39 789.14L2213.89 793.24L2200.47 794.887L2199.97 790.787L2213.39 789.14ZM2202.88 772.791L2205.64 766.997L2211.1 766.327L2206.96 772.289L2202.88 772.791Z" fill="#42413E"/>
<path d="M1690.67 1111.28C1690.67 1111.03 1690.63 1110.8 1690.55 1110.6C1690.48 1110.39 1690.35 1110.2 1690.14 1110.03C1689.94 1109.85 1689.66 1109.68 1689.29 1109.51C1688.93 1109.34 1688.46 1109.17 1687.88 1108.98C1687.23 1108.78 1686.62 1108.54 1686.04 1108.28C1685.47 1108.02 1684.96 1107.72 1684.52 1107.37C1684.08 1107.02 1683.74 1106.61 1683.48 1106.15C1683.24 1105.69 1683.11 1105.15 1683.11 1104.54C1683.11 1103.95 1683.24 1103.41 1683.5 1102.93C1683.76 1102.44 1684.13 1102.02 1684.6 1101.68C1685.07 1101.33 1685.62 1101.06 1686.26 1100.87C1686.9 1100.68 1687.61 1100.59 1688.38 1100.59C1689.43 1100.59 1690.34 1100.77 1691.12 1101.15C1691.9 1101.53 1692.51 1102.05 1692.94 1102.71C1693.37 1103.36 1693.59 1104.11 1693.59 1104.96H1690.68C1690.68 1104.54 1690.59 1104.18 1690.42 1103.87C1690.25 1103.55 1689.99 1103.3 1689.64 1103.12C1689.29 1102.93 1688.86 1102.84 1688.33 1102.84C1687.82 1102.84 1687.4 1102.92 1687.06 1103.08C1686.72 1103.23 1686.47 1103.43 1686.3 1103.69C1686.13 1103.95 1686.04 1104.23 1686.04 1104.55C1686.04 1104.79 1686.1 1105.01 1686.22 1105.21C1686.34 1105.4 1686.52 1105.58 1686.77 1105.75C1687.01 1105.92 1687.3 1106.08 1687.65 1106.23C1688.01 1106.38 1688.41 1106.53 1688.88 1106.67C1689.65 1106.9 1690.33 1107.17 1690.92 1107.46C1691.51 1107.75 1692 1108.08 1692.4 1108.45C1692.8 1108.81 1693.1 1109.23 1693.3 1109.69C1693.5 1110.15 1693.6 1110.67 1693.6 1111.26C1693.6 1111.88 1693.48 1112.43 1693.24 1112.92C1693 1113.41 1692.65 1113.82 1692.2 1114.16C1691.74 1114.5 1691.2 1114.76 1690.56 1114.93C1689.93 1115.11 1689.23 1115.2 1688.45 1115.2C1687.74 1115.2 1687.05 1115.1 1686.37 1114.92C1685.68 1114.73 1685.06 1114.45 1684.5 1114.07C1683.95 1113.69 1683.5 1113.21 1683.17 1112.63C1682.84 1112.04 1682.67 1111.35 1682.67 1110.55H1685.61C1685.61 1110.99 1685.68 1111.36 1685.82 1111.67C1685.96 1111.98 1686.15 1112.22 1686.39 1112.41C1686.65 1112.6 1686.95 1112.74 1687.29 1112.82C1687.64 1112.91 1688.03 1112.95 1688.45 1112.95C1688.95 1112.95 1689.37 1112.88 1689.7 1112.73C1690.03 1112.59 1690.27 1112.39 1690.43 1112.14C1690.59 1111.88 1690.67 1111.6 1690.67 1111.28ZM1701.38 1103.21L1697.51 1115H1694.39L1699.68 1100.78H1701.66L1701.38 1103.21ZM1704.59 1115L1700.71 1103.21L1700.4 1100.78H1702.4L1707.71 1115H1704.59ZM1704.41 1109.71V1112H1696.9V1109.71H1704.41ZM1720.6 1100.78V1115H1717.67L1711.96 1105.47V1115H1709.03V1100.78H1711.96L1717.68 1110.32V1100.78H1720.6ZM1729.22 1100.78V1115H1726.3V1100.78H1729.22ZM1733.59 1100.78V1103.08H1721.99V1100.78H1733.59ZM1739.99 1103.21L1736.12 1115H1733.01L1738.29 1100.78H1740.27L1739.99 1103.21ZM1743.2 1115L1739.32 1103.21L1739.01 1100.78H1741.01L1746.33 1115H1743.2ZM1743.03 1109.71V1112H1735.52V1109.71H1743.03ZM1759.22 1100.78V1115H1756.29L1750.57 1105.47V1115H1747.64V1100.78H1750.57L1756.3 1110.32V1100.78H1759.22ZM1767.72 1103.21L1763.86 1115H1760.74L1766.02 1100.78H1768.01L1767.72 1103.21ZM1770.94 1115L1767.06 1103.21L1766.75 1100.78H1768.75L1774.06 1115H1770.94ZM1770.76 1109.71V1112H1763.25V1109.71H1770.76Z" fill="#42413E"/>
<path d="M1189.61 1420.78H1192.09L1195.74 1431.22L1199.39 1420.78H1201.87L1196.74 1435H1194.74L1189.61 1420.78ZM1188.27 1420.78H1190.74L1191.19 1430.96V1435H1188.27V1420.78ZM1200.74 1420.78H1203.22V1435H1200.29V1430.96L1200.74 1420.78ZM1211.75 1423.21L1207.88 1435H1204.76L1210.05 1420.78H1212.03L1211.75 1423.21ZM1214.96 1435L1211.08 1423.21L1210.77 1420.78H1212.77L1218.08 1435H1214.96ZM1214.78 1429.71V1432H1207.27V1429.71H1214.78ZM1229.69 1432.71V1435H1219.61V1432.71H1229.69ZM1229.54 1422.41L1220.91 1435H1218.85V1433.32L1227.55 1420.78H1229.54V1422.41ZM1228.53 1420.78V1423.08H1218.86V1420.78H1228.53ZM1237.47 1423.21L1233.6 1435H1230.49L1235.77 1420.78H1237.75L1237.47 1423.21ZM1240.68 1435L1236.8 1423.21L1236.49 1420.78H1238.49L1243.81 1435H1240.68ZM1240.51 1429.71V1432H1233V1429.71H1240.51ZM1256.22 1427.57V1433.2C1256 1433.47 1255.66 1433.76 1255.19 1434.07C1254.73 1434.38 1254.14 1434.64 1253.41 1434.86C1252.68 1435.08 1251.79 1435.2 1250.76 1435.2C1249.84 1435.2 1249.01 1435.05 1248.25 1434.75C1247.49 1434.44 1246.84 1433.99 1246.3 1433.41C1245.76 1432.82 1245.34 1432.11 1245.05 1431.26C1244.75 1430.41 1244.61 1429.43 1244.61 1428.34V1427.45C1244.61 1426.36 1244.75 1425.38 1245.03 1424.53C1245.31 1423.68 1245.72 1422.96 1246.25 1422.37C1246.78 1421.79 1247.4 1421.34 1248.13 1421.04C1248.86 1420.73 1249.67 1420.58 1250.56 1420.58C1251.8 1420.58 1252.82 1420.78 1253.61 1421.18C1254.41 1421.58 1255.01 1422.13 1255.43 1422.84C1255.85 1423.54 1256.11 1424.35 1256.21 1425.26H1253.37C1253.3 1424.78 1253.16 1424.36 1252.96 1424C1252.76 1423.65 1252.47 1423.37 1252.09 1423.16C1251.72 1422.96 1251.24 1422.86 1250.64 1422.86C1250.15 1422.86 1249.72 1422.96 1249.33 1423.16C1248.96 1423.36 1248.64 1423.65 1248.38 1424.03C1248.12 1424.42 1247.92 1424.89 1247.78 1425.46C1247.64 1426.03 1247.58 1426.68 1247.58 1427.43V1428.34C1247.58 1429.08 1247.65 1429.74 1247.79 1430.31C1247.93 1430.88 1248.15 1431.36 1248.43 1431.75C1248.71 1432.13 1249.06 1432.42 1249.48 1432.62C1249.9 1432.81 1250.38 1432.91 1250.94 1432.91C1251.4 1432.91 1251.78 1432.87 1252.09 1432.79C1252.4 1432.71 1252.65 1432.62 1252.84 1432.51C1253.04 1432.39 1253.18 1432.28 1253.29 1432.18V1429.66H1250.61V1427.57H1256.22ZM1264.36 1423.21L1260.5 1435H1257.38L1262.66 1420.78H1264.65L1264.36 1423.21ZM1267.58 1435L1263.7 1423.21L1263.39 1420.78H1265.39L1270.7 1435H1267.58ZM1267.4 1429.71V1432H1259.89V1429.71H1267.4ZM1266.1 1417.02L1267.72 1417.13C1267.72 1417.6 1267.63 1418.04 1267.44 1418.43C1267.25 1418.81 1266.99 1419.12 1266.66 1419.36C1266.33 1419.58 1265.95 1419.7 1265.52 1419.7C1265.2 1419.7 1264.93 1419.65 1264.71 1419.57C1264.48 1419.49 1264.28 1419.39 1264.09 1419.28C1263.9 1419.16 1263.71 1419.06 1263.5 1418.97C1263.31 1418.89 1263.08 1418.85 1262.83 1418.85C1262.6 1418.85 1262.41 1418.93 1262.24 1419.09C1262.09 1419.25 1262.01 1419.49 1262.01 1419.79L1260.38 1419.71C1260.38 1419.24 1260.47 1418.81 1260.66 1418.42C1260.85 1418.03 1261.11 1417.71 1261.44 1417.48C1261.78 1417.24 1262.15 1417.12 1262.58 1417.12C1262.84 1417.12 1263.09 1417.16 1263.31 1417.26C1263.53 1417.34 1263.74 1417.44 1263.94 1417.55C1264.15 1417.66 1264.36 1417.76 1264.58 1417.84C1264.79 1417.93 1265.02 1417.97 1265.26 1417.97C1265.49 1417.97 1265.68 1417.89 1265.85 1417.72C1266.02 1417.56 1266.1 1417.32 1266.1 1417.02ZM1283.52 1427.56V1428.23C1283.52 1429.31 1283.38 1430.28 1283.08 1431.14C1282.79 1432 1282.38 1432.73 1281.84 1433.34C1281.31 1433.94 1280.67 1434.4 1279.93 1434.72C1279.19 1435.04 1278.38 1435.2 1277.48 1435.2C1276.59 1435.2 1275.77 1435.04 1275.03 1434.72C1274.29 1434.4 1273.65 1433.94 1273.11 1433.34C1272.57 1432.73 1272.15 1432 1271.85 1431.14C1271.56 1430.28 1271.41 1429.31 1271.41 1428.23V1427.56C1271.41 1426.47 1271.56 1425.5 1271.85 1424.65C1272.15 1423.79 1272.56 1423.06 1273.09 1422.45C1273.63 1421.85 1274.27 1421.38 1275.01 1421.06C1275.75 1420.75 1276.57 1420.59 1277.46 1420.59C1278.36 1420.59 1279.17 1420.75 1279.91 1421.06C1280.65 1421.38 1281.29 1421.85 1281.82 1422.45C1282.36 1423.06 1282.78 1423.79 1283.07 1424.65C1283.37 1425.5 1283.52 1426.47 1283.52 1427.56ZM1280.56 1428.23V1427.54C1280.56 1426.78 1280.5 1426.12 1280.36 1425.55C1280.22 1424.97 1280.02 1424.49 1279.75 1424.1C1279.49 1423.71 1279.16 1423.42 1278.78 1423.22C1278.39 1423.02 1277.95 1422.92 1277.46 1422.92C1276.96 1422.92 1276.52 1423.02 1276.14 1423.22C1275.76 1423.42 1275.44 1423.71 1275.17 1424.1C1274.91 1424.49 1274.71 1424.97 1274.58 1425.55C1274.44 1426.12 1274.37 1426.78 1274.37 1427.54V1428.23C1274.37 1428.98 1274.44 1429.65 1274.58 1430.22C1274.71 1430.8 1274.92 1431.28 1275.18 1431.68C1275.45 1432.07 1275.78 1432.37 1276.16 1432.57C1276.54 1432.77 1276.98 1432.87 1277.48 1432.87C1277.97 1432.87 1278.41 1432.77 1278.8 1432.57C1279.18 1432.37 1279.5 1432.07 1279.76 1431.68C1280.02 1431.28 1280.22 1430.8 1280.36 1430.22C1280.5 1429.65 1280.56 1428.98 1280.56 1428.23Z" fill="#42413E"/>
</svg>
