<svg width="1057" height="237" viewBox="0 0 1057 237" fill="none" xmlns="http://www.w3.org/2000/svg">
<path d="M48.3906 27.7656V31.3594C48.3906 35.6302 47.8568 39.4583 46.7891 42.8438C45.7214 46.2292 44.1849 49.1068 42.1797 51.4766C40.1745 53.8464 37.7656 55.6562 34.9531 56.9062C32.1667 58.1562 29.0417 58.7812 25.5781 58.7812C22.2188 58.7812 19.1328 58.1562 16.3203 56.9062C13.5339 55.6562 11.112 53.8464 9.05469 51.4766C7.02344 49.1068 5.44792 46.2292 4.32812 42.8438C3.20833 39.4583 2.64844 35.6302 2.64844 31.3594V27.7656C2.64844 23.4948 3.19531 19.6797 4.28906 16.3203C5.40885 12.9349 6.98438 10.0573 9.01562 7.6875C11.0469 5.29167 13.4557 3.46875 16.2422 2.21875C19.0547 0.96875 22.1406 0.34375 25.5 0.34375C28.9635 0.34375 32.0885 0.96875 34.875 2.21875C37.6875 3.46875 40.0964 5.29167 42.1016 7.6875C44.1328 10.0573 45.6823 12.9349 46.75 16.3203C47.8438 19.6797 48.3906 23.4948 48.3906 27.7656ZM40.9297 31.3594V27.6875C40.9297 24.3021 40.5781 21.3073 39.875 18.7031C39.1979 16.099 38.1953 13.9115 36.8672 12.1406C35.5391 10.3698 33.9115 9.02865 31.9844 8.11719C30.0833 7.20573 27.9219 6.75 25.5 6.75C23.1562 6.75 21.0339 7.20573 19.1328 8.11719C17.2578 9.02865 15.6432 10.3698 14.2891 12.1406C12.9609 13.9115 11.9323 16.099 11.2031 18.7031C10.474 21.3073 10.1094 24.3021 10.1094 27.6875V31.3594C10.1094 34.7708 10.474 37.7917 11.2031 40.4219C11.9323 43.026 12.974 45.2266 14.3281 47.0234C15.7083 48.7943 17.3359 50.1354 19.2109 51.0469C21.112 51.9583 23.2344 52.4141 25.5781 52.4141C28.026 52.4141 30.2005 51.9583 32.1016 51.0469C34.0026 50.1354 35.6042 48.7943 36.9062 47.0234C38.2344 45.2266 39.237 43.026 39.9141 40.4219C40.5911 37.7917 40.9297 34.7708 40.9297 31.3594ZM66.4375 15.7344V58H59.1719V15.7344H66.4375ZM58.625 4.52344C58.625 3.35156 58.9766 2.36198 59.6797 1.55469C60.4089 0.747396 61.4766 0.34375 62.8828 0.34375C64.263 0.34375 65.3177 0.747396 66.0469 1.55469C66.8021 2.36198 67.1797 3.35156 67.1797 4.52344C67.1797 5.64323 66.8021 6.60677 66.0469 7.41406C65.3177 8.19531 64.263 8.58594 62.8828 8.58594C61.4766 8.58594 60.4089 8.19531 59.6797 7.41406C58.9766 6.60677 58.625 5.64323 58.625 4.52344ZM84.6016 49.4062V55.2266C84.6016 57.5964 84.0026 60.0964 82.8047 62.7266C81.6068 65.3828 79.9271 67.5964 77.7656 69.3672L73.6641 66.5156C74.4974 65.3698 75.2005 64.1979 75.7734 63C76.3464 61.8281 76.776 60.6042 77.0625 59.3281C77.375 58.0781 77.5312 56.75 77.5312 55.3438V49.4062H84.6016ZM131.203 58.7812C128.26 58.7812 125.591 58.2865 123.195 57.2969C120.826 56.2812 118.781 54.862 117.062 53.0391C115.37 51.2161 114.068 49.0547 113.156 46.5547C112.245 44.0547 111.789 41.3203 111.789 38.3516V36.7109C111.789 33.2734 112.297 30.2135 113.312 27.5312C114.328 24.8229 115.708 22.5312 117.453 20.6562C119.198 18.7812 121.177 17.362 123.391 16.3984C125.604 15.4349 127.896 14.9531 130.266 14.9531C133.286 14.9531 135.891 15.474 138.078 16.5156C140.292 17.5573 142.102 19.0156 143.508 20.8906C144.914 22.7396 145.956 24.9271 146.633 27.4531C147.31 29.9531 147.648 32.6875 147.648 35.6562V38.8984H116.086V33H140.422V32.4531C140.318 30.5781 139.927 28.7552 139.25 26.9844C138.599 25.2135 137.557 23.7552 136.125 22.6094C134.693 21.4635 132.74 20.8906 130.266 20.8906C128.625 20.8906 127.115 21.2422 125.734 21.9453C124.354 22.6224 123.169 23.638 122.18 24.9922C121.19 26.3464 120.422 28 119.875 29.9531C119.328 31.9062 119.055 34.1589 119.055 36.7109V38.3516C119.055 40.3568 119.328 42.2448 119.875 44.0156C120.448 45.7604 121.268 47.2969 122.336 48.625C123.43 49.9531 124.745 50.9948 126.281 51.75C127.844 52.5052 129.615 52.8828 131.594 52.8828C134.146 52.8828 136.307 52.362 138.078 51.3203C139.849 50.2786 141.398 48.8854 142.727 47.1406L147.102 50.6172C146.19 51.9974 145.031 53.3125 143.625 54.5625C142.219 55.8125 140.487 56.8281 138.43 57.6094C136.398 58.3906 133.99 58.7812 131.203 58.7812ZM181.945 48.2344V15.7344H189.211V58H182.297L181.945 48.2344ZM183.312 39.3281L186.32 39.25C186.32 42.0625 186.021 44.6667 185.422 47.0625C184.849 49.4323 183.911 51.4896 182.609 53.2344C181.307 54.9792 179.602 56.3464 177.492 57.3359C175.383 58.2995 172.818 58.7812 169.797 58.7812C167.74 58.7812 165.852 58.4818 164.133 57.8828C162.44 57.2839 160.982 56.3594 159.758 55.1094C158.534 53.8594 157.583 52.2318 156.906 50.2266C156.255 48.2214 155.93 45.8125 155.93 43V15.7344H163.156V43.0781C163.156 44.9792 163.365 46.5547 163.781 47.8047C164.224 49.0286 164.81 50.0052 165.539 50.7344C166.294 51.4375 167.128 51.9323 168.039 52.2188C168.977 52.5052 169.94 52.6484 170.93 52.6484C174.003 52.6484 176.438 52.0625 178.234 50.8906C180.031 49.6927 181.32 48.0911 182.102 46.0859C182.909 44.0547 183.312 41.8021 183.312 39.3281ZM244.68 46.7891C244.68 45.7474 244.445 44.7839 243.977 43.8984C243.534 42.987 242.609 42.1667 241.203 41.4375C239.823 40.6823 237.74 40.0312 234.953 39.4844C232.609 38.9896 230.487 38.4036 228.586 37.7266C226.711 37.0495 225.109 36.2292 223.781 35.2656C222.479 34.3021 221.477 33.1693 220.773 31.8672C220.07 30.5651 219.719 29.0417 219.719 27.2969C219.719 25.6302 220.083 24.0547 220.812 22.5703C221.568 21.0859 222.622 19.7708 223.977 18.625C225.357 17.4792 227.01 16.5807 228.938 15.9297C230.865 15.2786 233.013 14.9531 235.383 14.9531C238.768 14.9531 241.659 15.5521 244.055 16.75C246.451 17.9479 248.286 19.5495 249.562 21.5547C250.839 23.5339 251.477 25.7344 251.477 28.1562H244.25C244.25 26.9844 243.898 25.8516 243.195 24.7578C242.518 23.638 241.516 22.7135 240.188 21.9844C238.885 21.2552 237.284 20.8906 235.383 20.8906C233.378 20.8906 231.75 21.2031 230.5 21.8281C229.276 22.4271 228.378 23.1953 227.805 24.1328C227.258 25.0703 226.984 26.0599 226.984 27.1016C226.984 27.8828 227.115 28.5859 227.375 29.2109C227.661 29.8099 228.156 30.3698 228.859 30.8906C229.562 31.3854 230.552 31.8542 231.828 32.2969C233.104 32.7396 234.732 33.1823 236.711 33.625C240.174 34.4062 243.026 35.3438 245.266 36.4375C247.505 37.5312 249.172 38.8724 250.266 40.4609C251.359 42.0495 251.906 43.9766 251.906 46.2422C251.906 48.0911 251.516 49.7839 250.734 51.3203C249.979 52.8568 248.872 54.1849 247.414 55.3047C245.982 56.3984 244.263 57.2578 242.258 57.8828C240.279 58.4818 238.052 58.7812 235.578 58.7812C231.854 58.7812 228.703 58.1172 226.125 56.7891C223.547 55.4609 221.594 53.7422 220.266 51.6328C218.938 49.5234 218.273 47.2969 218.273 44.9531H225.539C225.643 46.9323 226.216 48.5078 227.258 49.6797C228.299 50.8255 229.576 51.6458 231.086 52.1406C232.596 52.6094 234.094 52.8438 235.578 52.8438C237.557 52.8438 239.211 52.5833 240.539 52.0625C241.893 51.5417 242.922 50.8255 243.625 49.9141C244.328 49.0026 244.68 47.9609 244.68 46.7891ZM259.484 37.3359V36.4375C259.484 33.3906 259.927 30.5651 260.812 27.9609C261.698 25.3307 262.974 23.0521 264.641 21.125C266.307 19.1719 268.326 17.6615 270.695 16.5938C273.065 15.5 275.721 14.9531 278.664 14.9531C281.633 14.9531 284.302 15.5 286.672 16.5938C289.068 17.6615 291.099 19.1719 292.766 21.125C294.458 23.0521 295.747 25.3307 296.633 27.9609C297.518 30.5651 297.961 33.3906 297.961 36.4375V37.3359C297.961 40.3828 297.518 43.2083 296.633 45.8125C295.747 48.4167 294.458 50.6953 292.766 52.6484C291.099 54.5755 289.081 56.0859 286.711 57.1797C284.367 58.2474 281.711 58.7812 278.742 58.7812C275.773 58.7812 273.104 58.2474 270.734 57.1797C268.365 56.0859 266.333 54.5755 264.641 52.6484C262.974 50.6953 261.698 48.4167 260.812 45.8125C259.927 43.2083 259.484 40.3828 259.484 37.3359ZM266.711 36.4375V37.3359C266.711 39.4453 266.958 41.4375 267.453 43.3125C267.948 45.1615 268.69 46.8021 269.68 48.2344C270.695 49.6667 271.958 50.7995 273.469 51.6328C274.979 52.4401 276.737 52.8438 278.742 52.8438C280.721 52.8438 282.453 52.4401 283.938 51.6328C285.448 50.7995 286.698 49.6667 287.688 48.2344C288.677 46.8021 289.419 45.1615 289.914 43.3125C290.435 41.4375 290.695 39.4453 290.695 37.3359V36.4375C290.695 34.3542 290.435 32.388 289.914 30.5391C289.419 28.6641 288.664 27.0104 287.648 25.5781C286.659 24.1198 285.409 22.974 283.898 22.1406C282.414 21.3073 280.669 20.8906 278.664 20.8906C276.685 20.8906 274.94 21.3073 273.43 22.1406C271.945 22.974 270.695 24.1198 269.68 25.5781C268.69 27.0104 267.948 28.6641 267.453 30.5391C266.958 32.388 266.711 34.3542 266.711 36.4375ZM332.883 48.2344V15.7344H340.148V58H333.234L332.883 48.2344ZM334.25 39.3281L337.258 39.25C337.258 42.0625 336.958 44.6667 336.359 47.0625C335.786 49.4323 334.849 51.4896 333.547 53.2344C332.245 54.9792 330.539 56.3464 328.43 57.3359C326.32 58.2995 323.755 58.7812 320.734 58.7812C318.677 58.7812 316.789 58.4818 315.07 57.8828C313.378 57.2839 311.919 56.3594 310.695 55.1094C309.471 53.8594 308.521 52.2318 307.844 50.2266C307.193 48.2214 306.867 45.8125 306.867 43V15.7344H314.094V43.0781C314.094 44.9792 314.302 46.5547 314.719 47.8047C315.161 49.0286 315.747 50.0052 316.477 50.7344C317.232 51.4375 318.065 51.9323 318.977 52.2188C319.914 52.5052 320.878 52.6484 321.867 52.6484C324.94 52.6484 327.375 52.0625 329.172 50.8906C330.969 49.6927 332.258 48.0911 333.039 46.0859C333.846 44.0547 334.25 41.8021 334.25 39.3281ZM46.8125 117V208H28.125V117H46.8125ZM74.8125 117V131.688H0.5625V117H74.8125ZM101.938 112V208H83.9375V112H101.938ZM99.375 171.812H94.4375C94.4792 167.104 95.1042 162.771 96.3125 158.812C97.5208 154.812 99.25 151.354 101.5 148.438C103.75 145.479 106.438 143.188 109.562 141.562C112.729 139.938 116.229 139.125 120.062 139.125C123.396 139.125 126.417 139.604 129.125 140.562C131.875 141.479 134.229 142.979 136.188 145.062C138.188 147.104 139.729 149.792 140.812 153.125C141.896 156.458 142.438 160.5 142.438 165.25V208H124.312V165.125C124.312 162.125 123.875 159.771 123 158.062C122.167 156.312 120.938 155.083 119.312 154.375C117.729 153.625 115.771 153.25 113.438 153.25C110.854 153.25 108.646 153.729 106.812 154.688C105.021 155.646 103.583 156.979 102.5 158.688C101.417 160.354 100.625 162.312 100.125 164.562C99.625 166.812 99.375 169.229 99.375 171.812ZM175.125 140.375V208H157.062V140.375H175.125ZM155.938 122.75C155.938 120.125 156.854 117.958 158.688 116.25C160.521 114.542 162.979 113.688 166.062 113.688C169.104 113.688 171.542 114.542 173.375 116.25C175.25 117.958 176.188 120.125 176.188 122.75C176.188 125.375 175.25 127.542 173.375 129.25C171.542 130.958 169.104 131.812 166.062 131.812C162.979 131.812 160.521 130.958 158.688 129.25C156.854 127.542 155.938 125.375 155.938 122.75ZM226.5 192.75V162.625C226.5 160.458 226.146 158.604 225.438 157.062C224.729 155.479 223.625 154.25 222.125 153.375C220.667 152.5 218.771 152.062 216.438 152.062C214.438 152.062 212.708 152.417 211.25 153.125C209.792 153.792 208.667 154.771 207.875 156.062C207.083 157.312 206.688 158.792 206.688 160.5H188.688C188.688 157.625 189.354 154.896 190.688 152.312C192.021 149.729 193.958 147.458 196.5 145.5C199.042 143.5 202.062 141.938 205.562 140.812C209.104 139.688 213.062 139.125 217.438 139.125C222.688 139.125 227.354 140 231.438 141.75C235.521 143.5 238.729 146.125 241.062 149.625C243.438 153.125 244.625 157.5 244.625 162.75V191.688C244.625 195.396 244.854 198.438 245.312 200.812C245.771 203.146 246.438 205.188 247.312 206.938V208H229.125C228.25 206.167 227.583 203.875 227.125 201.125C226.708 198.333 226.5 195.542 226.5 192.75ZM228.875 166.812L229 177H218.938C216.562 177 214.5 177.271 212.75 177.812C211 178.354 209.562 179.125 208.438 180.125C207.312 181.083 206.479 182.208 205.938 183.5C205.438 184.792 205.188 186.208 205.188 187.75C205.188 189.292 205.542 190.688 206.25 191.938C206.958 193.146 207.979 194.104 209.312 194.812C210.646 195.479 212.208 195.812 214 195.812C216.708 195.812 219.062 195.271 221.062 194.188C223.062 193.104 224.604 191.771 225.688 190.188C226.812 188.604 227.396 187.104 227.438 185.688L232.188 193.312C231.521 195.021 230.604 196.792 229.438 198.625C228.312 200.458 226.875 202.188 225.125 203.812C223.375 205.396 221.271 206.708 218.812 207.75C216.354 208.75 213.438 209.25 210.062 209.25C205.771 209.25 201.875 208.396 198.375 206.688C194.917 204.938 192.167 202.542 190.125 199.5C188.125 196.417 187.125 192.917 187.125 189C187.125 185.458 187.792 182.312 189.125 179.562C190.458 176.812 192.417 174.5 195 172.625C197.625 170.708 200.896 169.271 204.812 168.312C208.729 167.312 213.271 166.812 218.438 166.812H228.875ZM301.312 140.375H317.625V205.75C317.625 211.917 316.25 217.146 313.5 221.438C310.792 225.771 307 229.042 302.125 231.25C297.25 233.5 291.583 234.625 285.125 234.625C282.292 234.625 279.292 234.25 276.125 233.5C273 232.75 270 231.583 267.125 230C264.292 228.417 261.917 226.417 260 224L267.938 213.375C270.021 215.792 272.438 217.667 275.188 219C277.938 220.375 280.979 221.062 284.312 221.062C287.562 221.062 290.312 220.458 292.562 219.25C294.812 218.083 296.542 216.354 297.75 214.062C298.958 211.812 299.562 209.083 299.562 205.875V156L301.312 140.375ZM255.812 175V173.688C255.812 168.521 256.438 163.833 257.688 159.625C258.979 155.375 260.792 151.729 263.125 148.688C265.5 145.646 268.375 143.292 271.75 141.625C275.125 139.958 278.938 139.125 283.188 139.125C287.688 139.125 291.458 139.958 294.5 141.625C297.542 143.292 300.042 145.667 302 148.75C303.958 151.792 305.479 155.396 306.562 159.562C307.688 163.688 308.562 168.208 309.188 173.125V176C308.562 180.708 307.625 185.083 306.375 189.125C305.125 193.167 303.479 196.708 301.438 199.75C299.396 202.75 296.854 205.083 293.812 206.75C290.812 208.417 287.229 209.25 283.062 209.25C278.896 209.25 275.125 208.396 271.75 206.688C268.417 204.979 265.562 202.583 263.188 199.5C260.812 196.417 258.979 192.792 257.688 188.625C256.438 184.458 255.812 179.917 255.812 175ZM273.812 173.688V175C273.812 177.792 274.083 180.396 274.625 182.812C275.167 185.229 276 187.375 277.125 189.25C278.292 191.083 279.729 192.521 281.438 193.562C283.188 194.562 285.25 195.062 287.625 195.062C290.917 195.062 293.604 194.375 295.688 193C297.771 191.583 299.333 189.646 300.375 187.188C301.417 184.729 302.021 181.896 302.188 178.688V170.5C302.104 167.875 301.75 165.521 301.125 163.438C300.5 161.312 299.625 159.5 298.5 158C297.375 156.5 295.917 155.333 294.125 154.5C292.333 153.667 290.208 153.25 287.75 153.25C285.375 153.25 283.312 153.792 281.562 154.875C279.854 155.917 278.417 157.354 277.25 159.188C276.125 161.021 275.271 163.188 274.688 165.688C274.104 168.146 273.812 170.812 273.812 173.688ZM328.75 174.875V173.562C328.75 168.604 329.458 164.042 330.875 159.875C332.292 155.667 334.354 152.021 337.062 148.938C339.771 145.854 343.104 143.458 347.062 141.75C351.021 140 355.562 139.125 360.688 139.125C365.812 139.125 370.375 140 374.375 141.75C378.375 143.458 381.729 145.854 384.438 148.938C387.188 152.021 389.271 155.667 390.688 159.875C392.104 164.042 392.812 168.604 392.812 173.562V174.875C392.812 179.792 392.104 184.354 390.688 188.562C389.271 192.729 387.188 196.375 384.438 199.5C381.729 202.583 378.396 204.979 374.438 206.688C370.479 208.396 365.938 209.25 360.812 209.25C355.688 209.25 351.125 208.396 347.125 206.688C343.167 204.979 339.812 202.583 337.062 199.5C334.354 196.375 332.292 192.729 330.875 188.562C329.458 184.354 328.75 179.792 328.75 174.875ZM346.75 173.562V174.875C346.75 177.708 347 180.354 347.5 182.812C348 185.271 348.792 187.438 349.875 189.312C351 191.146 352.458 192.583 354.25 193.625C356.042 194.667 358.229 195.188 360.812 195.188C363.312 195.188 365.458 194.667 367.25 193.625C369.042 192.583 370.479 191.146 371.562 189.312C372.646 187.438 373.438 185.271 373.938 182.812C374.479 180.354 374.75 177.708 374.75 174.875V173.562C374.75 170.812 374.479 168.229 373.938 165.812C373.438 163.354 372.625 161.188 371.5 159.312C370.417 157.396 368.979 155.896 367.188 154.812C365.396 153.729 363.229 153.188 360.688 153.188C358.146 153.188 355.979 153.729 354.188 154.812C352.438 155.896 351 157.396 349.875 159.312C348.792 161.188 348 163.354 347.5 165.812C347 168.229 346.75 170.812 346.75 173.562ZM509 160.438V196.5C507.583 198.208 505.396 200.062 502.438 202.062C499.479 204.021 495.667 205.708 491 207.125C486.333 208.542 480.688 209.25 474.062 209.25C468.188 209.25 462.833 208.292 458 206.375C453.167 204.417 449 201.562 445.5 197.812C442.042 194.062 439.375 189.479 437.5 184.062C435.625 178.604 434.688 172.375 434.688 165.375V159.688C434.688 152.688 435.583 146.458 437.375 141C439.208 135.542 441.812 130.938 445.188 127.188C448.562 123.438 452.583 120.583 457.25 118.625C461.917 116.667 467.104 115.688 472.812 115.688C480.729 115.688 487.229 116.979 492.312 119.562C497.396 122.104 501.271 125.646 503.938 130.188C506.646 134.688 508.312 139.854 508.938 145.688H490.75C490.292 142.604 489.417 139.917 488.125 137.625C486.833 135.333 484.979 133.542 482.562 132.25C480.188 130.958 477.104 130.312 473.312 130.312C470.188 130.312 467.396 130.958 464.938 132.25C462.521 133.5 460.479 135.354 458.812 137.812C457.146 140.271 455.875 143.312 455 146.938C454.125 150.562 453.688 154.771 453.688 159.562V165.375C453.688 170.125 454.146 174.333 455.062 178C455.979 181.625 457.333 184.688 459.125 187.188C460.958 189.646 463.208 191.5 465.875 192.75C468.542 194 471.646 194.625 475.188 194.625C478.146 194.625 480.604 194.375 482.562 193.875C484.562 193.375 486.167 192.771 487.375 192.062C488.625 191.312 489.583 190.604 490.25 189.938V173.812H473.125V160.438H509ZM520.125 174.875V173.562C520.125 168.604 520.833 164.042 522.25 159.875C523.667 155.667 525.729 152.021 528.438 148.938C531.146 145.854 534.479 143.458 538.438 141.75C542.396 140 546.938 139.125 552.062 139.125C557.188 139.125 561.75 140 565.75 141.75C569.75 143.458 573.104 145.854 575.812 148.938C578.562 152.021 580.646 155.667 582.062 159.875C583.479 164.042 584.188 168.604 584.188 173.562V174.875C584.188 179.792 583.479 184.354 582.062 188.562C580.646 192.729 578.562 196.375 575.812 199.5C573.104 202.583 569.771 204.979 565.812 206.688C561.854 208.396 557.312 209.25 552.188 209.25C547.062 209.25 542.5 208.396 538.5 206.688C534.542 204.979 531.188 202.583 528.438 199.5C525.729 196.375 523.667 192.729 522.25 188.562C520.833 184.354 520.125 179.792 520.125 174.875ZM538.125 173.562V174.875C538.125 177.708 538.375 180.354 538.875 182.812C539.375 185.271 540.167 187.438 541.25 189.312C542.375 191.146 543.833 192.583 545.625 193.625C547.417 194.667 549.604 195.188 552.188 195.188C554.688 195.188 556.833 194.667 558.625 193.625C560.417 192.583 561.854 191.146 562.938 189.312C564.021 187.438 564.812 185.271 565.312 182.812C565.854 180.354 566.125 177.708 566.125 174.875V173.562C566.125 170.812 565.854 168.229 565.312 165.812C564.812 163.354 564 161.188 562.875 159.312C561.792 157.396 560.354 155.896 558.562 154.812C556.771 153.729 554.604 153.188 552.062 153.188C549.521 153.188 547.354 153.729 545.562 154.812C543.812 155.896 542.375 157.396 541.25 159.312C540.167 161.188 539.375 163.354 538.875 165.812C538.375 168.229 538.125 170.812 538.125 173.562ZM612.875 154.812V208H594.875V140.375H611.75L612.875 154.812ZM610.25 171.812H605.375C605.375 166.812 606.021 162.312 607.312 158.312C608.604 154.271 610.417 150.833 612.75 148C615.083 145.125 617.854 142.938 621.062 141.438C624.312 139.896 627.938 139.125 631.938 139.125C635.104 139.125 638 139.583 640.625 140.5C643.25 141.417 645.5 142.875 647.375 144.875C649.292 146.875 650.75 149.521 651.75 152.812C652.792 156.104 653.312 160.125 653.312 164.875V208H635.188V164.812C635.188 161.812 634.771 159.479 633.938 157.812C633.104 156.146 631.875 154.979 630.25 154.312C628.667 153.604 626.708 153.25 624.375 153.25C621.958 153.25 619.854 153.729 618.062 154.688C616.312 155.646 614.854 156.979 613.688 158.688C612.562 160.354 611.708 162.312 611.125 164.562C610.542 166.812 610.25 169.229 610.25 171.812ZM694.938 195.188C697.146 195.188 699.104 194.771 700.812 193.938C702.521 193.062 703.854 191.854 704.812 190.312C705.812 188.729 706.333 186.875 706.375 184.75H723.312C723.271 189.5 722 193.729 719.5 197.438C717 201.104 713.646 204 709.438 206.125C705.229 208.208 700.521 209.25 695.312 209.25C690.062 209.25 685.479 208.375 681.562 206.625C677.688 204.875 674.458 202.458 671.875 199.375C669.292 196.25 667.354 192.625 666.062 188.5C664.771 184.333 664.125 179.875 664.125 175.125V173.312C664.125 168.521 664.771 164.062 666.062 159.938C667.354 155.771 669.292 152.146 671.875 149.062C674.458 145.938 677.688 143.5 681.562 141.75C685.438 140 689.979 139.125 695.188 139.125C700.729 139.125 705.583 140.188 709.75 142.312C713.958 144.438 717.25 147.479 719.625 151.438C722.042 155.354 723.271 160 723.312 165.375H706.375C706.333 163.125 705.854 161.083 704.938 159.25C704.062 157.417 702.771 155.958 701.062 154.875C699.396 153.75 697.333 153.188 694.875 153.188C692.25 153.188 690.104 153.75 688.438 154.875C686.771 155.958 685.479 157.458 684.562 159.375C683.646 161.25 683 163.396 682.625 165.812C682.292 168.188 682.125 170.688 682.125 173.312V175.125C682.125 177.75 682.292 180.271 682.625 182.688C682.958 185.104 683.583 187.25 684.5 189.125C685.458 191 686.771 192.479 688.438 193.562C690.104 194.646 692.271 195.188 694.938 195.188ZM688.188 207.75H701.75L701.062 211.438C703.438 211.854 705.604 212.854 707.562 214.438C709.521 216.021 710.5 218.625 710.5 222.25C710.5 224.458 710.021 226.458 709.062 228.25C708.146 230.042 706.771 231.583 704.938 232.875C703.104 234.208 700.812 235.208 698.062 235.875C695.312 236.583 692.146 236.938 688.562 236.938L688.125 226.938C689.458 226.938 690.667 226.75 691.75 226.375C692.833 226 693.688 225.417 694.312 224.625C694.938 223.875 695.25 222.875 695.25 221.625C695.25 220.458 694.938 219.542 694.312 218.875C693.688 218.208 692.708 217.708 691.375 217.375C690.083 217.042 688.375 216.812 686.25 216.688L688.188 207.75ZM770.25 192.75V162.625C770.25 160.458 769.896 158.604 769.188 157.062C768.479 155.479 767.375 154.25 765.875 153.375C764.417 152.5 762.521 152.062 760.188 152.062C758.188 152.062 756.458 152.417 755 153.125C753.542 153.792 752.417 154.771 751.625 156.062C750.833 157.312 750.438 158.792 750.438 160.5H732.438C732.438 157.625 733.104 154.896 734.438 152.312C735.771 149.729 737.708 147.458 740.25 145.5C742.792 143.5 745.812 141.938 749.312 140.812C752.854 139.688 756.812 139.125 761.188 139.125C766.438 139.125 771.104 140 775.188 141.75C779.271 143.5 782.479 146.125 784.812 149.625C787.188 153.125 788.375 157.5 788.375 162.75V191.688C788.375 195.396 788.604 198.438 789.062 200.812C789.521 203.146 790.188 205.188 791.062 206.938V208H772.875C772 206.167 771.333 203.875 770.875 201.125C770.458 198.333 770.25 195.542 770.25 192.75ZM772.625 166.812L772.75 177H762.688C760.312 177 758.25 177.271 756.5 177.812C754.75 178.354 753.312 179.125 752.188 180.125C751.062 181.083 750.229 182.208 749.688 183.5C749.188 184.792 748.938 186.208 748.938 187.75C748.938 189.292 749.292 190.688 750 191.938C750.708 193.146 751.729 194.104 753.062 194.812C754.396 195.479 755.958 195.812 757.75 195.812C760.458 195.812 762.812 195.271 764.812 194.188C766.812 193.104 768.354 191.771 769.438 190.188C770.562 188.604 771.146 187.104 771.188 185.688L775.938 193.312C775.271 195.021 774.354 196.792 773.188 198.625C772.062 200.458 770.625 202.188 768.875 203.812C767.125 205.396 765.021 206.708 762.562 207.75C760.104 208.75 757.188 209.25 753.812 209.25C749.521 209.25 745.625 208.396 742.125 206.688C738.667 204.938 735.917 202.542 733.875 199.5C731.875 196.417 730.875 192.917 730.875 189C730.875 185.458 731.542 182.312 732.875 179.562C734.208 176.812 736.167 174.5 738.75 172.625C741.375 170.708 744.646 169.271 748.562 168.312C752.479 167.312 757.021 166.812 762.188 166.812H772.625ZM821.25 112V208H803.188V112H821.25ZM859.125 194.875L874.125 140.375H892.938L870.125 208H858.75L859.125 194.875ZM848.812 140.375L863.875 194.938L864.188 208H852.75L829.938 140.375H848.812ZM931.25 209.25C926 209.25 921.292 208.417 917.125 206.75C912.958 205.042 909.417 202.688 906.5 199.688C903.625 196.688 901.417 193.208 899.875 189.25C898.333 185.25 897.562 181 897.562 176.5V174C897.562 168.875 898.292 164.188 899.75 159.938C901.208 155.688 903.292 152 906 148.875C908.75 145.75 912.083 143.354 916 141.688C919.917 139.979 924.333 139.125 929.25 139.125C934.042 139.125 938.292 139.917 942 141.5C945.708 143.083 948.812 145.333 951.312 148.25C953.854 151.167 955.771 154.667 957.062 158.75C958.354 162.792 959 167.292 959 172.25V179.75H905.25V167.75H941.312V166.375C941.312 163.875 940.854 161.646 939.938 159.688C939.062 157.688 937.729 156.104 935.938 154.938C934.146 153.771 931.854 153.188 929.062 153.188C926.688 153.188 924.646 153.708 922.938 154.75C921.229 155.792 919.833 157.25 918.75 159.125C917.708 161 916.917 163.208 916.375 165.75C915.875 168.25 915.625 171 915.625 174V176.5C915.625 179.208 916 181.708 916.75 184C917.542 186.292 918.646 188.271 920.062 189.938C921.521 191.604 923.271 192.896 925.312 193.812C927.396 194.729 929.75 195.188 932.375 195.188C935.625 195.188 938.646 194.562 941.438 193.312C944.271 192.021 946.708 190.083 948.75 187.5L957.5 197C956.083 199.042 954.146 201 951.688 202.875C949.271 204.75 946.354 206.292 942.938 207.5C939.521 208.667 935.625 209.25 931.25 209.25ZM1005.81 189.312C1005.81 188.021 1005.44 186.854 1004.69 185.812C1003.94 184.771 1002.54 183.812 1000.5 182.938C998.5 182.021 995.604 181.188 991.812 180.438C988.396 179.688 985.208 178.75 982.25 177.625C979.333 176.458 976.792 175.062 974.625 173.438C972.5 171.812 970.833 169.896 969.625 167.688C968.417 165.438 967.812 162.875 967.812 160C967.812 157.167 968.417 154.5 969.625 152C970.875 149.5 972.646 147.292 974.938 145.375C977.271 143.417 980.104 141.896 983.438 140.812C986.812 139.688 990.604 139.125 994.812 139.125C1000.69 139.125 1005.73 140.062 1009.94 141.938C1014.19 143.812 1017.44 146.396 1019.69 149.688C1021.98 152.938 1023.12 156.646 1023.12 160.812H1005.12C1005.12 159.062 1004.75 157.5 1004 156.125C1003.29 154.708 1002.17 153.604 1000.62 152.812C999.125 151.979 997.167 151.562 994.75 151.562C992.75 151.562 991.021 151.917 989.562 152.625C988.104 153.292 986.979 154.208 986.188 155.375C985.438 156.5 985.062 157.75 985.062 159.125C985.062 160.167 985.271 161.104 985.688 161.938C986.146 162.729 986.875 163.458 987.875 164.125C988.875 164.792 990.167 165.417 991.75 166C993.375 166.542 995.375 167.042 997.75 167.5C1002.62 168.5 1006.98 169.812 1010.81 171.438C1014.65 173.021 1017.69 175.188 1019.94 177.938C1022.19 180.646 1023.31 184.208 1023.31 188.625C1023.31 191.625 1022.65 194.375 1021.31 196.875C1019.98 199.375 1018.06 201.562 1015.56 203.438C1013.06 205.271 1010.06 206.708 1006.56 207.75C1003.1 208.75 999.208 209.25 994.875 209.25C988.583 209.25 983.25 208.125 978.875 205.875C974.542 203.625 971.25 200.771 969 197.312C966.792 193.812 965.688 190.229 965.688 186.562H982.75C982.833 189.021 983.458 191 984.625 192.5C985.833 194 987.354 195.083 989.188 195.75C991.062 196.417 993.083 196.75 995.25 196.75C997.583 196.75 999.521 196.438 1001.06 195.812C1002.6 195.146 1003.77 194.271 1004.56 193.188C1005.4 192.062 1005.81 190.771 1005.81 189.312ZM1035.88 199.312C1035.88 196.646 1036.79 194.417 1038.62 192.625C1040.5 190.833 1042.98 189.938 1046.06 189.938C1049.15 189.938 1051.6 190.833 1053.44 192.625C1055.31 194.417 1056.25 196.646 1056.25 199.312C1056.25 201.979 1055.31 204.208 1053.44 206C1051.6 207.792 1049.15 208.688 1046.06 208.688C1042.98 208.688 1040.5 207.792 1038.62 206C1036.79 204.208 1035.88 201.979 1035.88 199.312Z" fill="#302F2C"/>
</svg>
