<svg width="999" height="121" viewBox="0 0 999 121" fill="none" xmlns="http://www.w3.org/2000/svg">
<path d="M49 2V93H27.0625V2H49ZM76.375 2V18.9375H0.3125V2H76.375ZM147 38.125V55H100.312V38.125H147ZM107.625 2V93H85.6875V2H107.625ZM161.75 2V93H139.875V2H161.75ZM199 2V93H177.125V2H199ZM254.125 21.125L231.938 93H208.375L241.812 2H256.75L254.125 21.125ZM272.5 93L250.25 21.125L247.375 2H262.5L296.125 93H272.5ZM271.625 59.0625V76H224.938V59.0625H271.625ZM375.875 44.375V81.75C374.333 83.4583 371.958 85.2917 368.75 87.25C365.583 89.1667 361.583 90.8125 356.75 92.1875C351.917 93.5625 346.229 94.25 339.688 94.25C333.646 94.25 328.167 93.2917 323.25 91.375C318.333 89.4167 314.104 86.5625 310.562 82.8125C307.062 79.0208 304.354 74.3958 302.438 68.9375C300.562 63.4375 299.625 57.1458 299.625 50.0625V45C299.625 37.9167 300.583 31.625 302.5 26.125C304.417 20.625 307.104 16 310.562 12.25C314.062 8.45833 318.167 5.58333 322.875 3.625C327.625 1.66667 332.833 0.6875 338.5 0.6875C346.875 0.6875 353.688 2.02083 358.938 4.6875C364.188 7.3125 368.167 10.9583 370.875 15.625C373.583 20.25 375.229 25.6042 375.812 31.6875H354.75C354.333 28.6875 353.542 26.1458 352.375 24.0625C351.25 21.9375 349.625 20.3333 347.5 19.25C345.375 18.125 342.625 17.5625 339.25 17.5625C336.625 17.5625 334.229 18.125 332.062 19.25C329.938 20.375 328.125 22.0833 326.625 24.375C325.125 26.625 323.958 29.4583 323.125 32.875C322.333 36.2917 321.938 40.2917 321.938 44.875V50.0625C321.938 54.6042 322.312 58.5833 323.062 62C323.854 65.4167 325.021 68.2708 326.562 70.5625C328.146 72.8125 330.146 74.5208 332.562 75.6875C335.021 76.8125 337.917 77.375 341.25 77.375C343.583 77.375 345.583 77.1875 347.25 76.8125C348.917 76.3958 350.292 75.8958 351.375 75.3125C352.5 74.6875 353.354 74.1042 353.938 73.5625V59.4375H338.688V44.375H375.875ZM465.688 45.6875V49.375C465.688 56.3333 464.708 62.5833 462.75 68.125C460.833 73.625 458.104 78.3333 454.562 82.25C451.021 86.125 446.833 89.1042 442 91.1875C437.167 93.2292 431.833 94.25 426 94.25C420.125 94.25 414.75 93.2292 409.875 91.1875C405.042 89.1042 400.833 86.125 397.25 82.25C393.708 78.3333 390.958 73.625 389 68.125C387.083 62.5833 386.125 56.3333 386.125 49.375V45.6875C386.125 38.7292 387.083 32.4792 389 26.9375C390.958 21.3958 393.688 16.6875 397.188 12.8125C400.729 8.89583 404.917 5.91667 409.75 3.875C414.625 1.79167 420 0.75 425.875 0.75C431.708 0.75 437.042 1.79167 441.875 3.875C446.75 5.91667 450.958 8.89583 454.5 12.8125C458.042 16.6875 460.792 21.3958 462.75 26.9375C464.708 32.4792 465.688 38.7292 465.688 45.6875ZM443.438 49.375V45.5625C443.438 41.0625 443.042 37.1042 442.25 33.6875C441.5 30.2292 440.375 27.3333 438.875 25C437.375 22.6667 435.521 20.9167 433.312 19.75C431.146 18.5417 428.667 17.9375 425.875 17.9375C422.958 17.9375 420.417 18.5417 418.25 19.75C416.083 20.9167 414.271 22.6667 412.812 25C411.354 27.3333 410.25 30.2292 409.5 33.6875C408.792 37.1042 408.438 41.0625 408.438 45.5625V49.375C408.438 53.8333 408.792 57.7917 409.5 61.25C410.25 64.6667 411.354 67.5625 412.812 69.9375C414.312 72.3125 416.146 74.1042 418.312 75.3125C420.521 76.5208 423.083 77.125 426 77.125C428.792 77.125 431.271 76.5208 433.438 75.3125C435.604 74.1042 437.417 72.3125 438.875 69.9375C440.375 67.5625 441.5 64.6667 442.25 61.25C443.042 57.7917 443.438 53.8333 443.438 49.375ZM548.688 2V93H543.625L487.375 10.6875V93H482.25V2H487.375L543.625 84.1875V2H548.688ZM630.812 64.9375H635.875C635.25 71.3125 633.542 76.6875 630.75 81.0625C627.958 85.3958 624.208 88.6875 619.5 90.9375C614.833 93.1458 609.333 94.25 603 94.25C597.958 94.25 593.375 93.2917 589.25 91.375C585.167 89.4167 581.646 86.6667 578.688 83.125C575.771 79.5417 573.521 75.2708 571.938 70.3125C570.354 65.3542 569.562 59.875 569.562 53.875V41.125C569.562 35.0833 570.354 29.6042 571.938 24.6875C573.521 19.7292 575.771 15.4792 578.688 11.9375C581.646 8.35417 585.188 5.60417 589.312 3.6875C593.479 1.72917 598.125 0.75 603.25 0.75C609.458 0.75 614.896 1.85417 619.562 4.0625C624.229 6.27083 627.958 9.5625 630.75 13.9375C633.542 18.2708 635.25 23.625 635.875 30H630.812C630.188 24.7083 628.75 20.25 626.5 16.625C624.292 12.9583 621.25 10.1667 617.375 8.25C613.5 6.33333 608.792 5.375 603.25 5.375C598.875 5.375 594.938 6.22917 591.438 7.9375C587.938 9.60417 584.938 12.0208 582.438 15.1875C579.938 18.3125 578 22.0625 576.625 26.4375C575.292 30.7708 574.625 35.625 574.625 41V53.875C574.625 59.1667 575.292 64.0208 576.625 68.4375C577.958 72.8125 579.854 76.5833 582.312 79.75C584.771 82.875 587.75 85.3125 591.25 87.0625C594.75 88.7708 598.667 89.625 603 89.625C608.542 89.625 613.271 88.75 617.188 87C621.104 85.2083 624.188 82.4792 626.438 78.8125C628.729 75.1458 630.188 70.5208 630.812 64.9375ZM601.312 93.625H605.562L604.875 98.125C607.583 98.4167 610.042 99.3125 612.25 100.812C614.5 102.312 615.625 104.938 615.625 108.688C615.625 110.521 615.208 112.167 614.375 113.625C613.583 115.125 612.396 116.396 610.812 117.438C609.271 118.521 607.396 119.354 605.188 119.938C602.979 120.521 600.458 120.812 597.625 120.812L597.188 117.062C599.354 117.062 601.5 116.771 603.625 116.188C605.792 115.604 607.583 114.688 609 113.438C610.417 112.229 611.125 110.667 611.125 108.75C611.125 107 610.688 105.625 609.812 104.625C608.979 103.667 607.708 102.938 606 102.438C604.292 101.938 602.167 101.583 599.625 101.375L601.312 93.625ZM683.625 5.875L651.25 93H645.875L680.062 2H684.25L683.625 5.875ZM714.25 93L681.938 5.875L681.312 2H685.438L719.688 93H714.25ZM706.25 61.8125V66.5H659.562V61.8125H706.25ZM785 88.375V93H736.75V88.375H785ZM739 2V93H733.875V2H739ZM817.438 83.1875L847.25 2H852.75L818.812 93H814.438L817.438 83.1875ZM785 2L814.812 83.1875L817.812 93H813.438L779.5 2H785ZM922.875 88.375V93H869.812V88.375H922.875ZM872.062 2V93H867V2H872.062ZM916.5 43.8125V48.5H869.812V43.8125H916.5ZM922.75 2V6.625H869.812V2H922.75ZM993.188 70.9375C993.188 68.2292 992.729 65.8125 991.812 63.6875C990.896 61.5208 989.375 59.6042 987.25 57.9375C985.167 56.2292 982.417 54.6458 979 53.1875C975.583 51.7292 971.375 50.3125 966.375 48.9375C961.792 47.6875 957.646 46.3333 953.938 44.875C950.271 43.375 947.125 41.6667 944.5 39.75C941.917 37.8333 939.938 35.5625 938.562 32.9375C937.188 30.2708 936.5 27.125 936.5 23.5C936.5 20 937.25 16.8542 938.75 14.0625C940.25 11.2708 942.354 8.89583 945.062 6.9375C947.812 4.9375 951.021 3.41667 954.688 2.375C958.396 1.29167 962.438 0.75 966.812 0.75C972.938 0.75 978.292 1.91667 982.875 4.25C987.458 6.54167 991.042 9.72917 993.625 13.8125C996.208 17.8542 997.5 22.5 997.5 27.75H992.438C992.438 23.4583 991.375 19.625 989.25 16.25C987.167 12.875 984.208 10.2292 980.375 8.3125C976.583 6.35417 972.062 5.375 966.812 5.375C961.396 5.375 956.792 6.20833 953 7.875C949.25 9.54167 946.396 11.75 944.438 14.5C942.521 17.2083 941.562 20.1667 941.562 23.375C941.562 25.6667 941.979 27.8125 942.812 29.8125C943.688 31.8125 945.104 33.6458 947.062 35.3125C949.062 36.9792 951.75 38.5625 955.125 40.0625C958.542 41.5208 962.792 42.9375 967.875 44.3125C972.542 45.5208 976.729 46.8958 980.438 48.4375C984.188 49.9375 987.396 51.7083 990.062 53.75C992.729 55.7917 994.771 58.2083 996.188 61C997.604 63.7917 998.312 67.0625 998.312 70.8125C998.312 74.5208 997.521 77.8333 995.938 80.75C994.354 83.625 992.146 86.0833 989.312 88.125C986.521 90.125 983.229 91.6458 979.438 92.6875C975.688 93.7292 971.646 94.25 967.312 94.25C963.354 94.25 959.375 93.7708 955.375 92.8125C951.417 91.8542 947.792 90.3125 944.5 88.1875C941.208 86.0625 938.562 83.2708 936.562 79.8125C934.562 76.3542 933.562 72.1458 933.562 67.1875H938.625C938.625 71.4375 939.5 75.0208 941.25 77.9375C943 80.8125 945.292 83.1042 948.125 84.8125C950.958 86.5208 954.042 87.75 957.375 88.5C960.75 89.25 964.062 89.625 967.312 89.625C972.396 89.625 976.875 88.8542 980.75 87.3125C984.667 85.7292 987.708 83.5417 989.875 80.75C992.083 77.9167 993.188 74.6458 993.188 70.9375Z" fill="#42413E"/>
</svg>
